# MagicaVoxel @ Ephtracy

# group
o 

# material
mtllib Coin-0.mtl
usemtl palette

# normals
vn -1 0 0
vn 1 0 0
vn 0 0 1
vn 0 0 -1
vn 0 -1 0
vn 0 1 0

# texcoords
vt 0.970703 0.5
vt 0.974609 0.5
vt 0.978516 0.5

# verts
v -1.5 1.1 0.2
v -1.5 1.1 -0.2
v -1.5 1.9 0.2
v -1.5 1.9 -0.2
v -1.4 0.8 0.2
v -1.4 0.8 -0.2
v -1.4 1.1 0.2
v -1.4 1.1 -0.2
v -1.4 1.9 0.2
v -1.4 1.9 -0.2
v -1.4 2.2 0.2
v -1.4 2.2 -0.2
v -1.3 0.6 0.2
v -1.3 0.6 -0.2
v -1.3 0.8 0.2
v -1.3 0.8 -0.2
v -1.3 2.2 0.2
v -1.3 2.2 -0.2
v -1.3 2.4 0.2
v -1.3 2.4 -0.2
v -1.2 0.5 0.2
v -1.2 0.5 -0.2
v -1.2 0.6 0.2
v -1.2 0.6 -0.2
v -1.2 2.4 0.2
v -1.2 2.4 -0.2
v -1.2 2.5 0.2
v -1.2 2.5 -0.2
v -1.1 0.4 0.2
v -1.1 0.4 -0.2
v -1.1 0.5 0.2
v -1.1 0.5 -0.2
v -1.1 2.5 0.2
v -1.1 2.5 -0.2
v -1.1 2.6 0.2
v -1.1 2.6 -0.2
v -1 0.3 0.2
v -1 0.3 -0.2
v -1 0.4 0.2
v -1 0.4 -0.2
v -1 2.6 0.2
v -1 2.6 -0.2
v -1 2.7 0.2
v -1 2.7 -0.2
v -0.9 0.2 0.2
v -0.9 0.2 -0.2
v -0.9 0.3 0.2
v -0.9 0.3 -0.2
v -0.9 1.5 0.2
v -0.9 1.5 0.1
v -0.9 1.5 -0.1
v -0.9 1.5 -0.2
v -0.9 1.8 0.2
v -0.9 1.8 0.1
v -0.9 1.8 -0.1
v -0.9 1.8 -0.2
v -0.9 2.7 0.2
v -0.9 2.7 -0.2
v -0.9 2.8 0.2
v -0.9 2.8 -0.2
v -0.8 1.8 0.2
v -0.8 1.8 0.1
v -0.8 1.8 -0.1
v -0.8 1.8 -0.2
v -0.8 2.1 0.2
v -0.8 2.1 0.1
v -0.8 2.1 -0.1
v -0.8 2.1 -0.2
v -0.7 0.1 0.2
v -0.7 0.1 -0.2
v -0.7 0.2 0.2
v -0.7 0.2 -0.2
v -0.7 2.8 0.2
v -0.7 2.8 -0.2
v -0.7 2.9 0.2
v -0.7 2.9 -0.2
v -0.6 0.8 0.2
v -0.6 0.8 0.1
v -0.6 0.8 -0.1
v -0.6 0.8 -0.2
v -0.6 1.4 0.2
v -0.6 1.4 0.1
v -0.6 1.4 -0.1
v -0.6 1.4 -0.2
v -0.6 2.1 0.2
v -0.6 2.1 0.1
v -0.6 2.1 -0.1
v -0.6 2.1 -0.2
v -0.6 2.2 0.2
v -0.6 2.2 0.1
v -0.6 2.2 -0.1
v -0.6 2.2 -0.2
v -0.5 0.7 0.2
v -0.5 0.7 0.1
v -0.5 0.7 -0.1
v -0.5 0.7 -0.2
v -0.5 0.8 0.2
v -0.5 0.8 0.1
v -0.5 0.8 -0.1
v -0.5 0.8 -0.2
v -0.5 1.6 0.2
v -0.5 1.6 0.1
v -0.5 1.6 -0.1
v -0.5 1.6 -0.2
v -0.5 1.9 0.2
v -0.5 1.9 0.1
v -0.5 1.9 -0.1
v -0.5 1.9 -0.2
v -0.4 0 0.2
v -0.4 0 -0.2
v -0.4 0.1 0.2
v -0.4 0.1 -0.2
v -0.4 0.6 0.2
v -0.4 0.6 0.1
v -0.4 0.6 -0.1
v -0.4 0.6 -0.2
v -0.4 0.7 0.2
v -0.4 0.7 0.1
v -0.4 0.7 -0.1
v -0.4 0.7 -0.2
v -0.4 1.5 0.2
v -0.4 1.5 0.1
v -0.4 1.5 -0.1
v -0.4 1.5 -0.2
v -0.4 1.6 0.2
v -0.4 1.6 0.1
v -0.4 1.6 -0.1
v -0.4 1.6 -0.2
v -0.4 2.9 0.2
v -0.4 2.9 -0.2
v -0.4 3 0.2
v -0.4 3 -0.2
v -0.1 0.5 0.2
v -0.1 0.5 0.1
v -0.1 0.5 -0.1
v -0.1 0.5 -0.2
v -0.1 0.6 0.2
v -0.1 0.6 0.1
v -0.1 0.6 -0.1
v -0.1 0.6 -0.2
v 0.2 0.7 0.2
v 0.2 0.7 0.1
v 0.2 0.7 -0.1
v 0.2 0.7 -0.2
v 0.2 0.8 0.2
v 0.2 0.8 0.1
v 0.2 0.8 -0.1
v 0.2 0.8 -0.2
v 0.2 1.5 0.2
v 0.2 1.5 0.1
v 0.2 1.5 -0.1
v 0.2 1.5 -0.2
v 0.2 1.9 0.2
v 0.2 1.9 0.1
v 0.2 1.9 -0.1
v 0.2 1.9 -0.2
v 0.3 1.9 0.2
v 0.3 1.9 0.1
v 0.3 1.9 -0.1
v 0.3 1.9 -0.2
v 0.3 2.2 0.2
v 0.3 2.2 0.1
v 0.3 2.2 -0.1
v 0.3 2.2 -0.2
v 0.4 0.3 0.2
v 0.4 0.3 0.1
v 0.4 0.3 -0.1
v 0.4 0.3 -0.2
v 0.4 0.4 0.2
v 0.4 0.4 0.1
v 0.4 0.4 -0.1
v 0.4 0.4 -0.2
v 0.4 0.8 0.2
v 0.4 0.8 0.1
v 0.4 0.8 -0.1
v 0.4 0.8 -0.2
v 0.4 0.9 0.2
v 0.4 0.9 0.1
v 0.4 0.9 -0.1
v 0.4 0.9 -0.2
v 0.4 2.6 0.2
v 0.4 2.6 0.1
v 0.4 2.6 -0.1
v 0.4 2.6 -0.2
v 0.4 2.7 0.2
v 0.4 2.7 0.1
v 0.4 2.7 -0.1
v 0.4 2.7 -0.2
v 0.5 0.9 0.2
v 0.5 0.9 0.1
v 0.5 0.9 -0.1
v 0.5 0.9 -0.2
v 0.5 1.2 0.2
v 0.5 1.2 0.1
v 0.5 1.2 -0.1
v 0.5 1.2 -0.2
v 0.6 0.4 0.2
v 0.6 0.4 0.1
v 0.6 0.4 -0.1
v 0.6 0.4 -0.2
v 0.6 0.5 0.2
v 0.6 0.5 0.1
v 0.6 0.5 -0.1
v 0.6 0.5 -0.2
v 0.6 1.8 0.2
v 0.6 1.8 0.1
v 0.6 1.8 -0.1
v 0.6 1.8 -0.2
v 0.6 1.9 0.2
v 0.6 1.9 0.1
v 0.6 1.9 -0.1
v 0.6 1.9 -0.2
v 0.6 2.5 0.2
v 0.6 2.5 0.1
v 0.6 2.5 -0.1
v 0.6 2.5 -0.2
v 0.6 2.6 0.2
v 0.6 2.6 0.1
v 0.6 2.6 -0.1
v 0.6 2.6 -0.2
v 0.7 1.6 0.2
v 0.7 1.6 0.1
v 0.7 1.6 -0.1
v 0.7 1.6 -0.2
v 0.7 1.8 0.2
v 0.7 1.8 0.1
v 0.7 1.8 -0.1
v 0.7 1.8 -0.2
v 0.8 0.5 0.2
v 0.8 0.5 0.1
v 0.8 0.5 -0.1
v 0.8 0.5 -0.2
v 0.8 0.6 0.2
v 0.8 0.6 0.1
v 0.8 0.6 -0.1
v 0.8 0.6 -0.2
v 0.8 1.5 0.2
v 0.8 1.5 0.1
v 0.8 1.5 -0.1
v 0.8 1.5 -0.2
v 0.8 1.6 0.2
v 0.8 1.6 0.1
v 0.8 1.6 -0.1
v 0.8 1.6 -0.2
v 0.8 2.4 0.2
v 0.8 2.4 0.1
v 0.8 2.4 -0.1
v 0.8 2.4 -0.2
v 0.8 2.5 0.2
v 0.8 2.5 0.1
v 0.8 2.5 -0.1
v 0.8 2.5 -0.2
v 0.9 0.6 0.2
v 0.9 0.6 0.1
v 0.9 0.6 -0.1
v 0.9 0.6 -0.2
v 0.9 0.7 0.2
v 0.9 0.7 0.1
v 0.9 0.7 -0.1
v 0.9 0.7 -0.2
v 0.9 2.3 0.2
v 0.9 2.3 0.1
v 0.9 2.3 -0.1
v 0.9 2.3 -0.2
v 0.9 2.4 0.2
v 0.9 2.4 0.1
v 0.9 2.4 -0.1
v 0.9 2.4 -0.2
v 1 0.7 0.2
v 1 0.7 0.1
v 1 0.7 -0.1
v 1 0.7 -0.2
v 1 0.9 0.2
v 1 0.9 0.1
v 1 0.9 -0.1
v 1 0.9 -0.2
v 1 2.1 0.2
v 1 2.1 0.1
v 1 2.1 -0.1
v 1 2.1 -0.2
v 1 2.3 0.2
v 1 2.3 0.1
v 1 2.3 -0.1
v 1 2.3 -0.2
v 1.1 0.9 0.2
v 1.1 0.9 0.1
v 1.1 0.9 -0.1
v 1.1 0.9 -0.2
v 1.1 1.1 0.2
v 1.1 1.1 0.1
v 1.1 1.1 -0.1
v 1.1 1.1 -0.2
v 1.1 1.9 0.2
v 1.1 1.9 0.1
v 1.1 1.9 -0.1
v 1.1 1.9 -0.2
v 1.1 2.1 0.2
v 1.1 2.1 0.1
v 1.1 2.1 -0.1
v 1.1 2.1 -0.2
v 1.2 1.1 0.2
v 1.2 1.1 0.1
v 1.2 1.1 -0.1
v 1.2 1.1 -0.2
v 1.2 1.9 0.2
v 1.2 1.9 0.1
v 1.2 1.9 -0.1
v 1.2 1.9 -0.2
v -1.2 1.1 0.2
v -1.2 1.1 0.1
v -1.2 1.1 -0.1
v -1.2 1.1 -0.2
v -1.2 1.9 0.2
v -1.2 1.9 0.1
v -1.2 1.9 -0.1
v -1.2 1.9 -0.2
v -1.1 0.9 0.2
v -1.1 0.9 0.1
v -1.1 0.9 -0.1
v -1.1 0.9 -0.2
v -1.1 1.1 0.2
v -1.1 1.1 0.1
v -1.1 1.1 -0.1
v -1.1 1.1 -0.2
v -1.1 1.9 0.2
v -1.1 1.9 0.1
v -1.1 1.9 -0.1
v -1.1 1.9 -0.2
v -1.1 2.1 0.2
v -1.1 2.1 0.1
v -1.1 2.1 -0.1
v -1.1 2.1 -0.2
v -1 0.7 0.2
v -1 0.7 0.1
v -1 0.7 -0.1
v -1 0.7 -0.2
v -1 0.9 0.2
v -1 0.9 0.1
v -1 0.9 -0.1
v -1 0.9 -0.2
v -1 2.1 0.2
v -1 2.1 0.1
v -1 2.1 -0.1
v -1 2.1 -0.2
v -1 2.3 0.2
v -1 2.3 0.1
v -1 2.3 -0.1
v -1 2.3 -0.2
v -0.9 0.6 0.2
v -0.9 0.6 0.1
v -0.9 0.6 -0.1
v -0.9 0.6 -0.2
v -0.9 0.7 0.2
v -0.9 0.7 0.1
v -0.9 0.7 -0.1
v -0.9 0.7 -0.2
v -0.9 2.3 0.2
v -0.9 2.3 0.1
v -0.9 2.3 -0.1
v -0.9 2.3 -0.2
v -0.9 2.4 0.2
v -0.9 2.4 0.1
v -0.9 2.4 -0.1
v -0.9 2.4 -0.2
v -0.8 0.5 0.2
v -0.8 0.5 0.1
v -0.8 0.5 -0.1
v -0.8 0.5 -0.2
v -0.8 0.6 0.2
v -0.8 0.6 0.1
v -0.8 0.6 -0.1
v -0.8 0.6 -0.2
v -0.8 2.4 0.2
v -0.8 2.4 0.1
v -0.8 2.4 -0.1
v -0.8 2.4 -0.2
v -0.8 2.5 0.2
v -0.8 2.5 0.1
v -0.8 2.5 -0.1
v -0.8 2.5 -0.2
v -0.7 1.5 0.2
v -0.7 1.5 0.1
v -0.7 1.5 -0.1
v -0.7 1.5 -0.2
v -0.7 1.8 0.2
v -0.7 1.8 0.1
v -0.7 1.8 -0.1
v -0.7 1.8 -0.2
v -0.6 0.4 0.2
v -0.6 0.4 0.1
v -0.6 0.4 -0.1
v -0.6 0.4 -0.2
v -0.6 0.5 0.2
v -0.6 0.5 0.1
v -0.6 0.5 -0.1
v -0.6 0.5 -0.2
v -0.6 1.8 0.2
v -0.6 1.8 0.1
v -0.6 1.8 -0.1
v -0.6 1.8 -0.2
v -0.6 1.9 0.2
v -0.6 1.9 0.1
v -0.6 1.9 -0.1
v -0.6 1.9 -0.2
v -0.6 2.5 0.2
v -0.6 2.5 0.1
v -0.6 2.5 -0.1
v -0.6 2.5 -0.2
v -0.6 2.6 0.2
v -0.6 2.6 0.1
v -0.6 2.6 -0.1
v -0.6 2.6 -0.2
v -0.4 0.3 0.2
v -0.4 0.3 0.1
v -0.4 0.3 -0.1
v -0.4 0.3 -0.2
v -0.4 0.4 0.2
v -0.4 0.4 0.1
v -0.4 0.4 -0.1
v -0.4 0.4 -0.2
v -0.4 0.9 0.2
v -0.4 0.9 0.1
v -0.4 0.9 -0.1
v -0.4 0.9 -0.2
v -0.4 1.2 0.2
v -0.4 1.2 0.1
v -0.4 1.2 -0.1
v -0.4 1.2 -0.2
v -0.4 2 0.2
v -0.4 2 0.1
v -0.4 2 -0.1
v -0.4 2 -0.2
v -0.4 2.2 0.2
v -0.4 2.2 0.1
v -0.4 2.2 -0.1
v -0.4 2.2 -0.2
v -0.4 2.6 0.2
v -0.4 2.6 0.1
v -0.4 2.6 -0.1
v -0.4 2.6 -0.2
v -0.4 2.7 0.2
v -0.4 2.7 0.1
v -0.4 2.7 -0.1
v -0.4 2.7 -0.2
v -0.3 0.8 0.2
v -0.3 0.8 0.1
v -0.3 0.8 -0.1
v -0.3 0.8 -0.2
v -0.3 0.9 0.2
v -0.3 0.9 0.1
v -0.3 0.9 -0.1
v -0.3 0.9 -0.2
v -0.3 1.7 0.2
v -0.3 1.7 0.1
v -0.3 1.7 -0.1
v -0.3 1.7 -0.2
v -0.3 2 0.2
v -0.3 2 0.1
v -0.3 2 -0.1
v -0.3 2 -0.2
v -0.2 1.5 0.2
v -0.2 1.5 0.1
v -0.2 1.5 -0.1
v -0.2 1.5 -0.2
v -0.2 1.7 0.2
v -0.2 1.7 0.1
v -0.2 1.7 -0.1
v -0.2 1.7 -0.2
v 0 0.7 0.2
v 0 0.7 0.1
v 0 0.7 -0.1
v 0 0.7 -0.2
v 0 0.8 0.2
v 0 0.8 0.1
v 0 0.8 -0.1
v 0 0.8 -0.2
v 0.2 0.5 0.2
v 0.2 0.5 0.1
v 0.2 0.5 -0.1
v 0.2 0.5 -0.2
v 0.2 0.6 0.2
v 0.2 0.6 0.1
v 0.2 0.6 -0.1
v 0.2 0.6 -0.2
v 0.4 0 0.2
v 0.4 0 -0.2
v 0.4 0.1 0.2
v 0.4 0.1 -0.2
v 0.4 1.5 0.2
v 0.4 1.5 0.1
v 0.4 1.5 -0.1
v 0.4 1.5 -0.2
v 0.4 1.9 0.2
v 0.4 1.9 0.1
v 0.4 1.9 -0.1
v 0.4 1.9 -0.2
v 0.4 2.9 0.2
v 0.4 2.9 -0.2
v 0.4 3 0.2
v 0.4 3 -0.2
v 0.5 0.6 0.2
v 0.5 0.6 0.1
v 0.5 0.6 -0.1
v 0.5 0.6 -0.2
v 0.5 0.7 0.2
v 0.5 0.7 0.1
v 0.5 0.7 -0.1
v 0.5 0.7 -0.2
v 0.6 0.7 0.2
v 0.6 0.7 0.1
v 0.6 0.7 -0.1
v 0.6 0.7 -0.2
v 0.6 0.8 0.2
v 0.6 0.8 0.1
v 0.6 0.8 -0.1
v 0.6 0.8 -0.2
v 0.6 2.1 0.2
v 0.6 2.1 0.1
v 0.6 2.1 -0.1
v 0.6 2.1 -0.2
v 0.6 2.2 0.2
v 0.6 2.2 0.1
v 0.6 2.2 -0.1
v 0.6 2.2 -0.2
v 0.7 0.1 0.2
v 0.7 0.1 -0.2
v 0.7 0.2 0.2
v 0.7 0.2 -0.2
v 0.7 0.8 0.2
v 0.7 0.8 0.1
v 0.7 0.8 -0.1
v 0.7 0.8 -0.2
v 0.7 1.4 0.2
v 0.7 1.4 0.1
v 0.7 1.4 -0.1
v 0.7 1.4 -0.2
v 0.7 2 0.2
v 0.7 2 0.1
v 0.7 2 -0.1
v 0.7 2 -0.2
v 0.7 2.1 0.2
v 0.7 2.1 0.1
v 0.7 2.1 -0.1
v 0.7 2.1 -0.2
v 0.7 2.8 0.2
v 0.7 2.8 -0.2
v 0.7 2.9 0.2
v 0.7 2.9 -0.2
v 0.8 1.8 0.2
v 0.8 1.8 0.1
v 0.8 1.8 -0.1
v 0.8 1.8 -0.2
v 0.8 2 0.2
v 0.8 2 0.1
v 0.8 2 -0.1
v 0.8 2 -0.2
v 0.9 0.2 0.2
v 0.9 0.2 -0.2
v 0.9 0.3 0.2
v 0.9 0.3 -0.2
v 0.9 1.7 0.2
v 0.9 1.7 0.1
v 0.9 1.7 -0.1
v 0.9 1.7 -0.2
v 0.9 1.8 0.2
v 0.9 1.8 0.1
v 0.9 1.8 -0.1
v 0.9 1.8 -0.2
v 0.9 2.7 0.2
v 0.9 2.7 -0.2
v 0.9 2.8 0.2
v 0.9 2.8 -0.2
v 1 0.3 0.2
v 1 0.3 -0.2
v 1 0.4 0.2
v 1 0.4 -0.2
v 1 1.5 0.2
v 1 1.5 0.1
v 1 1.5 -0.1
v 1 1.5 -0.2
v 1 1.7 0.2
v 1 1.7 0.1
v 1 1.7 -0.1
v 1 1.7 -0.2
v 1 2.6 0.2
v 1 2.6 -0.2
v 1 2.7 0.2
v 1 2.7 -0.2
v 1.1 0.4 0.2
v 1.1 0.4 -0.2
v 1.1 0.5 0.2
v 1.1 0.5 -0.2
v 1.1 2.5 0.2
v 1.1 2.5 -0.2
v 1.1 2.6 0.2
v 1.1 2.6 -0.2
v 1.2 0.5 0.2
v 1.2 0.5 -0.2
v 1.2 0.6 0.2
v 1.2 0.6 -0.2
v 1.2 2.4 0.2
v 1.2 2.4 -0.2
v 1.2 2.5 0.2
v 1.2 2.5 -0.2
v 1.3 0.6 0.2
v 1.3 0.6 -0.2
v 1.3 0.8 0.2
v 1.3 0.8 -0.2
v 1.3 2.2 0.2
v 1.3 2.2 -0.2
v 1.3 2.4 0.2
v 1.3 2.4 -0.2
v 1.4 0.8 0.2
v 1.4 0.8 -0.2
v 1.4 1.1 0.2
v 1.4 1.1 -0.2
v 1.4 1.9 0.2
v 1.4 1.9 -0.2
v 1.4 2.2 0.2
v 1.4 2.2 -0.2
v 1.5 1.1 0.2
v 1.5 1.1 -0.2
v 1.5 1.9 0.2
v 1.5 1.9 -0.2
v -1.5 1.1 0.2
v -1.5 1.9 0.2
v -1.4 0.8 0.2
v -1.4 1.1 0.2
v -1.4 1.9 0.2
v -1.4 2.2 0.2
v -1.3 0.6 0.2
v -1.3 0.8 0.2
v -1.3 2.2 0.2
v -1.3 2.4 0.2
v -1.2 0.5 0.2
v -1.2 0.6 0.2
v -1.2 1.1 0.2
v -1.2 1.9 0.2
v -1.2 2.4 0.2
v -1.2 2.5 0.2
v -1.1 0.4 0.2
v -1.1 0.5 0.2
v -1.1 0.9 0.2
v -1.1 1.1 0.2
v -1.1 1.9 0.2
v -1.1 2.1 0.2
v -1.1 2.5 0.2
v -1.1 2.6 0.2
v -1 0.3 0.2
v -1 0.4 0.2
v -1 0.7 0.2
v -1 0.9 0.2
v -1 2.1 0.2
v -1 2.3 0.2
v -1 2.6 0.2
v -1 2.7 0.2
v -0.9 0.2 0.2
v -0.9 0.3 0.2
v -0.9 0.6 0.2
v -0.9 0.7 0.2
v -0.9 1.5 0.2
v -0.9 1.8 0.2
v -0.9 2.3 0.2
v -0.9 2.4 0.2
v -0.9 2.7 0.2
v -0.9 2.8 0.2
v -0.8 0.5 0.2
v -0.8 0.6 0.2
v -0.8 1.8 0.2
v -0.8 2.1 0.2
v -0.8 2.4 0.2
v -0.8 2.5 0.2
v -0.7 0.1 0.2
v -0.7 0.2 0.2
v -0.7 1.5 0.2
v -0.7 1.8 0.2
v -0.7 2.8 0.2
v -0.7 2.9 0.2
v -0.6 0.4 0.2
v -0.6 0.5 0.2
v -0.6 0.8 0.2
v -0.6 1.4 0.2
v -0.6 1.8 0.2
v -0.6 1.9 0.2
v -0.6 2.1 0.2
v -0.6 2.2 0.2
v -0.6 2.5 0.2
v -0.6 2.6 0.2
v -0.5 0.7 0.2
v -0.5 0.8 0.2
v -0.5 1.6 0.2
v -0.5 1.9 0.2
v -0.4 0 0.2
v -0.4 0.1 0.2
v -0.4 0.3 0.2
v -0.4 0.4 0.2
v -0.4 0.6 0.2
v -0.4 0.7 0.2
v -0.4 0.9 0.2
v -0.4 1.2 0.2
v -0.4 1.5 0.2
v -0.4 1.6 0.2
v -0.4 2 0.2
v -0.4 2.2 0.2
v -0.4 2.6 0.2
v -0.4 2.7 0.2
v -0.4 2.9 0.2
v -0.4 3 0.2
v -0.3 0.8 0.2
v -0.3 0.9 0.2
v -0.3 1.7 0.2
v -0.3 2 0.2
v -0.2 1.5 0.2
v -0.2 1.7 0.2
v -0.1 0.5 0.2
v -0.1 0.6 0.2
v 0 0.7 0.2
v 0 0.8 0.2
v 0.2 0.5 0.2
v 0.2 0.6 0.2
v 0.2 0.7 0.2
v 0.2 0.8 0.2
v 0.2 1.5 0.2
v 0.2 1.9 0.2
v 0.3 1.9 0.2
v 0.3 2.2 0.2
v 0.4 0 0.2
v 0.4 0.1 0.2
v 0.4 0.3 0.2
v 0.4 0.4 0.2
v 0.4 0.8 0.2
v 0.4 0.9 0.2
v 0.4 1.5 0.2
v 0.4 1.9 0.2
v 0.4 2.6 0.2
v 0.4 2.7 0.2
v 0.4 2.9 0.2
v 0.4 3 0.2
v 0.5 0.6 0.2
v 0.5 0.7 0.2
v 0.5 0.9 0.2
v 0.5 1.2 0.2
v 0.6 0.4 0.2
v 0.6 0.5 0.2
v 0.6 0.7 0.2
v 0.6 0.8 0.2
v 0.6 1.8 0.2
v 0.6 1.9 0.2
v 0.6 2.1 0.2
v 0.6 2.2 0.2
v 0.6 2.5 0.2
v 0.6 2.6 0.2
v 0.7 0.1 0.2
v 0.7 0.2 0.2
v 0.7 0.8 0.2
v 0.7 1.4 0.2
v 0.7 1.6 0.2
v 0.7 1.8 0.2
v 0.7 2 0.2
v 0.7 2.1 0.2
v 0.7 2.8 0.2
v 0.7 2.9 0.2
v 0.8 0.5 0.2
v 0.8 0.6 0.2
v 0.8 1.5 0.2
v 0.8 1.6 0.2
v 0.8 1.8 0.2
v 0.8 2 0.2
v 0.8 2.4 0.2
v 0.8 2.5 0.2
v 0.9 0.2 0.2
v 0.9 0.3 0.2
v 0.9 0.6 0.2
v 0.9 0.7 0.2
v 0.9 1.7 0.2
v 0.9 1.8 0.2
v 0.9 2.3 0.2
v 0.9 2.4 0.2
v 0.9 2.7 0.2
v 0.9 2.8 0.2
v 1 0.3 0.2
v 1 0.4 0.2
v 1 0.7 0.2
v 1 0.9 0.2
v 1 1.5 0.2
v 1 1.7 0.2
v 1 2.1 0.2
v 1 2.3 0.2
v 1 2.6 0.2
v 1 2.7 0.2
v 1.1 0.4 0.2
v 1.1 0.5 0.2
v 1.1 0.9 0.2
v 1.1 1.1 0.2
v 1.1 1.9 0.2
v 1.1 2.1 0.2
v 1.1 2.5 0.2
v 1.1 2.6 0.2
v 1.2 0.5 0.2
v 1.2 0.6 0.2
v 1.2 1.1 0.2
v 1.2 1.9 0.2
v 1.2 2.4 0.2
v 1.2 2.5 0.2
v 1.3 0.6 0.2
v 1.3 0.8 0.2
v 1.3 2.2 0.2
v 1.3 2.4 0.2
v 1.4 0.8 0.2
v 1.4 1.1 0.2
v 1.4 1.9 0.2
v 1.4 2.2 0.2
v 1.5 1.1 0.2
v 1.5 1.9 0.2
v -1.2 1.1 0.1
v -1.2 1.9 0.1
v -1.1 0.9 0.1
v -1.1 1.1 0.1
v -1.1 1.9 0.1
v -1.1 2.1 0.1
v -1 0.7 0.1
v -1 0.9 0.1
v -1 2.1 0.1
v -1 2.3 0.1
v -0.9 0.6 0.1
v -0.9 0.7 0.1
v -0.9 1.5 0.1
v -0.9 1.8 0.1
v -0.9 2.3 0.1
v -0.9 2.4 0.1
v -0.8 0.5 0.1
v -0.8 0.6 0.1
v -0.8 1.8 0.1
v -0.8 2.1 0.1
v -0.8 2.4 0.1
v -0.8 2.5 0.1
v -0.7 1.5 0.1
v -0.7 1.8 0.1
v -0.6 0.4 0.1
v -0.6 0.5 0.1
v -0.6 0.8 0.1
v -0.6 1.4 0.1
v -0.6 1.8 0.1
v -0.6 1.9 0.1
v -0.6 2.1 0.1
v -0.6 2.2 0.1
v -0.6 2.5 0.1
v -0.6 2.6 0.1
v -0.5 0.7 0.1
v -0.5 0.8 0.1
v -0.5 1.6 0.1
v -0.5 1.9 0.1
v -0.4 0.3 0.1
v -0.4 0.4 0.1
v -0.4 0.6 0.1
v -0.4 0.7 0.1
v -0.4 0.9 0.1
v -0.4 1.2 0.1
v -0.4 1.5 0.1
v -0.4 1.6 0.1
v -0.4 2 0.1
v -0.4 2.2 0.1
v -0.4 2.6 0.1
v -0.4 2.7 0.1
v -0.3 0.8 0.1
v -0.3 0.9 0.1
v -0.3 1.7 0.1
v -0.3 2 0.1
v -0.2 1.5 0.1
v -0.2 1.7 0.1
v -0.1 0.5 0.1
v -0.1 0.6 0.1
v 0 0.7 0.1
v 0 0.8 0.1
v 0.2 0.5 0.1
v 0.2 0.6 0.1
v 0.2 0.7 0.1
v 0.2 0.8 0.1
v 0.2 1.5 0.1
v 0.2 1.9 0.1
v 0.3 1.9 0.1
v 0.3 2.2 0.1
v 0.4 0.3 0.1
v 0.4 0.4 0.1
v 0.4 0.8 0.1
v 0.4 0.9 0.1
v 0.4 1.5 0.1
v 0.4 1.9 0.1
v 0.4 2.6 0.1
v 0.4 2.7 0.1
v 0.5 0.6 0.1
v 0.5 0.7 0.1
v 0.5 0.9 0.1
v 0.5 1.2 0.1
v 0.6 0.4 0.1
v 0.6 0.5 0.1
v 0.6 0.7 0.1
v 0.6 0.8 0.1
v 0.6 1.8 0.1
v 0.6 1.9 0.1
v 0.6 2.1 0.1
v 0.6 2.2 0.1
v 0.6 2.5 0.1
v 0.6 2.6 0.1
v 0.7 0.8 0.1
v 0.7 1.4 0.1
v 0.7 1.6 0.1
v 0.7 1.8 0.1
v 0.7 2 0.1
v 0.7 2.1 0.1
v 0.8 0.5 0.1
v 0.8 0.6 0.1
v 0.8 1.5 0.1
v 0.8 1.6 0.1
v 0.8 1.8 0.1
v 0.8 2 0.1
v 0.8 2.4 0.1
v 0.8 2.5 0.1
v 0.9 0.6 0.1
v 0.9 0.7 0.1
v 0.9 1.7 0.1
v 0.9 1.8 0.1
v 0.9 2.3 0.1
v 0.9 2.4 0.1
v 1 0.7 0.1
v 1 0.9 0.1
v 1 1.5 0.1
v 1 1.7 0.1
v 1 2.1 0.1
v 1 2.3 0.1
v 1.1 0.9 0.1
v 1.1 1.1 0.1
v 1.1 1.9 0.1
v 1.1 2.1 0.1
v 1.2 1.1 0.1
v 1.2 1.9 0.1
v -1.2 1.1 -0.1
v -1.2 1.9 -0.1
v -1.1 0.9 -0.1
v -1.1 1.1 -0.1
v -1.1 1.9 -0.1
v -1.1 2.1 -0.1
v -1 0.7 -0.1
v -1 0.9 -0.1
v -1 2.1 -0.1
v -1 2.3 -0.1
v -0.9 0.6 -0.1
v -0.9 0.7 -0.1
v -0.9 1.5 -0.1
v -0.9 1.8 -0.1
v -0.9 2.3 -0.1
v -0.9 2.4 -0.1
v -0.8 0.5 -0.1
v -0.8 0.6 -0.1
v -0.8 1.8 -0.1
v -0.8 2.1 -0.1
v -0.8 2.4 -0.1
v -0.8 2.5 -0.1
v -0.7 1.5 -0.1
v -0.7 1.8 -0.1
v -0.6 0.4 -0.1
v -0.6 0.5 -0.1
v -0.6 0.8 -0.1
v -0.6 1.4 -0.1
v -0.6 1.8 -0.1
v -0.6 1.9 -0.1
v -0.6 2.1 -0.1
v -0.6 2.2 -0.1
v -0.6 2.5 -0.1
v -0.6 2.6 -0.1
v -0.5 0.7 -0.1
v -0.5 0.8 -0.1
v -0.5 1.6 -0.1
v -0.5 1.9 -0.1
v -0.4 0.3 -0.1
v -0.4 0.4 -0.1
v -0.4 0.6 -0.1
v -0.4 0.7 -0.1
v -0.4 0.9 -0.1
v -0.4 1.2 -0.1
v -0.4 1.5 -0.1
v -0.4 1.6 -0.1
v -0.4 2 -0.1
v -0.4 2.2 -0.1
v -0.4 2.6 -0.1
v -0.4 2.7 -0.1
v -0.3 0.8 -0.1
v -0.3 0.9 -0.1
v -0.3 1.7 -0.1
v -0.3 2 -0.1
v -0.2 1.5 -0.1
v -0.2 1.7 -0.1
v -0.1 0.5 -0.1
v -0.1 0.6 -0.1
v 0 0.7 -0.1
v 0 0.8 -0.1
v 0.2 0.5 -0.1
v 0.2 0.6 -0.1
v 0.2 0.7 -0.1
v 0.2 0.8 -0.1
v 0.2 1.5 -0.1
v 0.2 1.9 -0.1
v 0.3 1.9 -0.1
v 0.3 2.2 -0.1
v 0.4 0.3 -0.1
v 0.4 0.4 -0.1
v 0.4 0.8 -0.1
v 0.4 0.9 -0.1
v 0.4 1.5 -0.1
v 0.4 1.9 -0.1
v 0.4 2.6 -0.1
v 0.4 2.7 -0.1
v 0.5 0.6 -0.1
v 0.5 0.7 -0.1
v 0.5 0.9 -0.1
v 0.5 1.2 -0.1
v 0.6 0.4 -0.1
v 0.6 0.5 -0.1
v 0.6 0.7 -0.1
v 0.6 0.8 -0.1
v 0.6 1.8 -0.1
v 0.6 1.9 -0.1
v 0.6 2.1 -0.1
v 0.6 2.2 -0.1
v 0.6 2.5 -0.1
v 0.6 2.6 -0.1
v 0.7 0.8 -0.1
v 0.7 1.4 -0.1
v 0.7 1.6 -0.1
v 0.7 1.8 -0.1
v 0.7 2 -0.1
v 0.7 2.1 -0.1
v 0.8 0.5 -0.1
v 0.8 0.6 -0.1
v 0.8 1.5 -0.1
v 0.8 1.6 -0.1
v 0.8 1.8 -0.1
v 0.8 2 -0.1
v 0.8 2.4 -0.1
v 0.8 2.5 -0.1
v 0.9 0.6 -0.1
v 0.9 0.7 -0.1
v 0.9 1.7 -0.1
v 0.9 1.8 -0.1
v 0.9 2.3 -0.1
v 0.9 2.4 -0.1
v 1 0.7 -0.1
v 1 0.9 -0.1
v 1 1.5 -0.1
v 1 1.7 -0.1
v 1 2.1 -0.1
v 1 2.3 -0.1
v 1.1 0.9 -0.1
v 1.1 1.1 -0.1
v 1.1 1.9 -0.1
v 1.1 2.1 -0.1
v 1.2 1.1 -0.1
v 1.2 1.9 -0.1
v -1.5 1.1 -0.2
v -1.5 1.9 -0.2
v -1.4 0.8 -0.2
v -1.4 1.1 -0.2
v -1.4 1.9 -0.2
v -1.4 2.2 -0.2
v -1.3 0.6 -0.2
v -1.3 0.8 -0.2
v -1.3 2.2 -0.2
v -1.3 2.4 -0.2
v -1.2 0.5 -0.2
v -1.2 0.6 -0.2
v -1.2 1.1 -0.2
v -1.2 1.9 -0.2
v -1.2 2.4 -0.2
v -1.2 2.5 -0.2
v -1.1 0.4 -0.2
v -1.1 0.5 -0.2
v -1.1 0.9 -0.2
v -1.1 1.1 -0.2
v -1.1 1.9 -0.2
v -1.1 2.1 -0.2
v -1.1 2.5 -0.2
v -1.1 2.6 -0.2
v -1 0.3 -0.2
v -1 0.4 -0.2
v -1 0.7 -0.2
v -1 0.9 -0.2
v -1 2.1 -0.2
v -1 2.3 -0.2
v -1 2.6 -0.2
v -1 2.7 -0.2
v -0.9 0.2 -0.2
v -0.9 0.3 -0.2
v -0.9 0.6 -0.2
v -0.9 0.7 -0.2
v -0.9 1.5 -0.2
v -0.9 1.8 -0.2
v -0.9 2.3 -0.2
v -0.9 2.4 -0.2
v -0.9 2.7 -0.2
v -0.9 2.8 -0.2
v -0.8 0.5 -0.2
v -0.8 0.6 -0.2
v -0.8 1.8 -0.2
v -0.8 2.1 -0.2
v -0.8 2.4 -0.2
v -0.8 2.5 -0.2
v -0.7 0.1 -0.2
v -0.7 0.2 -0.2
v -0.7 1.5 -0.2
v -0.7 1.8 -0.2
v -0.7 2.8 -0.2
v -0.7 2.9 -0.2
v -0.6 0.4 -0.2
v -0.6 0.5 -0.2
v -0.6 0.8 -0.2
v -0.6 1.4 -0.2
v -0.6 1.8 -0.2
v -0.6 1.9 -0.2
v -0.6 2.1 -0.2
v -0.6 2.2 -0.2
v -0.6 2.5 -0.2
v -0.6 2.6 -0.2
v -0.5 0.7 -0.2
v -0.5 0.8 -0.2
v -0.5 1.6 -0.2
v -0.5 1.9 -0.2
v -0.4 0 -0.2
v -0.4 0.1 -0.2
v -0.4 0.3 -0.2
v -0.4 0.4 -0.2
v -0.4 0.6 -0.2
v -0.4 0.7 -0.2
v -0.4 0.9 -0.2
v -0.4 1.2 -0.2
v -0.4 1.5 -0.2
v -0.4 1.6 -0.2
v -0.4 2 -0.2
v -0.4 2.2 -0.2
v -0.4 2.6 -0.2
v -0.4 2.7 -0.2
v -0.4 2.9 -0.2
v -0.4 3 -0.2
v -0.3 0.8 -0.2
v -0.3 0.9 -0.2
v -0.3 1.7 -0.2
v -0.3 2 -0.2
v -0.2 1.5 -0.2
v -0.2 1.7 -0.2
v -0.1 0.5 -0.2
v -0.1 0.6 -0.2
v 0 0.7 -0.2
v 0 0.8 -0.2
v 0.2 0.5 -0.2
v 0.2 0.6 -0.2
v 0.2 0.7 -0.2
v 0.2 0.8 -0.2
v 0.2 1.5 -0.2
v 0.2 1.9 -0.2
v 0.3 1.9 -0.2
v 0.3 2.2 -0.2
v 0.4 0 -0.2
v 0.4 0.1 -0.2
v 0.4 0.3 -0.2
v 0.4 0.4 -0.2
v 0.4 0.8 -0.2
v 0.4 0.9 -0.2
v 0.4 1.5 -0.2
v 0.4 1.9 -0.2
v 0.4 2.6 -0.2
v 0.4 2.7 -0.2
v 0.4 2.9 -0.2
v 0.4 3 -0.2
v 0.5 0.6 -0.2
v 0.5 0.7 -0.2
v 0.5 0.9 -0.2
v 0.5 1.2 -0.2
v 0.6 0.4 -0.2
v 0.6 0.5 -0.2
v 0.6 0.7 -0.2
v 0.6 0.8 -0.2
v 0.6 1.8 -0.2
v 0.6 1.9 -0.2
v 0.6 2.1 -0.2
v 0.6 2.2 -0.2
v 0.6 2.5 -0.2
v 0.6 2.6 -0.2
v 0.7 0.1 -0.2
v 0.7 0.2 -0.2
v 0.7 0.8 -0.2
v 0.7 1.4 -0.2
v 0.7 1.6 -0.2
v 0.7 1.8 -0.2
v 0.7 2 -0.2
v 0.7 2.1 -0.2
v 0.7 2.8 -0.2
v 0.7 2.9 -0.2
v 0.8 0.5 -0.2
v 0.8 0.6 -0.2
v 0.8 1.5 -0.2
v 0.8 1.6 -0.2
v 0.8 1.8 -0.2
v 0.8 2 -0.2
v 0.8 2.4 -0.2
v 0.8 2.5 -0.2
v 0.9 0.2 -0.2
v 0.9 0.3 -0.2
v 0.9 0.6 -0.2
v 0.9 0.7 -0.2
v 0.9 1.7 -0.2
v 0.9 1.8 -0.2
v 0.9 2.3 -0.2
v 0.9 2.4 -0.2
v 0.9 2.7 -0.2
v 0.9 2.8 -0.2
v 1 0.3 -0.2
v 1 0.4 -0.2
v 1 0.7 -0.2
v 1 0.9 -0.2
v 1 1.5 -0.2
v 1 1.7 -0.2
v 1 2.1 -0.2
v 1 2.3 -0.2
v 1 2.6 -0.2
v 1 2.7 -0.2
v 1.1 0.4 -0.2
v 1.1 0.5 -0.2
v 1.1 0.9 -0.2
v 1.1 1.1 -0.2
v 1.1 1.9 -0.2
v 1.1 2.1 -0.2
v 1.1 2.5 -0.2
v 1.1 2.6 -0.2
v 1.2 0.5 -0.2
v 1.2 0.6 -0.2
v 1.2 1.1 -0.2
v 1.2 1.9 -0.2
v 1.2 2.4 -0.2
v 1.2 2.5 -0.2
v 1.3 0.6 -0.2
v 1.3 0.8 -0.2
v 1.3 2.2 -0.2
v 1.3 2.4 -0.2
v 1.4 0.8 -0.2
v 1.4 1.1 -0.2
v 1.4 1.9 -0.2
v 1.4 2.2 -0.2
v 1.5 1.1 -0.2
v 1.5 1.9 -0.2
v -0.4 0 0.2
v 0.4 0 0.2
v -0.4 0 -0.2
v 0.4 0 -0.2
v -0.7 0.1 0.2
v -0.4 0.1 0.2
v 0.4 0.1 0.2
v 0.7 0.1 0.2
v -0.7 0.1 -0.2
v -0.4 0.1 -0.2
v 0.4 0.1 -0.2
v 0.7 0.1 -0.2
v -0.9 0.2 0.2
v -0.7 0.2 0.2
v 0.7 0.2 0.2
v 0.9 0.2 0.2
v -0.9 0.2 -0.2
v -0.7 0.2 -0.2
v 0.7 0.2 -0.2
v 0.9 0.2 -0.2
v -1 0.3 0.2
v -0.9 0.3 0.2
v 0.9 0.3 0.2
v 1 0.3 0.2
v -1 0.3 -0.2
v -0.9 0.3 -0.2
v 0.9 0.3 -0.2
v 1 0.3 -0.2
v -1.1 0.4 0.2
v -1 0.4 0.2
v 1 0.4 0.2
v 1.1 0.4 0.2
v -1.1 0.4 -0.2
v -1 0.4 -0.2
v 1 0.4 -0.2
v 1.1 0.4 -0.2
v -1.2 0.5 0.2
v -1.1 0.5 0.2
v -0.1 0.5 0.2
v 0.2 0.5 0.2
v 1.1 0.5 0.2
v 1.2 0.5 0.2
v -0.1 0.5 0.1
v 0.2 0.5 0.1
v -0.1 0.5 -0.1
v 0.2 0.5 -0.1
v -1.2 0.5 -0.2
v -1.1 0.5 -0.2
v -0.1 0.5 -0.2
v 0.2 0.5 -0.2
v 1.1 0.5 -0.2
v 1.2 0.5 -0.2
v -1.3 0.6 0.2
v -1.2 0.6 0.2
v -0.4 0.6 0.2
v -0.1 0.6 0.2
v 0.2 0.6 0.2
v 0.5 0.6 0.2
v 1.2 0.6 0.2
v 1.3 0.6 0.2
v -0.4 0.6 0.1
v -0.1 0.6 0.1
v 0.2 0.6 0.1
v 0.5 0.6 0.1
v -0.4 0.6 -0.1
v -0.1 0.6 -0.1
v 0.2 0.6 -0.1
v 0.5 0.6 -0.1
v -1.3 0.6 -0.2
v -1.2 0.6 -0.2
v -0.4 0.6 -0.2
v -0.1 0.6 -0.2
v 0.2 0.6 -0.2
v 0.5 0.6 -0.2
v 1.2 0.6 -0.2
v 1.3 0.6 -0.2
v -0.5 0.7 0.2
v -0.4 0.7 0.2
v 0.5 0.7 0.2
v 0.6 0.7 0.2
v -0.5 0.7 0.1
v -0.4 0.7 0.1
v 0.5 0.7 0.1
v 0.6 0.7 0.1
v -0.5 0.7 -0.1
v -0.4 0.7 -0.1
v 0.5 0.7 -0.1
v 0.6 0.7 -0.1
v -0.5 0.7 -0.2
v -0.4 0.7 -0.2
v 0.5 0.7 -0.2
v 0.6 0.7 -0.2
v -1.4 0.8 0.2
v -1.3 0.8 0.2
v -0.6 0.8 0.2
v -0.5 0.8 0.2
v 0.6 0.8 0.2
v 0.7 0.8 0.2
v 1.3 0.8 0.2
v 1.4 0.8 0.2
v -0.6 0.8 0.1
v -0.5 0.8 0.1
v 0.6 0.8 0.1
v 0.7 0.8 0.1
v -0.6 0.8 -0.1
v -0.5 0.8 -0.1
v 0.6 0.8 -0.1
v 0.7 0.8 -0.1
v -1.4 0.8 -0.2
v -1.3 0.8 -0.2
v -0.6 0.8 -0.2
v -0.5 0.8 -0.2
v 0.6 0.8 -0.2
v 0.7 0.8 -0.2
v 1.3 0.8 -0.2
v 1.4 0.8 -0.2
v -1.5 1.1 0.2
v -1.4 1.1 0.2
v 1.4 1.1 0.2
v 1.5 1.1 0.2
v -1.5 1.1 -0.2
v -1.4 1.1 -0.2
v 1.4 1.1 -0.2
v 1.5 1.1 -0.2
v -0.4 1.2 0.2
v 0.5 1.2 0.2
v -0.4 1.2 0.1
v 0.5 1.2 0.1
v -0.4 1.2 -0.1
v 0.5 1.2 -0.1
v -0.4 1.2 -0.2
v 0.5 1.2 -0.2
v -0.9 1.5 0.2
v -0.7 1.5 0.2
v -0.4 1.5 0.2
v -0.2 1.5 0.2
v 0.2 1.5 0.2
v 0.4 1.5 0.2
v 0.8 1.5 0.2
v 1 1.5 0.2
v -0.9 1.5 0.1
v -0.7 1.5 0.1
v -0.4 1.5 0.1
v -0.2 1.5 0.1
v 0.2 1.5 0.1
v 0.4 1.5 0.1
v 0.8 1.5 0.1
v 1 1.5 0.1
v -0.9 1.5 -0.1
v -0.7 1.5 -0.1
v -0.4 1.5 -0.1
v -0.2 1.5 -0.1
v 0.2 1.5 -0.1
v 0.4 1.5 -0.1
v 0.8 1.5 -0.1
v 1 1.5 -0.1
v -0.9 1.5 -0.2
v -0.7 1.5 -0.2
v -0.4 1.5 -0.2
v -0.2 1.5 -0.2
v 0.2 1.5 -0.2
v 0.4 1.5 -0.2
v 0.8 1.5 -0.2
v 1 1.5 -0.2
v -0.5 1.6 0.2
v -0.4 1.6 0.2
v 0.7 1.6 0.2
v 0.8 1.6 0.2
v -0.5 1.6 0.1
v -0.4 1.6 0.1
v 0.7 1.6 0.1
v 0.8 1.6 0.1
v -0.5 1.6 -0.1
v -0.4 1.6 -0.1
v 0.7 1.6 -0.1
v 0.8 1.6 -0.1
v -0.5 1.6 -0.2
v -0.4 1.6 -0.2
v 0.7 1.6 -0.2
v 0.8 1.6 -0.2
v -0.7 1.8 0.2
v -0.6 1.8 0.2
v 0.6 1.8 0.2
v 0.7 1.8 0.2
v -0.7 1.8 0.1
v -0.6 1.8 0.1
v 0.6 1.8 0.1
v 0.7 1.8 0.1
v -0.7 1.8 -0.1
v -0.6 1.8 -0.1
v 0.6 1.8 -0.1
v 0.7 1.8 -0.1
v -0.7 1.8 -0.2
v -0.6 1.8 -0.2
v 0.6 1.8 -0.2
v 0.7 1.8 -0.2
v -1.2 1.9 0.2
v -1.1 1.9 0.2
v -0.6 1.9 0.2
v -0.5 1.9 0.2
v 0.4 1.9 0.2
v 0.6 1.9 0.2
v 1.1 1.9 0.2
v 1.2 1.9 0.2
v -1.2 1.9 0.1
v -1.1 1.9 0.1
v -0.6 1.9 0.1
v -0.5 1.9 0.1
v 0.4 1.9 0.1
v 0.6 1.9 0.1
v 1.1 1.9 0.1
v 1.2 1.9 0.1
v -1.2 1.9 -0.1
v -1.1 1.9 -0.1
v -0.6 1.9 -0.1
v -0.5 1.9 -0.1
v 0.4 1.9 -0.1
v 0.6 1.9 -0.1
v 1.1 1.9 -0.1
v 1.2 1.9 -0.1
v -1.2 1.9 -0.2
v -1.1 1.9 -0.2
v -0.6 1.9 -0.2
v -0.5 1.9 -0.2
v 0.4 1.9 -0.2
v 0.6 1.9 -0.2
v 1.1 1.9 -0.2
v 1.2 1.9 -0.2
v -1.1 2.1 0.2
v -1 2.1 0.2
v 1 2.1 0.2
v 1.1 2.1 0.2
v -1.1 2.1 0.1
v -1 2.1 0.1
v 1 2.1 0.1
v 1.1 2.1 0.1
v -1.1 2.1 -0.1
v -1 2.1 -0.1
v 1 2.1 -0.1
v 1.1 2.1 -0.1
v -1.1 2.1 -0.2
v -1 2.1 -0.2
v 1 2.1 -0.2
v 1.1 2.1 -0.2
v -1 2.3 0.2
v -0.9 2.3 0.2
v 0.9 2.3 0.2
v 1 2.3 0.2
v -1 2.3 0.1
v -0.9 2.3 0.1
v 0.9 2.3 0.1
v 1 2.3 0.1
v -1 2.3 -0.1
v -0.9 2.3 -0.1
v 0.9 2.3 -0.1
v 1 2.3 -0.1
v -1 2.3 -0.2
v -0.9 2.3 -0.2
v 0.9 2.3 -0.2
v 1 2.3 -0.2
v -0.9 2.4 0.2
v -0.8 2.4 0.2
v 0.8 2.4 0.2
v 0.9 2.4 0.2
v -0.9 2.4 0.1
v -0.8 2.4 0.1
v 0.8 2.4 0.1
v 0.9 2.4 0.1
v -0.9 2.4 -0.1
v -0.8 2.4 -0.1
v 0.8 2.4 -0.1
v 0.9 2.4 -0.1
v -0.9 2.4 -0.2
v -0.8 2.4 -0.2
v 0.8 2.4 -0.2
v 0.9 2.4 -0.2
v -0.8 2.5 0.2
v -0.6 2.5 0.2
v 0.6 2.5 0.2
v 0.8 2.5 0.2
v -0.8 2.5 0.1
v -0.6 2.5 0.1
v 0.6 2.5 0.1
v 0.8 2.5 0.1
v -0.8 2.5 -0.1
v -0.6 2.5 -0.1
v 0.6 2.5 -0.1
v 0.8 2.5 -0.1
v -0.8 2.5 -0.2
v -0.6 2.5 -0.2
v 0.6 2.5 -0.2
v 0.8 2.5 -0.2
v -0.6 2.6 0.2
v -0.4 2.6 0.2
v 0.4 2.6 0.2
v 0.6 2.6 0.2
v -0.6 2.6 0.1
v -0.4 2.6 0.1
v 0.4 2.6 0.1
v 0.6 2.6 0.1
v -0.6 2.6 -0.1
v -0.4 2.6 -0.1
v 0.4 2.6 -0.1
v 0.6 2.6 -0.1
v -0.6 2.6 -0.2
v -0.4 2.6 -0.2
v 0.4 2.6 -0.2
v 0.6 2.6 -0.2
v -0.4 2.7 0.2
v 0.4 2.7 0.2
v -0.4 2.7 0.1
v 0.4 2.7 0.1
v -0.4 2.7 -0.1
v 0.4 2.7 -0.1
v -0.4 2.7 -0.2
v 0.4 2.7 -0.2
v -0.4 0.3 0.2
v 0.4 0.3 0.2
v -0.4 0.3 0.1
v 0.4 0.3 0.1
v -0.4 0.3 -0.1
v 0.4 0.3 -0.1
v -0.4 0.3 -0.2
v 0.4 0.3 -0.2
v -0.6 0.4 0.2
v -0.4 0.4 0.2
v 0.4 0.4 0.2
v 0.6 0.4 0.2
v -0.6 0.4 0.1
v -0.4 0.4 0.1
v 0.4 0.4 0.1
v 0.6 0.4 0.1
v -0.6 0.4 -0.1
v -0.4 0.4 -0.1
v 0.4 0.4 -0.1
v 0.6 0.4 -0.1
v -0.6 0.4 -0.2
v -0.4 0.4 -0.2
v 0.4 0.4 -0.2
v 0.6 0.4 -0.2
v -0.8 0.5 0.2
v -0.6 0.5 0.2
v 0.6 0.5 0.2
v 0.8 0.5 0.2
v -0.8 0.5 0.1
v -0.6 0.5 0.1
v 0.6 0.5 0.1
v 0.8 0.5 0.1
v -0.8 0.5 -0.1
v -0.6 0.5 -0.1
v 0.6 0.5 -0.1
v 0.8 0.5 -0.1
v -0.8 0.5 -0.2
v -0.6 0.5 -0.2
v 0.6 0.5 -0.2
v 0.8 0.5 -0.2
v -0.9 0.6 0.2
v -0.8 0.6 0.2
v 0.8 0.6 0.2
v 0.9 0.6 0.2
v -0.9 0.6 0.1
v -0.8 0.6 0.1
v 0.8 0.6 0.1
v 0.9 0.6 0.1
v -0.9 0.6 -0.1
v -0.8 0.6 -0.1
v 0.8 0.6 -0.1
v 0.9 0.6 -0.1
v -0.9 0.6 -0.2
v -0.8 0.6 -0.2
v 0.8 0.6 -0.2
v 0.9 0.6 -0.2
v -1 0.7 0.2
v -0.9 0.7 0.2
v 0 0.7 0.2
v 0.2 0.7 0.2
v 0.9 0.7 0.2
v 1 0.7 0.2
v -1 0.7 0.1
v -0.9 0.7 0.1
v 0 0.7 0.1
v 0.2 0.7 0.1
v 0.9 0.7 0.1
v 1 0.7 0.1
v -1 0.7 -0.1
v -0.9 0.7 -0.1
v 0 0.7 -0.1
v 0.2 0.7 -0.1
v 0.9 0.7 -0.1
v 1 0.7 -0.1
v -1 0.7 -0.2
v -0.9 0.7 -0.2
v 0 0.7 -0.2
v 0.2 0.7 -0.2
v 0.9 0.7 -0.2
v 1 0.7 -0.2
v -0.3 0.8 0.2
v 0 0.8 0.2
v 0.2 0.8 0.2
v 0.4 0.8 0.2
v -0.3 0.8 0.1
v 0 0.8 0.1
v 0.2 0.8 0.1
v 0.4 0.8 0.1
v -0.3 0.8 -0.1
v 0 0.8 -0.1
v 0.2 0.8 -0.1
v 0.4 0.8 -0.1
v -0.3 0.8 -0.2
v 0 0.8 -0.2
v 0.2 0.8 -0.2
v 0.4 0.8 -0.2
v -1.1 0.9 0.2
v -1 0.9 0.2
v -0.4 0.9 0.2
v -0.3 0.9 0.2
v 0.4 0.9 0.2
v 0.5 0.9 0.2
v 1 0.9 0.2
v 1.1 0.9 0.2
v -1.1 0.9 0.1
v -1 0.9 0.1
v -0.4 0.9 0.1
v -0.3 0.9 0.1
v 0.4 0.9 0.1
v 0.5 0.9 0.1
v 1 0.9 0.1
v 1.1 0.9 0.1
v -1.1 0.9 -0.1
v -1 0.9 -0.1
v -0.4 0.9 -0.1
v -0.3 0.9 -0.1
v 0.4 0.9 -0.1
v 0.5 0.9 -0.1
v 1 0.9 -0.1
v 1.1 0.9 -0.1
v -1.1 0.9 -0.2
v -1 0.9 -0.2
v -0.4 0.9 -0.2
v -0.3 0.9 -0.2
v 0.4 0.9 -0.2
v 0.5 0.9 -0.2
v 1 0.9 -0.2
v 1.1 0.9 -0.2
v -1.2 1.1 0.2
v -1.1 1.1 0.2
v 1.1 1.1 0.2
v 1.2 1.1 0.2
v -1.2 1.1 0.1
v -1.1 1.1 0.1
v 1.1 1.1 0.1
v 1.2 1.1 0.1
v -1.2 1.1 -0.1
v -1.1 1.1 -0.1
v 1.1 1.1 -0.1
v 1.2 1.1 -0.1
v -1.2 1.1 -0.2
v -1.1 1.1 -0.2
v 1.1 1.1 -0.2
v 1.2 1.1 -0.2
v -0.6 1.4 0.2
v 0.7 1.4 0.2
v -0.6 1.4 0.1
v 0.7 1.4 0.1
v -0.6 1.4 -0.1
v 0.7 1.4 -0.1
v -0.6 1.4 -0.2
v 0.7 1.4 -0.2
v -0.3 1.7 0.2
v -0.2 1.7 0.2
v 0.9 1.7 0.2
v 1 1.7 0.2
v -0.3 1.7 0.1
v -0.2 1.7 0.1
v 0.9 1.7 0.1
v 1 1.7 0.1
v -0.3 1.7 -0.1
v -0.2 1.7 -0.1
v 0.9 1.7 -0.1
v 1 1.7 -0.1
v -0.3 1.7 -0.2
v -0.2 1.7 -0.2
v 0.9 1.7 -0.2
v 1 1.7 -0.2
v -0.9 1.8 0.2
v -0.8 1.8 0.2
v 0.8 1.8 0.2
v 0.9 1.8 0.2
v -0.9 1.8 0.1
v -0.8 1.8 0.1
v 0.8 1.8 0.1
v 0.9 1.8 0.1
v -0.9 1.8 -0.1
v -0.8 1.8 -0.1
v 0.8 1.8 -0.1
v 0.9 1.8 -0.1
v -0.9 1.8 -0.2
v -0.8 1.8 -0.2
v 0.8 1.8 -0.2
v 0.9 1.8 -0.2
v -1.5 1.9 0.2
v -1.4 1.9 0.2
v 0.2 1.9 0.2
v 0.3 1.9 0.2
v 1.4 1.9 0.2
v 1.5 1.9 0.2
v 0.2 1.9 0.1
v 0.3 1.9 0.1
v 0.2 1.9 -0.1
v 0.3 1.9 -0.1
v -1.5 1.9 -0.2
v -1.4 1.9 -0.2
v 0.2 1.9 -0.2
v 0.3 1.9 -0.2
v 1.4 1.9 -0.2
v 1.5 1.9 -0.2
v -0.4 2 0.2
v -0.3 2 0.2
v 0.7 2 0.2
v 0.8 2 0.2
v -0.4 2 0.1
v -0.3 2 0.1
v 0.7 2 0.1
v 0.8 2 0.1
v -0.4 2 -0.1
v -0.3 2 -0.1
v 0.7 2 -0.1
v 0.8 2 -0.1
v -0.4 2 -0.2
v -0.3 2 -0.2
v 0.7 2 -0.2
v 0.8 2 -0.2
v -0.8 2.1 0.2
v -0.6 2.1 0.2
v 0.6 2.1 0.2
v 0.7 2.1 0.2
v -0.8 2.1 0.1
v -0.6 2.1 0.1
v 0.6 2.1 0.1
v 0.7 2.1 0.1
v -0.8 2.1 -0.1
v -0.6 2.1 -0.1
v 0.6 2.1 -0.1
v 0.7 2.1 -0.1
v -0.8 2.1 -0.2
v -0.6 2.1 -0.2
v 0.6 2.1 -0.2
v 0.7 2.1 -0.2
v -1.4 2.2 0.2
v -1.3 2.2 0.2
v -0.6 2.2 0.2
v -0.4 2.2 0.2
v 0.3 2.2 0.2
v 0.6 2.2 0.2
v 1.3 2.2 0.2
v 1.4 2.2 0.2
v -0.6 2.2 0.1
v -0.4 2.2 0.1
v 0.3 2.2 0.1
v 0.6 2.2 0.1
v -0.6 2.2 -0.1
v -0.4 2.2 -0.1
v 0.3 2.2 -0.1
v 0.6 2.2 -0.1
v -1.4 2.2 -0.2
v -1.3 2.2 -0.2
v -0.6 2.2 -0.2
v -0.4 2.2 -0.2
v 0.3 2.2 -0.2
v 0.6 2.2 -0.2
v 1.3 2.2 -0.2
v 1.4 2.2 -0.2
v -1.3 2.4 0.2
v -1.2 2.4 0.2
v 1.2 2.4 0.2
v 1.3 2.4 0.2
v -1.3 2.4 -0.2
v -1.2 2.4 -0.2
v 1.2 2.4 -0.2
v 1.3 2.4 -0.2
v -1.2 2.5 0.2
v -1.1 2.5 0.2
v 1.1 2.5 0.2
v 1.2 2.5 0.2
v -1.2 2.5 -0.2
v -1.1 2.5 -0.2
v 1.1 2.5 -0.2
v 1.2 2.5 -0.2
v -1.1 2.6 0.2
v -1 2.6 0.2
v 1 2.6 0.2
v 1.1 2.6 0.2
v -1.1 2.6 -0.2
v -1 2.6 -0.2
v 1 2.6 -0.2
v 1.1 2.6 -0.2
v -1 2.7 0.2
v -0.9 2.7 0.2
v 0.9 2.7 0.2
v 1 2.7 0.2
v -1 2.7 -0.2
v -0.9 2.7 -0.2
v 0.9 2.7 -0.2
v 1 2.7 -0.2
v -0.9 2.8 0.2
v -0.7 2.8 0.2
v 0.7 2.8 0.2
v 0.9 2.8 0.2
v -0.9 2.8 -0.2
v -0.7 2.8 -0.2
v 0.7 2.8 -0.2
v 0.9 2.8 -0.2
v -0.7 2.9 0.2
v -0.4 2.9 0.2
v 0.4 2.9 0.2
v 0.7 2.9 0.2
v -0.7 2.9 -0.2
v -0.4 2.9 -0.2
v 0.4 2.9 -0.2
v 0.7 2.9 -0.2
v -0.4 3 0.2
v 0.4 3 0.2
v -0.4 3 -0.2
v 0.4 3 -0.2

# faces
f 3/1/1 2/1/1 1/1/1
f 4/1/1 2/1/1 3/1/1
f 7/1/1 6/1/1 5/1/1
f 8/1/1 6/1/1 7/1/1
f 11/1/1 10/1/1 9/1/1
f 12/1/1 10/1/1 11/1/1
f 15/1/1 14/1/1 13/1/1
f 16/1/1 14/1/1 15/1/1
f 19/1/1 18/1/1 17/1/1
f 20/1/1 18/1/1 19/1/1
f 23/1/1 22/1/1 21/1/1
f 24/1/1 22/1/1 23/1/1
f 27/1/1 26/1/1 25/1/1
f 28/1/1 26/1/1 27/1/1
f 31/1/1 30/1/1 29/1/1
f 32/1/1 30/1/1 31/1/1
f 35/1/1 34/1/1 33/1/1
f 36/1/1 34/1/1 35/1/1
f 39/1/1 38/1/1 37/1/1
f 40/1/1 38/1/1 39/1/1
f 43/1/1 42/1/1 41/1/1
f 44/1/1 42/1/1 43/1/1
f 47/1/1 46/1/1 45/1/1
f 48/1/1 46/1/1 47/1/1
f 53/2/1 50/2/1 49/2/1
f 54/2/1 50/2/1 53/2/1
f 55/2/1 52/2/1 51/2/1
f 56/2/1 52/2/1 55/2/1
f 59/1/1 58/1/1 57/1/1
f 60/1/1 58/1/1 59/1/1
f 65/2/1 62/2/1 61/2/1
f 66/2/1 62/2/1 65/2/1
f 67/2/1 64/2/1 63/2/1
f 68/2/1 64/2/1 67/2/1
f 71/1/1 70/1/1 69/1/1
f 72/1/1 70/1/1 71/1/1
f 75/1/1 74/1/1 73/1/1
f 76/1/1 74/1/1 75/1/1
f 81/2/1 78/2/1 77/2/1
f 82/2/1 78/2/1 81/2/1
f 83/2/1 80/2/1 79/2/1
f 84/2/1 80/2/1 83/2/1
f 89/2/1 86/2/1 85/2/1
f 90/2/1 86/2/1 89/2/1
f 91/2/1 88/2/1 87/2/1
f 92/2/1 88/2/1 91/2/1
f 97/2/1 94/2/1 93/2/1
f 98/2/1 94/2/1 97/2/1
f 99/2/1 96/2/1 95/2/1
f 100/2/1 96/2/1 99/2/1
f 105/2/1 102/2/1 101/2/1
f 106/2/1 102/2/1 105/2/1
f 107/2/1 104/2/1 103/2/1
f 108/2/1 104/2/1 107/2/1
f 111/1/1 110/1/1 109/1/1
f 112/1/1 110/1/1 111/1/1
f 117/2/1 114/2/1 113/2/1
f 118/2/1 114/2/1 117/2/1
f 119/2/1 116/2/1 115/2/1
f 120/2/1 116/2/1 119/2/1
f 125/2/1 122/2/1 121/2/1
f 126/2/1 122/2/1 125/2/1
f 127/2/1 124/2/1 123/2/1
f 128/2/1 124/2/1 127/2/1
f 131/1/1 130/1/1 129/1/1
f 132/1/1 130/1/1 131/1/1
f 137/2/1 134/2/1 133/2/1
f 138/2/1 134/2/1 137/2/1
f 139/2/1 136/2/1 135/2/1
f 140/2/1 136/2/1 139/2/1
f 145/2/1 142/2/1 141/2/1
f 146/2/1 142/2/1 145/2/1
f 147/2/1 144/2/1 143/2/1
f 148/2/1 144/2/1 147/2/1
f 153/2/1 150/2/1 149/2/1
f 154/2/1 150/2/1 153/2/1
f 155/2/1 152/2/1 151/2/1
f 156/2/1 152/2/1 155/2/1
f 161/2/1 158/2/1 157/2/1
f 162/2/1 158/2/1 161/2/1
f 163/2/1 160/2/1 159/2/1
f 164/2/1 160/2/1 163/2/1
f 169/1/1 166/1/1 165/1/1
f 170/1/1 166/1/1 169/1/1
f 171/1/1 168/1/1 167/1/1
f 172/1/1 168/1/1 171/1/1
f 177/2/1 174/2/1 173/2/1
f 178/2/1 174/2/1 177/2/1
f 179/2/1 176/2/1 175/2/1
f 180/2/1 176/2/1 179/2/1
f 185/1/1 182/1/1 181/1/1
f 186/1/1 182/1/1 185/1/1
f 187/1/1 184/1/1 183/1/1
f 188/1/1 184/1/1 187/1/1
f 193/2/1 190/2/1 189/2/1
f 194/2/1 190/2/1 193/2/1
f 195/2/1 192/2/1 191/2/1
f 196/2/1 192/2/1 195/2/1
f 201/1/1 198/1/1 197/1/1
f 202/1/1 198/1/1 201/1/1
f 203/1/1 200/1/1 199/1/1
f 204/1/1 200/1/1 203/1/1
f 209/2/1 206/2/1 205/2/1
f 210/2/1 206/2/1 209/2/1
f 211/2/1 208/2/1 207/2/1
f 212/2/1 208/2/1 211/2/1
f 217/1/1 214/1/1 213/1/1
f 218/1/1 214/1/1 217/1/1
f 219/1/1 216/1/1 215/1/1
f 220/1/1 216/1/1 219/1/1
f 225/2/1 222/2/1 221/2/1
f 226/2/1 222/2/1 225/2/1
f 227/2/1 224/2/1 223/2/1
f 228/2/1 224/2/1 227/2/1
f 233/1/1 230/1/1 229/1/1
f 234/1/1 230/1/1 233/1/1
f 235/1/1 232/1/1 231/1/1
f 236/1/1 232/1/1 235/1/1
f 241/2/1 238/2/1 237/2/1
f 242/2/1 238/2/1 241/2/1
f 243/2/1 240/2/1 239/2/1
f 244/2/1 240/2/1 243/2/1
f 249/1/1 246/1/1 245/1/1
f 250/1/1 246/1/1 249/1/1
f 251/1/1 248/1/1 247/1/1
f 252/1/1 248/1/1 251/1/1
f 257/1/1 254/1/1 253/1/1
f 258/1/1 254/1/1 257/1/1
f 259/1/1 256/1/1 255/1/1
f 260/1/1 256/1/1 259/1/1
f 265/1/1 262/1/1 261/1/1
f 266/1/1 262/1/1 265/1/1
f 267/1/1 264/1/1 263/1/1
f 268/1/1 264/1/1 267/1/1
f 273/1/1 270/1/1 269/1/1
f 274/1/1 270/1/1 273/1/1
f 275/1/1 272/1/1 271/1/1
f 276/1/1 272/1/1 275/1/1
f 281/1/1 278/1/1 277/1/1
f 282/1/1 278/1/1 281/1/1
f 283/1/1 280/1/1 279/1/1
f 284/1/1 280/1/1 283/1/1
f 289/1/1 286/1/1 285/1/1
f 290/1/1 286/1/1 289/1/1
f 291/1/1 288/1/1 287/1/1
f 292/1/1 288/1/1 291/1/1
f 297/1/1 294/1/1 293/1/1
f 298/1/1 294/1/1 297/1/1
f 299/1/1 296/1/1 295/1/1
f 300/1/1 296/1/1 299/1/1
f 305/1/1 302/1/1 301/1/1
f 306/1/1 302/1/1 305/1/1
f 307/1/1 304/1/1 303/1/1
f 308/1/1 304/1/1 307/1/1
f 309/1/2 310/1/2 313/1/2
f 313/1/2 310/1/2 314/1/2
f 311/1/2 312/1/2 315/1/2
f 315/1/2 312/1/2 316/1/2
f 317/1/2 318/1/2 321/1/2
f 321/1/2 318/1/2 322/1/2
f 319/1/2 320/1/2 323/1/2
f 323/1/2 320/1/2 324/1/2
f 325/1/2 326/1/2 329/1/2
f 329/1/2 326/1/2 330/1/2
f 327/1/2 328/1/2 331/1/2
f 331/1/2 328/1/2 332/1/2
f 333/1/2 334/1/2 337/1/2
f 337/1/2 334/1/2 338/1/2
f 335/1/2 336/1/2 339/1/2
f 339/1/2 336/1/2 340/1/2
f 341/1/2 342/1/2 345/1/2
f 345/1/2 342/1/2 346/1/2
f 343/1/2 344/1/2 347/1/2
f 347/1/2 344/1/2 348/1/2
f 349/1/2 350/1/2 353/1/2
f 353/1/2 350/1/2 354/1/2
f 351/1/2 352/1/2 355/1/2
f 355/1/2 352/1/2 356/1/2
f 357/1/2 358/1/2 361/1/2
f 361/1/2 358/1/2 362/1/2
f 359/1/2 360/1/2 363/1/2
f 363/1/2 360/1/2 364/1/2
f 365/1/2 366/1/2 369/1/2
f 369/1/2 366/1/2 370/1/2
f 367/1/2 368/1/2 371/1/2
f 371/1/2 368/1/2 372/1/2
f 373/1/2 374/1/2 377/1/2
f 377/1/2 374/1/2 378/1/2
f 375/1/2 376/1/2 379/1/2
f 379/1/2 376/1/2 380/1/2
f 381/2/2 382/2/2 385/2/2
f 385/2/2 382/2/2 386/2/2
f 383/2/2 384/2/2 387/2/2
f 387/2/2 384/2/2 388/2/2
f 389/1/2 390/1/2 393/1/2
f 393/1/2 390/1/2 394/1/2
f 391/1/2 392/1/2 395/1/2
f 395/1/2 392/1/2 396/1/2
f 397/2/2 398/2/2 401/2/2
f 401/2/2 398/2/2 402/2/2
f 399/2/2 400/2/2 403/2/2
f 403/2/2 400/2/2 404/2/2
f 405/1/2 406/1/2 409/1/2
f 409/1/2 406/1/2 410/1/2
f 407/1/2 408/1/2 411/1/2
f 411/1/2 408/1/2 412/1/2
f 413/1/2 414/1/2 417/1/2
f 417/1/2 414/1/2 418/1/2
f 415/1/2 416/1/2 419/1/2
f 419/1/2 416/1/2 420/1/2
f 421/2/2 422/2/2 425/2/2
f 425/2/2 422/2/2 426/2/2
f 423/2/2 424/2/2 427/2/2
f 427/2/2 424/2/2 428/2/2
f 429/2/2 430/2/2 433/2/2
f 433/2/2 430/2/2 434/2/2
f 431/2/2 432/2/2 435/2/2
f 435/2/2 432/2/2 436/2/2
f 437/1/2 438/1/2 441/1/2
f 441/1/2 438/1/2 442/1/2
f 439/1/2 440/1/2 443/1/2
f 443/1/2 440/1/2 444/1/2
f 445/2/2 446/2/2 449/2/2
f 449/2/2 446/2/2 450/2/2
f 447/2/2 448/2/2 451/2/2
f 451/2/2 448/2/2 452/2/2
f 453/2/2 454/2/2 457/2/2
f 457/2/2 454/2/2 458/2/2
f 455/2/2 456/2/2 459/2/2
f 459/2/2 456/2/2 460/2/2
f 461/2/2 462/2/2 465/2/2
f 465/2/2 462/2/2 466/2/2
f 463/2/2 464/2/2 467/2/2
f 467/2/2 464/2/2 468/2/2
f 469/2/2 470/2/2 473/2/2
f 473/2/2 470/2/2 474/2/2
f 471/2/2 472/2/2 475/2/2
f 475/2/2 472/2/2 476/2/2
f 477/2/2 478/2/2 481/2/2
f 481/2/2 478/2/2 482/2/2
f 479/2/2 480/2/2 483/2/2
f 483/2/2 480/2/2 484/2/2
f 485/1/2 486/1/2 487/1/2
f 487/1/2 486/1/2 488/1/2
f 489/2/2 490/2/2 493/2/2
f 493/2/2 490/2/2 494/2/2
f 491/2/2 492/2/2 495/2/2
f 495/2/2 492/2/2 496/2/2
f 497/1/2 498/1/2 499/1/2
f 499/1/2 498/1/2 500/1/2
f 501/2/2 502/2/2 505/2/2
f 505/2/2 502/2/2 506/2/2
f 503/2/2 504/2/2 507/2/2
f 507/2/2 504/2/2 508/2/2
f 509/2/2 510/2/2 513/2/2
f 513/2/2 510/2/2 514/2/2
f 511/2/2 512/2/2 515/2/2
f 515/2/2 512/2/2 516/2/2
f 517/2/2 518/2/2 521/2/2
f 521/2/2 518/2/2 522/2/2
f 519/2/2 520/2/2 523/2/2
f 523/2/2 520/2/2 524/2/2
f 525/1/2 526/1/2 527/1/2
f 527/1/2 526/1/2 528/1/2
f 529/2/2 530/2/2 533/2/2
f 533/2/2 530/2/2 534/2/2
f 531/2/2 532/2/2 535/2/2
f 535/2/2 532/2/2 536/2/2
f 537/2/2 538/2/2 541/2/2
f 541/2/2 538/2/2 542/2/2
f 539/2/2 540/2/2 543/2/2
f 543/2/2 540/2/2 544/2/2
f 545/1/2 546/1/2 547/1/2
f 547/1/2 546/1/2 548/1/2
f 549/2/2 550/2/2 553/2/2
f 553/2/2 550/2/2 554/2/2
f 551/2/2 552/2/2 555/2/2
f 555/2/2 552/2/2 556/2/2
f 557/1/2 558/1/2 559/1/2
f 559/1/2 558/1/2 560/1/2
f 561/2/2 562/2/2 565/2/2
f 565/2/2 562/2/2 566/2/2
f 563/2/2 564/2/2 567/2/2
f 567/2/2 564/2/2 568/2/2
f 569/1/2 570/1/2 571/1/2
f 571/1/2 570/1/2 572/1/2
f 573/1/2 574/1/2 575/1/2
f 575/1/2 574/1/2 576/1/2
f 577/2/2 578/2/2 581/2/2
f 581/2/2 578/2/2 582/2/2
f 579/2/2 580/2/2 583/2/2
f 583/2/2 580/2/2 584/2/2
f 585/1/2 586/1/2 587/1/2
f 587/1/2 586/1/2 588/1/2
f 589/1/2 590/1/2 591/1/2
f 591/1/2 590/1/2 592/1/2
f 593/1/2 594/1/2 595/1/2
f 595/1/2 594/1/2 596/1/2
f 597/1/2 598/1/2 599/1/2
f 599/1/2 598/1/2 600/1/2
f 601/1/2 602/1/2 603/1/2
f 603/1/2 602/1/2 604/1/2
f 605/1/2 606/1/2 607/1/2
f 607/1/2 606/1/2 608/1/2
f 609/1/2 610/1/2 611/1/2
f 611/1/2 610/1/2 612/1/2
f 613/1/2 614/1/2 615/1/2
f 615/1/2 614/1/2 616/1/2
f 617/1/2 618/1/2 619/1/2
f 619/1/2 618/1/2 620/1/2
f 621/1/2 622/1/2 623/1/2
f 623/1/2 622/1/2 624/1/2
f 628/1/3 626/1/3 625/1/3
f 629/1/3 626/1/3 628/1/3
f 632/1/3 628/1/3 627/1/3
f 632/1/3 630/1/3 629/1/3
f 632/1/3 629/1/3 628/1/3
f 633/1/3 630/1/3 632/1/3
f 636/1/3 632/1/3 631/1/3
f 636/1/3 634/1/3 633/1/3
f 636/1/3 633/1/3 632/1/3
f 637/1/3 634/1/3 636/1/3
f 638/1/3 634/1/3 637/1/3
f 639/1/3 634/1/3 638/1/3
f 642/1/3 636/1/3 635/1/3
f 642/1/3 637/1/3 636/1/3
f 643/1/3 637/1/3 642/1/3
f 644/1/3 637/1/3 643/1/3
f 645/1/3 639/1/3 638/1/3
f 645/1/3 640/1/3 639/1/3
f 646/1/3 640/1/3 645/1/3
f 647/1/3 640/1/3 646/1/3
f 650/1/3 643/1/3 642/1/3
f 650/1/3 642/1/3 641/1/3
f 651/1/3 643/1/3 650/1/3
f 652/1/3 643/1/3 651/1/3
f 653/1/3 648/1/3 647/1/3
f 653/1/3 647/1/3 646/1/3
f 654/1/3 648/1/3 653/1/3
f 655/1/3 648/1/3 654/1/3
f 658/1/3 651/1/3 650/1/3
f 658/1/3 650/1/3 649/1/3
f 659/1/3 651/1/3 658/1/3
f 660/1/3 651/1/3 659/1/3
f 663/1/3 656/1/3 655/1/3
f 663/1/3 655/1/3 654/1/3
f 664/1/3 656/1/3 663/1/3
f 665/1/3 656/1/3 664/1/3
f 667/1/3 658/1/3 657/1/3
f 667/1/3 659/1/3 658/1/3
f 668/1/3 659/1/3 667/1/3
f 669/2/3 662/2/3 661/2/3
f 671/1/3 666/1/3 665/1/3
f 671/1/3 665/1/3 664/1/3
f 672/1/3 666/1/3 671/1/3
f 674/1/3 667/1/3 657/1/3
f 675/2/3 670/2/3 669/2/3
f 675/2/3 669/2/3 661/2/3
f 676/2/3 670/2/3 675/2/3
f 677/1/3 666/1/3 672/1/3
f 679/1/3 674/1/3 673/1/3
f 679/1/3 667/1/3 674/1/3
f 680/1/3 667/1/3 679/1/3
f 683/2/3 670/2/3 676/2/3
f 684/2/3 670/2/3 683/2/3
f 685/2/3 670/2/3 684/2/3
f 687/1/3 678/1/3 677/1/3
f 687/1/3 677/1/3 672/1/3
f 688/1/3 678/1/3 687/1/3
f 690/2/3 682/2/3 681/2/3
f 692/2/3 686/2/3 685/2/3
f 692/2/3 685/2/3 684/2/3
f 694/1/3 679/1/3 673/1/3
f 695/1/3 679/1/3 694/1/3
f 696/1/3 679/1/3 695/1/3
f 698/2/3 690/2/3 689/2/3
f 699/2/3 682/2/3 690/2/3
f 699/2/3 690/2/3 698/2/3
f 700/2/3 682/2/3 699/2/3
f 702/2/3 692/2/3 691/2/3
f 703/2/3 686/2/3 692/2/3
f 703/2/3 692/2/3 702/2/3
f 704/2/3 686/2/3 703/2/3
f 705/1/3 678/1/3 688/1/3
f 706/1/3 678/1/3 705/1/3
f 707/1/3 678/1/3 706/1/3
f 709/2/3 698/2/3 697/2/3
f 709/2/3 699/2/3 698/2/3
f 710/2/3 699/2/3 709/2/3
f 711/2/3 702/2/3 701/2/3
f 711/2/3 703/2/3 702/2/3
f 712/2/3 703/2/3 711/2/3
f 713/2/3 711/2/3 701/2/3
f 714/2/3 711/2/3 713/2/3
f 716/2/3 709/2/3 697/2/3
f 717/2/3 709/2/3 716/2/3
f 717/2/3 716/2/3 715/2/3
f 718/2/3 709/2/3 717/2/3
f 719/2/3 717/2/3 715/2/3
f 720/2/3 717/2/3 719/2/3
f 721/2/3 717/2/3 720/2/3
f 725/2/3 724/2/3 723/2/3
f 727/1/3 694/1/3 693/1/3
f 727/1/3 695/1/3 694/1/3
f 728/1/3 695/1/3 727/1/3
f 729/1/3 695/1/3 728/1/3
f 731/2/3 721/2/3 720/2/3
f 731/2/3 722/2/3 721/2/3
f 733/2/3 725/2/3 723/2/3
f 733/2/3 726/2/3 725/2/3
f 734/2/3 726/2/3 733/2/3
f 736/1/3 708/1/3 707/1/3
f 736/1/3 707/1/3 706/1/3
f 737/1/3 708/1/3 736/1/3
f 738/1/3 708/1/3 737/1/3
f 739/2/3 732/2/3 731/2/3
f 739/2/3 731/2/3 720/2/3
f 740/2/3 732/2/3 739/2/3
f 741/2/3 732/2/3 740/2/3
f 742/2/3 682/2/3 700/2/3
f 743/1/3 730/1/3 729/1/3
f 743/1/3 729/1/3 728/1/3
f 745/2/3 741/2/3 740/2/3
f 745/2/3 742/2/3 741/2/3
f 746/2/3 742/2/3 745/2/3
f 748/2/3 726/2/3 734/2/3
f 749/2/3 726/2/3 748/2/3
f 750/2/3 726/2/3 749/2/3
f 752/1/3 737/1/3 736/1/3
f 752/1/3 736/1/3 735/1/3
f 753/1/3 744/1/3 743/1/3
f 753/1/3 743/1/3 728/1/3
f 754/1/3 744/1/3 753/1/3
f 755/2/3 742/2/3 746/2/3
f 756/2/3 682/2/3 742/2/3
f 756/2/3 742/2/3 755/2/3
f 758/2/3 749/2/3 748/2/3
f 758/2/3 748/2/3 747/2/3
f 759/2/3 749/2/3 758/2/3
f 760/2/3 749/2/3 759/2/3
f 761/1/3 752/1/3 751/1/3
f 761/1/3 737/1/3 752/1/3
f 762/1/3 737/1/3 761/1/3
f 763/1/3 744/1/3 754/1/3
f 766/2/3 759/2/3 758/2/3
f 766/2/3 758/2/3 757/2/3
f 767/2/3 759/2/3 766/2/3
f 768/2/3 759/2/3 767/2/3
f 770/1/3 761/1/3 751/1/3
f 771/1/3 764/1/3 763/1/3
f 771/1/3 763/1/3 754/1/3
f 772/1/3 764/1/3 771/1/3
f 773/1/3 764/1/3 772/1/3
f 775/2/3 766/2/3 765/2/3
f 775/2/3 767/2/3 766/2/3
f 776/2/3 767/2/3 775/2/3
f 778/1/3 770/1/3 769/1/3
f 779/1/3 761/1/3 770/1/3
f 779/1/3 770/1/3 778/1/3
f 780/1/3 761/1/3 779/1/3
f 781/1/3 774/1/3 773/1/3
f 781/1/3 773/1/3 772/1/3
f 782/1/3 774/1/3 781/1/3
f 783/1/3 774/1/3 782/1/3
f 785/2/3 775/2/3 765/2/3
f 786/2/3 775/2/3 785/2/3
f 788/1/3 778/1/3 777/1/3
f 788/1/3 779/1/3 778/1/3
f 789/1/3 779/1/3 788/1/3
f 790/1/3 779/1/3 789/1/3
f 791/1/3 784/1/3 783/1/3
f 791/1/3 783/1/3 782/1/3
f 792/1/3 784/1/3 791/1/3
f 793/1/3 784/1/3 792/1/3
f 796/1/3 789/1/3 788/1/3
f 796/1/3 788/1/3 787/1/3
f 797/1/3 789/1/3 796/1/3
f 798/1/3 789/1/3 797/1/3
f 799/1/3 794/1/3 793/1/3
f 799/1/3 793/1/3 792/1/3
f 800/1/3 794/1/3 799/1/3
f 801/1/3 794/1/3 800/1/3
f 802/1/3 797/1/3 796/1/3
f 802/1/3 796/1/3 795/1/3
f 803/1/3 797/1/3 802/1/3
f 804/1/3 797/1/3 803/1/3
f 805/1/3 801/1/3 800/1/3
f 805/1/3 803/1/3 802/1/3
f 805/1/3 802/1/3 801/1/3
f 806/1/3 803/1/3 805/1/3
f 807/1/3 803/1/3 806/1/3
f 808/1/3 803/1/3 807/1/3
f 809/1/3 807/1/3 806/1/3
f 810/1/3 807/1/3 809/1/3
f 811/1/3 807/1/3 810/1/3
f 812/1/3 807/1/3 811/1/3
f 813/1/3 811/1/3 810/1/3
f 814/1/3 811/1/3 813/1/3
f 818/3/3 816/3/3 815/3/3
f 819/3/3 816/3/3 818/3/3
f 822/3/3 818/3/3 817/3/3
f 822/3/3 820/3/3 819/3/3
f 822/3/3 819/3/3 818/3/3
f 823/3/3 820/3/3 822/3/3
f 826/3/3 822/3/3 821/3/3
f 826/3/3 824/3/3 823/3/3
f 826/3/3 823/3/3 822/3/3
f 827/3/3 824/3/3 826/3/3
f 828/3/3 824/3/3 827/3/3
f 829/3/3 824/3/3 828/3/3
f 832/3/3 826/3/3 825/3/3
f 832/3/3 827/3/3 826/3/3
f 833/3/3 829/3/3 828/3/3
f 833/3/3 830/3/3 829/3/3
f 834/3/3 830/3/3 833/3/3
f 835/3/3 830/3/3 834/3/3
f 837/3/3 832/3/3 831/3/3
f 837/3/3 827/3/3 832/3/3
f 840/3/3 837/3/3 831/3/3
f 840/3/3 838/3/3 837/3/3
f 841/3/3 838/3/3 840/3/3
f 842/3/3 838/3/3 841/3/3
f 843/3/3 838/3/3 842/3/3
f 845/3/3 836/3/3 835/3/3
f 845/3/3 835/3/3 834/3/3
f 846/3/3 836/3/3 845/3/3
f 847/3/3 836/3/3 846/3/3
f 849/3/3 840/3/3 839/3/3
f 849/3/3 841/3/3 840/3/3
f 850/3/3 841/3/3 849/3/3
f 851/3/3 844/3/3 843/3/3
f 851/3/3 843/3/3 842/3/3
f 852/3/3 844/3/3 851/3/3
f 854/3/3 849/3/3 839/3/3
f 855/3/3 849/3/3 854/3/3
f 856/3/3 849/3/3 855/3/3
f 859/3/3 851/3/3 842/3/3
f 860/3/3 851/3/3 859/3/3
f 862/3/3 848/3/3 847/3/3
f 862/3/3 847/3/3 846/3/3
f 863/3/3 848/3/3 862/3/3
f 866/3/3 858/3/3 857/3/3
f 868/3/3 864/3/3 863/3/3
f 868/3/3 862/3/3 861/3/3
f 868/3/3 863/3/3 862/3/3
f 869/3/3 859/3/3 842/3/3
f 870/3/3 868/3/3 867/3/3
f 871/3/3 854/3/3 853/3/3
f 871/3/3 855/3/3 854/3/3
f 872/3/3 855/3/3 871/3/3
f 874/3/3 866/3/3 865/3/3
f 875/3/3 871/3/3 853/3/3
f 877/3/3 874/3/3 873/3/3
f 878/3/3 866/3/3 874/3/3
f 878/3/3 874/3/3 877/3/3
f 879/3/3 869/3/3 842/3/3
f 879/3/3 870/3/3 869/3/3
f 880/3/3 868/3/3 870/3/3
f 880/3/3 870/3/3 879/3/3
f 881/3/3 868/3/3 880/3/3
f 882/3/3 864/3/3 868/3/3
f 882/3/3 868/3/3 881/3/3
f 883/3/3 876/3/3 875/3/3
f 883/3/3 875/3/3 853/3/3
f 884/3/3 876/3/3 883/3/3
f 885/3/3 866/3/3 878/3/3
f 886/3/3 858/3/3 866/3/3
f 886/3/3 866/3/3 885/3/3
f 887/3/3 879/3/3 842/3/3
f 889/3/3 864/3/3 882/3/3
f 890/3/3 864/3/3 889/3/3
f 891/3/3 876/3/3 884/3/3
f 893/3/3 858/3/3 886/3/3
f 894/3/3 858/3/3 893/3/3
f 895/3/3 892/3/3 891/3/3
f 895/3/3 891/3/3 884/3/3
f 896/3/3 892/3/3 895/3/3
f 897/3/3 892/3/3 896/3/3
f 899/3/3 888/3/3 887/3/3
f 900/3/3 888/3/3 899/3/3
f 902/3/3 889/3/3 882/3/3
f 903/3/3 889/3/3 902/3/3
f 904/3/3 889/3/3 903/3/3
f 905/3/3 898/3/3 897/3/3
f 905/3/3 897/3/3 896/3/3
f 906/3/3 887/3/3 842/3/3
f 906/3/3 899/3/3 887/3/3
f 907/3/3 899/3/3 906/3/3
f 908/3/3 899/3/3 907/3/3
f 910/3/3 903/3/3 902/3/3
f 910/3/3 902/3/3 901/3/3
f 911/3/3 907/3/3 906/3/3
f 911/3/3 905/3/3 896/3/3
f 911/3/3 906/3/3 905/3/3
f 912/3/3 907/3/3 911/3/3
f 913/3/3 907/3/3 912/3/3
f 914/3/3 907/3/3 913/3/3
f 916/3/3 910/3/3 909/3/3
f 917/3/3 903/3/3 910/3/3
f 917/3/3 910/3/3 916/3/3
f 918/3/3 903/3/3 917/3/3
f 919/3/3 913/3/3 912/3/3
f 920/3/3 913/3/3 919/3/3
f 922/3/3 916/3/3 915/3/3
f 922/3/3 917/3/3 916/3/3
f 923/3/3 917/3/3 922/3/3
f 924/3/3 917/3/3 923/3/3
f 925/3/3 913/3/3 920/3/3
f 926/3/3 913/3/3 925/3/3
f 927/3/3 913/3/3 926/3/3
f 928/3/3 923/3/3 922/3/3
f 928/3/3 922/3/3 921/3/3
f 929/3/3 923/3/3 928/3/3
f 930/3/3 923/3/3 929/3/3
f 931/3/3 927/3/3 926/3/3
f 931/3/3 929/3/3 928/3/3
f 931/3/3 928/3/3 927/3/3
f 932/3/3 929/3/3 931/3/3
f 933/3/3 929/3/3 932/3/3
f 934/3/3 929/3/3 933/3/3
f 935/3/3 933/3/3 932/3/3
f 936/3/3 933/3/3 935/3/3
f 937/3/4 938/3/4 940/3/4
f 940/3/4 938/3/4 941/3/4
f 939/3/4 940/3/4 944/3/4
f 941/3/4 942/3/4 944/3/4
f 940/3/4 941/3/4 944/3/4
f 944/3/4 942/3/4 945/3/4
f 943/3/4 944/3/4 948/3/4
f 945/3/4 946/3/4 948/3/4
f 944/3/4 945/3/4 948/3/4
f 948/3/4 946/3/4 949/3/4
f 949/3/4 946/3/4 950/3/4
f 950/3/4 946/3/4 951/3/4
f 947/3/4 948/3/4 954/3/4
f 948/3/4 949/3/4 954/3/4
f 950/3/4 951/3/4 955/3/4
f 951/3/4 952/3/4 955/3/4
f 955/3/4 952/3/4 956/3/4
f 956/3/4 952/3/4 957/3/4
f 953/3/4 954/3/4 959/3/4
f 954/3/4 949/3/4 959/3/4
f 953/3/4 959/3/4 962/3/4
f 959/3/4 960/3/4 962/3/4
f 962/3/4 960/3/4 963/3/4
f 963/3/4 960/3/4 964/3/4
f 964/3/4 960/3/4 965/3/4
f 957/3/4 958/3/4 967/3/4
f 956/3/4 957/3/4 967/3/4
f 967/3/4 958/3/4 968/3/4
f 968/3/4 958/3/4 969/3/4
f 961/3/4 962/3/4 971/3/4
f 962/3/4 963/3/4 971/3/4
f 971/3/4 963/3/4 972/3/4
f 965/3/4 966/3/4 973/3/4
f 964/3/4 965/3/4 973/3/4
f 973/3/4 966/3/4 974/3/4
f 961/3/4 971/3/4 976/3/4
f 976/3/4 971/3/4 977/3/4
f 977/3/4 971/3/4 978/3/4
f 964/3/4 973/3/4 981/3/4
f 981/3/4 973/3/4 982/3/4
f 969/3/4 970/3/4 984/3/4
f 968/3/4 969/3/4 984/3/4
f 984/3/4 970/3/4 985/3/4
f 979/3/4 980/3/4 988/3/4
f 985/3/4 986/3/4 990/3/4
f 983/3/4 984/3/4 990/3/4
f 984/3/4 985/3/4 990/3/4
f 964/3/4 981/3/4 991/3/4
f 989/3/4 990/3/4 992/3/4
f 975/3/4 976/3/4 993/3/4
f 976/3/4 977/3/4 993/3/4
f 993/3/4 977/3/4 994/3/4
f 987/3/4 988/3/4 996/3/4
f 975/3/4 993/3/4 997/3/4
f 995/3/4 996/3/4 999/3/4
f 996/3/4 988/3/4 1000/3/4
f 999/3/4 996/3/4 1000/3/4
f 964/3/4 991/3/4 1001/3/4
f 991/3/4 992/3/4 1001/3/4
f 992/3/4 990/3/4 1002/3/4
f 1001/3/4 992/3/4 1002/3/4
f 1002/3/4 990/3/4 1003/3/4
f 990/3/4 986/3/4 1004/3/4
f 1003/3/4 990/3/4 1004/3/4
f 997/3/4 998/3/4 1005/3/4
f 975/3/4 997/3/4 1005/3/4
f 1005/3/4 998/3/4 1006/3/4
f 1000/3/4 988/3/4 1007/3/4
f 988/3/4 980/3/4 1008/3/4
f 1007/3/4 988/3/4 1008/3/4
f 964/3/4 1001/3/4 1009/3/4
f 1004/3/4 986/3/4 1011/3/4
f 1011/3/4 986/3/4 1012/3/4
f 1006/3/4 998/3/4 1013/3/4
f 1008/3/4 980/3/4 1015/3/4
f 1015/3/4 980/3/4 1016/3/4
f 1013/3/4 1014/3/4 1017/3/4
f 1006/3/4 1013/3/4 1017/3/4
f 1017/3/4 1014/3/4 1018/3/4
f 1018/3/4 1014/3/4 1019/3/4
f 1009/3/4 1010/3/4 1021/3/4
f 1021/3/4 1010/3/4 1022/3/4
f 1004/3/4 1011/3/4 1024/3/4
f 1024/3/4 1011/3/4 1025/3/4
f 1025/3/4 1011/3/4 1026/3/4
f 1019/3/4 1020/3/4 1027/3/4
f 1018/3/4 1019/3/4 1027/3/4
f 964/3/4 1009/3/4 1028/3/4
f 1009/3/4 1021/3/4 1028/3/4
f 1028/3/4 1021/3/4 1029/3/4
f 1029/3/4 1021/3/4 1030/3/4
f 1024/3/4 1025/3/4 1032/3/4
f 1023/3/4 1024/3/4 1032/3/4
f 1028/3/4 1029/3/4 1033/3/4
f 1018/3/4 1027/3/4 1033/3/4
f 1027/3/4 1028/3/4 1033/3/4
f 1033/3/4 1029/3/4 1034/3/4
f 1034/3/4 1029/3/4 1035/3/4
f 1035/3/4 1029/3/4 1036/3/4
f 1031/3/4 1032/3/4 1038/3/4
f 1032/3/4 1025/3/4 1039/3/4
f 1038/3/4 1032/3/4 1039/3/4
f 1039/3/4 1025/3/4 1040/3/4
f 1034/3/4 1035/3/4 1041/3/4
f 1041/3/4 1035/3/4 1042/3/4
f 1037/3/4 1038/3/4 1044/3/4
f 1038/3/4 1039/3/4 1044/3/4
f 1044/3/4 1039/3/4 1045/3/4
f 1045/3/4 1039/3/4 1046/3/4
f 1042/3/4 1035/3/4 1047/3/4
f 1047/3/4 1035/3/4 1048/3/4
f 1048/3/4 1035/3/4 1049/3/4
f 1044/3/4 1045/3/4 1050/3/4
f 1043/3/4 1044/3/4 1050/3/4
f 1050/3/4 1045/3/4 1051/3/4
f 1051/3/4 1045/3/4 1052/3/4
f 1048/3/4 1049/3/4 1053/3/4
f 1050/3/4 1051/3/4 1053/3/4
f 1049/3/4 1050/3/4 1053/3/4
f 1053/3/4 1051/3/4 1054/3/4
f 1054/3/4 1051/3/4 1055/3/4
f 1055/3/4 1051/3/4 1056/3/4
f 1054/3/4 1055/3/4 1057/3/4
f 1057/3/4 1055/3/4 1058/3/4
f 1059/1/4 1060/1/4 1062/1/4
f 1062/1/4 1060/1/4 1063/1/4
f 1061/1/4 1062/1/4 1066/1/4
f 1063/1/4 1064/1/4 1066/1/4
f 1062/1/4 1063/1/4 1066/1/4
f 1066/1/4 1064/1/4 1067/1/4
f 1065/1/4 1066/1/4 1070/1/4
f 1067/1/4 1068/1/4 1070/1/4
f 1066/1/4 1067/1/4 1070/1/4
f 1070/1/4 1068/1/4 1071/1/4
f 1071/1/4 1068/1/4 1072/1/4
f 1072/1/4 1068/1/4 1073/1/4
f 1069/1/4 1070/1/4 1076/1/4
f 1070/1/4 1071/1/4 1076/1/4
f 1076/1/4 1071/1/4 1077/1/4
f 1077/1/4 1071/1/4 1078/1/4
f 1072/1/4 1073/1/4 1079/1/4
f 1073/1/4 1074/1/4 1079/1/4
f 1079/1/4 1074/1/4 1080/1/4
f 1080/1/4 1074/1/4 1081/1/4
f 1076/1/4 1077/1/4 1084/1/4
f 1075/1/4 1076/1/4 1084/1/4
f 1084/1/4 1077/1/4 1085/1/4
f 1085/1/4 1077/1/4 1086/1/4
f 1081/1/4 1082/1/4 1087/1/4
f 1080/1/4 1081/1/4 1087/1/4
f 1087/1/4 1082/1/4 1088/1/4
f 1088/1/4 1082/1/4 1089/1/4
f 1084/1/4 1085/1/4 1092/1/4
f 1083/1/4 1084/1/4 1092/1/4
f 1092/1/4 1085/1/4 1093/1/4
f 1093/1/4 1085/1/4 1094/1/4
f 1089/1/4 1090/1/4 1097/1/4
f 1088/1/4 1089/1/4 1097/1/4
f 1097/1/4 1090/1/4 1098/1/4
f 1098/1/4 1090/1/4 1099/1/4
f 1091/1/4 1092/1/4 1101/1/4
f 1092/1/4 1093/1/4 1101/1/4
f 1101/1/4 1093/1/4 1102/1/4
f 1095/2/4 1096/2/4 1103/2/4
f 1099/1/4 1100/1/4 1105/1/4
f 1098/1/4 1099/1/4 1105/1/4
f 1105/1/4 1100/1/4 1106/1/4
f 1091/1/4 1101/1/4 1108/1/4
f 1103/2/4 1104/2/4 1109/2/4
f 1095/2/4 1103/2/4 1109/2/4
f 1109/2/4 1104/2/4 1110/2/4
f 1106/1/4 1100/1/4 1111/1/4
f 1107/1/4 1108/1/4 1113/1/4
f 1108/1/4 1101/1/4 1113/1/4
f 1113/1/4 1101/1/4 1114/1/4
f 1110/2/4 1104/2/4 1117/2/4
f 1117/2/4 1104/2/4 1118/2/4
f 1118/2/4 1104/2/4 1119/2/4
f 1111/1/4 1112/1/4 1121/1/4
f 1106/1/4 1111/1/4 1121/1/4
f 1121/1/4 1112/1/4 1122/1/4
f 1115/2/4 1116/2/4 1124/2/4
f 1119/2/4 1120/2/4 1126/2/4
f 1118/2/4 1119/2/4 1126/2/4
f 1107/1/4 1113/1/4 1128/1/4
f 1128/1/4 1113/1/4 1129/1/4
f 1129/1/4 1113/1/4 1130/1/4
f 1123/2/4 1124/2/4 1132/2/4
f 1124/2/4 1116/2/4 1133/2/4
f 1132/2/4 1124/2/4 1133/2/4
f 1133/2/4 1116/2/4 1134/2/4
f 1125/2/4 1126/2/4 1136/2/4
f 1126/2/4 1120/2/4 1137/2/4
f 1136/2/4 1126/2/4 1137/2/4
f 1137/2/4 1120/2/4 1138/2/4
f 1122/1/4 1112/1/4 1139/1/4
f 1139/1/4 1112/1/4 1140/1/4
f 1140/1/4 1112/1/4 1141/1/4
f 1131/2/4 1132/2/4 1143/2/4
f 1132/2/4 1133/2/4 1143/2/4
f 1143/2/4 1133/2/4 1144/2/4
f 1135/2/4 1136/2/4 1145/2/4
f 1136/2/4 1137/2/4 1145/2/4
f 1145/2/4 1137/2/4 1146/2/4
f 1135/2/4 1145/2/4 1147/2/4
f 1147/2/4 1145/2/4 1148/2/4
f 1131/2/4 1143/2/4 1150/2/4
f 1150/2/4 1143/2/4 1151/2/4
f 1149/2/4 1150/2/4 1151/2/4
f 1151/2/4 1143/2/4 1152/2/4
f 1149/2/4 1151/2/4 1153/2/4
f 1153/2/4 1151/2/4 1154/2/4
f 1154/2/4 1151/2/4 1155/2/4
f 1157/2/4 1158/2/4 1159/2/4
f 1127/1/4 1128/1/4 1161/1/4
f 1128/1/4 1129/1/4 1161/1/4
f 1161/1/4 1129/1/4 1162/1/4
f 1162/1/4 1129/1/4 1163/1/4
f 1154/2/4 1155/2/4 1165/2/4
f 1155/2/4 1156/2/4 1165/2/4
f 1157/2/4 1159/2/4 1167/2/4
f 1159/2/4 1160/2/4 1167/2/4
f 1167/2/4 1160/2/4 1168/2/4
f 1141/1/4 1142/1/4 1170/1/4
f 1140/1/4 1141/1/4 1170/1/4
f 1170/1/4 1142/1/4 1171/1/4
f 1171/1/4 1142/1/4 1172/1/4
f 1165/2/4 1166/2/4 1173/2/4
f 1154/2/4 1165/2/4 1173/2/4
f 1173/2/4 1166/2/4 1174/2/4
f 1174/2/4 1166/2/4 1175/2/4
f 1134/2/4 1116/2/4 1176/2/4
f 1163/1/4 1164/1/4 1177/1/4
f 1162/1/4 1163/1/4 1177/1/4
f 1174/2/4 1175/2/4 1179/2/4
f 1175/2/4 1176/2/4 1179/2/4
f 1179/2/4 1176/2/4 1180/2/4
f 1168/2/4 1160/2/4 1182/2/4
f 1182/2/4 1160/2/4 1183/2/4
f 1183/2/4 1160/2/4 1184/2/4
f 1170/1/4 1171/1/4 1186/1/4
f 1169/1/4 1170/1/4 1186/1/4
f 1177/1/4 1178/1/4 1187/1/4
f 1162/1/4 1177/1/4 1187/1/4
f 1187/1/4 1178/1/4 1188/1/4
f 1180/2/4 1176/2/4 1189/2/4
f 1176/2/4 1116/2/4 1190/2/4
f 1189/2/4 1176/2/4 1190/2/4
f 1182/2/4 1183/2/4 1192/2/4
f 1181/2/4 1182/2/4 1192/2/4
f 1192/2/4 1183/2/4 1193/2/4
f 1193/2/4 1183/2/4 1194/2/4
f 1185/1/4 1186/1/4 1195/1/4
f 1186/1/4 1171/1/4 1195/1/4
f 1195/1/4 1171/1/4 1196/1/4
f 1188/1/4 1178/1/4 1197/1/4
f 1192/2/4 1193/2/4 1200/2/4
f 1191/2/4 1192/2/4 1200/2/4
f 1200/2/4 1193/2/4 1201/2/4
f 1201/2/4 1193/2/4 1202/2/4
f 1185/1/4 1195/1/4 1204/1/4
f 1197/1/4 1198/1/4 1205/1/4
f 1188/1/4 1197/1/4 1205/1/4
f 1205/1/4 1198/1/4 1206/1/4
f 1206/1/4 1198/1/4 1207/1/4
f 1199/2/4 1200/2/4 1209/2/4
f 1200/2/4 1201/2/4 1209/2/4
f 1209/2/4 1201/2/4 1210/2/4
f 1203/1/4 1204/1/4 1212/1/4
f 1204/1/4 1195/1/4 1213/1/4
f 1212/1/4 1204/1/4 1213/1/4
f 1213/1/4 1195/1/4 1214/1/4
f 1207/1/4 1208/1/4 1215/1/4
f 1206/1/4 1207/1/4 1215/1/4
f 1215/1/4 1208/1/4 1216/1/4
f 1216/1/4 1208/1/4 1217/1/4
f 1199/2/4 1209/2/4 1219/2/4
f 1219/2/4 1209/2/4 1220/2/4
f 1211/1/4 1212/1/4 1222/1/4
f 1212/1/4 1213/1/4 1222/1/4
f 1222/1/4 1213/1/4 1223/1/4
f 1223/1/4 1213/1/4 1224/1/4
f 1217/1/4 1218/1/4 1225/1/4
f 1216/1/4 1217/1/4 1225/1/4
f 1225/1/4 1218/1/4 1226/1/4
f 1226/1/4 1218/1/4 1227/1/4
f 1222/1/4 1223/1/4 1230/1/4
f 1221/1/4 1222/1/4 1230/1/4
f 1230/1/4 1223/1/4 1231/1/4
f 1231/1/4 1223/1/4 1232/1/4
f 1227/1/4 1228/1/4 1233/1/4
f 1226/1/4 1227/1/4 1233/1/4
f 1233/1/4 1228/1/4 1234/1/4
f 1234/1/4 1228/1/4 1235/1/4
f 1230/1/4 1231/1/4 1236/1/4
f 1229/1/4 1230/1/4 1236/1/4
f 1236/1/4 1231/1/4 1237/1/4
f 1237/1/4 1231/1/4 1238/1/4
f 1234/1/4 1235/1/4 1239/1/4
f 1236/1/4 1237/1/4 1239/1/4
f 1235/1/4 1236/1/4 1239/1/4
f 1239/1/4 1237/1/4 1240/1/4
f 1240/1/4 1237/1/4 1241/1/4
f 1241/1/4 1237/1/4 1242/1/4
f 1240/1/4 1241/1/4 1243/1/4
f 1243/1/4 1241/1/4 1244/1/4
f 1244/1/4 1241/1/4 1245/1/4
f 1245/1/4 1241/1/4 1246/1/4
f 1244/1/4 1245/1/4 1247/1/4
f 1247/1/4 1245/1/4 1248/1/4
f 1251/1/5 1250/1/5 1249/1/5
f 1252/1/5 1250/1/5 1251/1/5
f 1257/1/5 1254/1/5 1253/1/5
f 1258/1/5 1254/1/5 1257/1/5
f 1259/1/5 1256/1/5 1255/1/5
f 1260/1/5 1256/1/5 1259/1/5
f 1265/1/5 1262/1/5 1261/1/5
f 1266/1/5 1262/1/5 1265/1/5
f 1267/1/5 1264/1/5 1263/1/5
f 1268/1/5 1264/1/5 1267/1/5
f 1273/1/5 1270/1/5 1269/1/5
f 1274/1/5 1270/1/5 1273/1/5
f 1275/1/5 1272/1/5 1271/1/5
f 1276/1/5 1272/1/5 1275/1/5
f 1281/1/5 1278/1/5 1277/1/5
f 1282/1/5 1278/1/5 1281/1/5
f 1283/1/5 1280/1/5 1279/1/5
f 1284/1/5 1280/1/5 1283/1/5
f 1291/2/5 1288/2/5 1287/2/5
f 1292/2/5 1288/2/5 1291/2/5
f 1295/1/5 1286/1/5 1285/1/5
f 1296/1/5 1286/1/5 1295/1/5
f 1297/2/5 1294/2/5 1293/2/5
f 1298/2/5 1294/2/5 1297/2/5
f 1299/1/5 1290/1/5 1289/1/5
f 1300/1/5 1290/1/5 1299/1/5
f 1309/2/5 1304/2/5 1303/2/5
f 1310/2/5 1304/2/5 1309/2/5
f 1311/2/5 1306/2/5 1305/2/5
f 1312/2/5 1306/2/5 1311/2/5
f 1317/1/5 1302/1/5 1301/1/5
f 1318/1/5 1302/1/5 1317/1/5
f 1319/2/5 1314/2/5 1313/2/5
f 1320/2/5 1314/2/5 1319/2/5
f 1321/2/5 1316/2/5 1315/2/5
f 1322/2/5 1316/2/5 1321/2/5
f 1323/1/5 1308/1/5 1307/1/5
f 1324/1/5 1308/1/5 1323/1/5
f 1329/2/5 1326/2/5 1325/2/5
f 1330/2/5 1326/2/5 1329/2/5
f 1331/2/5 1328/2/5 1327/2/5
f 1332/2/5 1328/2/5 1331/2/5
f 1337/2/5 1334/2/5 1333/2/5
f 1338/2/5 1334/2/5 1337/2/5
f 1339/2/5 1336/2/5 1335/2/5
f 1340/2/5 1336/2/5 1339/2/5
f 1349/2/5 1344/2/5 1343/2/5
f 1350/2/5 1344/2/5 1349/2/5
f 1351/2/5 1346/2/5 1345/2/5
f 1352/2/5 1346/2/5 1351/2/5
f 1357/1/5 1342/1/5 1341/1/5
f 1358/1/5 1342/1/5 1357/1/5
f 1359/2/5 1354/2/5 1353/2/5
f 1360/2/5 1354/2/5 1359/2/5
f 1361/2/5 1356/2/5 1355/2/5
f 1362/2/5 1356/2/5 1361/2/5
f 1363/1/5 1348/1/5 1347/1/5
f 1364/1/5 1348/1/5 1363/1/5
f 1369/1/5 1366/1/5 1365/1/5
f 1370/1/5 1366/1/5 1369/1/5
f 1371/1/5 1368/1/5 1367/1/5
f 1372/1/5 1368/1/5 1371/1/5
f 1375/2/5 1374/2/5 1373/2/5
f 1376/2/5 1374/2/5 1375/2/5
f 1379/2/5 1378/2/5 1377/2/5
f 1380/2/5 1378/2/5 1379/2/5
f 1389/2/5 1382/2/5 1381/2/5
f 1390/2/5 1382/2/5 1389/2/5
f 1391/2/5 1384/2/5 1383/2/5
f 1392/2/5 1384/2/5 1391/2/5
f 1393/2/5 1386/2/5 1385/2/5
f 1394/2/5 1386/2/5 1393/2/5
f 1395/2/5 1388/2/5 1387/2/5
f 1396/2/5 1388/2/5 1395/2/5
f 1405/2/5 1398/2/5 1397/2/5
f 1406/2/5 1398/2/5 1405/2/5
f 1407/2/5 1400/2/5 1399/2/5
f 1408/2/5 1400/2/5 1407/2/5
f 1409/2/5 1402/2/5 1401/2/5
f 1410/2/5 1402/2/5 1409/2/5
f 1411/2/5 1404/2/5 1403/2/5
f 1412/2/5 1404/2/5 1411/2/5
f 1417/2/5 1414/2/5 1413/2/5
f 1418/2/5 1414/2/5 1417/2/5
f 1419/2/5 1416/2/5 1415/2/5
f 1420/2/5 1416/2/5 1419/2/5
f 1425/2/5 1422/2/5 1421/2/5
f 1426/2/5 1422/2/5 1425/2/5
f 1427/2/5 1424/2/5 1423/2/5
f 1428/2/5 1424/2/5 1427/2/5
f 1433/2/5 1430/2/5 1429/2/5
f 1434/2/5 1430/2/5 1433/2/5
f 1435/2/5 1432/2/5 1431/2/5
f 1436/2/5 1432/2/5 1435/2/5
f 1441/2/5 1438/2/5 1437/2/5
f 1442/2/5 1438/2/5 1441/2/5
f 1443/2/5 1440/2/5 1439/2/5
f 1444/2/5 1440/2/5 1443/2/5
f 1453/1/5 1446/1/5 1445/1/5
f 1454/1/5 1446/1/5 1453/1/5
f 1455/2/5 1448/2/5 1447/2/5
f 1456/2/5 1448/2/5 1455/2/5
f 1457/2/5 1450/2/5 1449/2/5
f 1458/2/5 1450/2/5 1457/2/5
f 1459/1/5 1452/1/5 1451/1/5
f 1460/1/5 1452/1/5 1459/1/5
f 1469/1/5 1462/1/5 1461/1/5
f 1470/1/5 1462/1/5 1469/1/5
f 1471/2/5 1464/2/5 1463/2/5
f 1472/2/5 1464/2/5 1471/2/5
f 1473/2/5 1466/2/5 1465/2/5
f 1474/2/5 1466/2/5 1473/2/5
f 1475/1/5 1468/1/5 1467/1/5
f 1476/1/5 1468/1/5 1475/1/5
f 1481/1/5 1478/1/5 1477/1/5
f 1482/1/5 1478/1/5 1481/1/5
f 1483/1/5 1480/1/5 1479/1/5
f 1484/1/5 1480/1/5 1483/1/5
f 1489/1/5 1486/1/5 1485/1/5
f 1490/1/5 1486/1/5 1489/1/5
f 1491/1/5 1488/1/5 1487/1/5
f 1492/1/5 1488/1/5 1491/1/5
f 1497/1/5 1494/1/5 1493/1/5
f 1498/1/5 1494/1/5 1497/1/5
f 1499/1/5 1496/1/5 1495/1/5
f 1500/1/5 1496/1/5 1499/1/5
f 1505/1/5 1502/1/5 1501/1/5
f 1506/1/5 1502/1/5 1505/1/5
f 1507/1/5 1504/1/5 1503/1/5
f 1508/1/5 1504/1/5 1507/1/5
f 1513/1/5 1510/1/5 1509/1/5
f 1514/1/5 1510/1/5 1513/1/5
f 1515/1/5 1512/1/5 1511/1/5
f 1516/1/5 1512/1/5 1515/1/5
f 1521/1/5 1518/1/5 1517/1/5
f 1522/1/5 1518/1/5 1521/1/5
f 1523/1/5 1520/1/5 1519/1/5
f 1524/1/5 1520/1/5 1523/1/5
f 1529/1/5 1526/1/5 1525/1/5
f 1530/1/5 1526/1/5 1529/1/5
f 1531/1/5 1528/1/5 1527/1/5
f 1532/1/5 1528/1/5 1531/1/5
f 1537/1/5 1534/1/5 1533/1/5
f 1538/1/5 1534/1/5 1537/1/5
f 1539/1/5 1536/1/5 1535/1/5
f 1540/1/5 1536/1/5 1539/1/5
f 1545/1/5 1542/1/5 1541/1/5
f 1546/1/5 1542/1/5 1545/1/5
f 1547/1/5 1544/1/5 1543/1/5
f 1548/1/5 1544/1/5 1547/1/5
f 1553/1/5 1550/1/5 1549/1/5
f 1554/1/5 1550/1/5 1553/1/5
f 1555/1/5 1552/1/5 1551/1/5
f 1556/1/5 1552/1/5 1555/1/5
f 1559/1/5 1558/1/5 1557/1/5
f 1560/1/5 1558/1/5 1559/1/5
f 1563/1/5 1562/1/5 1561/1/5
f 1564/1/5 1562/1/5 1563/1/5
f 1565/1/6 1566/1/6 1567/1/6
f 1567/1/6 1566/1/6 1568/1/6
f 1569/1/6 1570/1/6 1571/1/6
f 1571/1/6 1570/1/6 1572/1/6
f 1573/1/6 1574/1/6 1577/1/6
f 1577/1/6 1574/1/6 1578/1/6
f 1575/1/6 1576/1/6 1579/1/6
f 1579/1/6 1576/1/6 1580/1/6
f 1581/1/6 1582/1/6 1585/1/6
f 1585/1/6 1582/1/6 1586/1/6
f 1583/1/6 1584/1/6 1587/1/6
f 1587/1/6 1584/1/6 1588/1/6
f 1589/1/6 1590/1/6 1593/1/6
f 1593/1/6 1590/1/6 1594/1/6
f 1591/1/6 1592/1/6 1595/1/6
f 1595/1/6 1592/1/6 1596/1/6
f 1597/1/6 1598/1/6 1601/1/6
f 1601/1/6 1598/1/6 1602/1/6
f 1599/1/6 1600/1/6 1603/1/6
f 1603/1/6 1600/1/6 1604/1/6
f 1605/1/6 1606/1/6 1609/1/6
f 1609/1/6 1606/1/6 1610/1/6
f 1607/1/6 1608/1/6 1611/1/6
f 1611/1/6 1608/1/6 1612/1/6
f 1613/1/6 1614/1/6 1617/1/6
f 1617/1/6 1614/1/6 1618/1/6
f 1615/1/6 1616/1/6 1619/1/6
f 1619/1/6 1616/1/6 1620/1/6
f 1621/1/6 1622/1/6 1627/1/6
f 1627/1/6 1622/1/6 1628/1/6
f 1623/2/6 1624/2/6 1629/2/6
f 1629/2/6 1624/2/6 1630/2/6
f 1625/1/6 1626/1/6 1631/1/6
f 1631/1/6 1626/1/6 1632/1/6
f 1633/1/6 1634/1/6 1639/1/6
f 1639/1/6 1634/1/6 1640/1/6
f 1635/2/6 1636/2/6 1641/2/6
f 1641/2/6 1636/2/6 1642/2/6
f 1637/1/6 1638/1/6 1643/1/6
f 1643/1/6 1638/1/6 1644/1/6
f 1645/2/6 1646/2/6 1649/2/6
f 1649/2/6 1646/2/6 1650/2/6
f 1647/2/6 1648/2/6 1651/2/6
f 1651/2/6 1648/2/6 1652/2/6
f 1653/2/6 1654/2/6 1657/2/6
f 1657/2/6 1654/2/6 1658/2/6
f 1655/2/6 1656/2/6 1659/2/6
f 1659/2/6 1656/2/6 1660/2/6
f 1661/1/6 1662/1/6 1669/1/6
f 1669/1/6 1662/1/6 1670/1/6
f 1663/2/6 1664/2/6 1671/2/6
f 1671/2/6 1664/2/6 1672/2/6
f 1665/2/6 1666/2/6 1673/2/6
f 1673/2/6 1666/2/6 1674/2/6
f 1667/1/6 1668/1/6 1675/1/6
f 1675/1/6 1668/1/6 1676/1/6
f 1677/1/6 1678/1/6 1685/1/6
f 1685/1/6 1678/1/6 1686/1/6
f 1679/2/6 1680/2/6 1687/2/6
f 1687/2/6 1680/2/6 1688/2/6
f 1681/2/6 1682/2/6 1689/2/6
f 1689/2/6 1682/2/6 1690/2/6
f 1683/1/6 1684/1/6 1691/1/6
f 1691/1/6 1684/1/6 1692/1/6
f 1693/1/6 1694/1/6 1697/1/6
f 1697/1/6 1694/1/6 1698/1/6
f 1695/1/6 1696/1/6 1699/1/6
f 1699/1/6 1696/1/6 1700/1/6
f 1701/1/6 1702/1/6 1705/1/6
f 1705/1/6 1702/1/6 1706/1/6
f 1703/1/6 1704/1/6 1707/1/6
f 1707/1/6 1704/1/6 1708/1/6
f 1709/2/6 1710/2/6 1711/2/6
f 1711/2/6 1710/2/6 1712/2/6
f 1713/2/6 1714/2/6 1715/2/6
f 1715/2/6 1714/2/6 1716/2/6
f 1717/2/6 1718/2/6 1721/2/6
f 1721/2/6 1718/2/6 1722/2/6
f 1719/2/6 1720/2/6 1723/2/6
f 1723/2/6 1720/2/6 1724/2/6
f 1725/2/6 1726/2/6 1729/2/6
f 1729/2/6 1726/2/6 1730/2/6
f 1727/2/6 1728/2/6 1731/2/6
f 1731/2/6 1728/2/6 1732/2/6
f 1733/2/6 1734/2/6 1737/2/6
f 1737/2/6 1734/2/6 1738/2/6
f 1735/2/6 1736/2/6 1739/2/6
f 1739/2/6 1736/2/6 1740/2/6
f 1741/2/6 1742/2/6 1745/2/6
f 1745/2/6 1742/2/6 1746/2/6
f 1743/2/6 1744/2/6 1747/2/6
f 1747/2/6 1744/2/6 1748/2/6
f 1751/2/6 1752/2/6 1755/2/6
f 1755/2/6 1752/2/6 1756/2/6
f 1749/1/6 1750/1/6 1759/1/6
f 1759/1/6 1750/1/6 1760/1/6
f 1757/2/6 1758/2/6 1761/2/6
f 1761/2/6 1758/2/6 1762/2/6
f 1753/1/6 1754/1/6 1763/1/6
f 1763/1/6 1754/1/6 1764/1/6
f 1765/2/6 1766/2/6 1769/2/6
f 1769/2/6 1766/2/6 1770/2/6
f 1767/2/6 1768/2/6 1771/2/6
f 1771/2/6 1768/2/6 1772/2/6
f 1773/2/6 1774/2/6 1777/2/6
f 1777/2/6 1774/2/6 1778/2/6
f 1775/2/6 1776/2/6 1779/2/6
f 1779/2/6 1776/2/6 1780/2/6
f 1781/2/6 1782/2/6 1785/2/6
f 1785/2/6 1782/2/6 1786/2/6
f 1783/2/6 1784/2/6 1787/2/6
f 1787/2/6 1784/2/6 1788/2/6
f 1789/2/6 1790/2/6 1793/2/6
f 1793/2/6 1790/2/6 1794/2/6
f 1791/2/6 1792/2/6 1795/2/6
f 1795/2/6 1792/2/6 1796/2/6
f 1799/2/6 1800/2/6 1805/2/6
f 1805/2/6 1800/2/6 1806/2/6
f 1801/2/6 1802/2/6 1807/2/6
f 1807/2/6 1802/2/6 1808/2/6
f 1797/1/6 1798/1/6 1813/1/6
f 1813/1/6 1798/1/6 1814/1/6
f 1809/2/6 1810/2/6 1815/2/6
f 1815/2/6 1810/2/6 1816/2/6
f 1811/2/6 1812/2/6 1817/2/6
f 1817/2/6 1812/2/6 1818/2/6
f 1803/1/6 1804/1/6 1819/1/6
f 1819/1/6 1804/1/6 1820/1/6
f 1821/1/6 1822/1/6 1825/1/6
f 1825/1/6 1822/1/6 1826/1/6
f 1823/1/6 1824/1/6 1827/1/6
f 1827/1/6 1824/1/6 1828/1/6
f 1829/1/6 1830/1/6 1833/1/6
f 1833/1/6 1830/1/6 1834/1/6
f 1831/1/6 1832/1/6 1835/1/6
f 1835/1/6 1832/1/6 1836/1/6
f 1837/1/6 1838/1/6 1841/1/6
f 1841/1/6 1838/1/6 1842/1/6
f 1839/1/6 1840/1/6 1843/1/6
f 1843/1/6 1840/1/6 1844/1/6
f 1845/1/6 1846/1/6 1849/1/6
f 1849/1/6 1846/1/6 1850/1/6
f 1847/1/6 1848/1/6 1851/1/6
f 1851/1/6 1848/1/6 1852/1/6
f 1853/1/6 1854/1/6 1857/1/6
f 1857/1/6 1854/1/6 1858/1/6
f 1855/1/6 1856/1/6 1859/1/6
f 1859/1/6 1856/1/6 1860/1/6
f 1861/1/6 1862/1/6 1865/1/6
f 1865/1/6 1862/1/6 1866/1/6
f 1863/1/6 1864/1/6 1867/1/6
f 1867/1/6 1864/1/6 1868/1/6
f 1869/1/6 1870/1/6 1871/1/6
f 1871/1/6 1870/1/6 1872/1/6
