# MagicaVoxel @ Ephtracy

# group
o 

# material
mtllib Wing_Obstacle-0.mtl
usemtl palette

# normals
vn -1 0 0
vn 1 0 0
vn 0 0 1
vn 0 0 -1
vn 0 -1 0
vn 0 1 0

# texcoords
vt 0.982422 0.5
vt 0.990234 0.5

# verts
v -1.5 2.6 0.1
v -1.5 2.6 -0.1
v -1.5 3.4 0.1
v -1.5 3.4 -0.1
v -1.4 2.3 0.1
v -1.4 2.3 -0.1
v -1.4 2.6 0.1
v -1.4 2.6 -0.1
v -1.4 3.4 0.1
v -1.4 3.4 -0.1
v -1.4 3.7 0.1
v -1.4 3.7 -0.1
v -1.3 2.1 0.1
v -1.3 2.1 -0.1
v -1.3 2.3 0.1
v -1.3 2.3 -0.1
v -1.3 3.7 0.1
v -1.3 3.7 -0.1
v -1.3 3.9 0.1
v -1.3 3.9 -0.1
v -1.2 2 0.1
v -1.2 2 -0.1
v -1.2 2.1 0.1
v -1.2 2.1 -0.1
v -1.2 2.6 0.2
v -1.2 2.6 0.1
v -1.2 2.6 -0.1
v -1.2 2.6 -0.2
v -1.2 3.4 0.2
v -1.2 3.4 0.1
v -1.2 3.4 -0.1
v -1.2 3.4 -0.2
v -1.2 3.9 0.1
v -1.2 3.9 -0.1
v -1.2 4 0.1
v -1.2 4 -0.1
v -1.1 1.9 0.1
v -1.1 1.9 -0.1
v -1.1 2 0.1
v -1.1 2 -0.1
v -1.1 2.4 0.2
v -1.1 2.4 0.1
v -1.1 2.4 -0.1
v -1.1 2.4 -0.2
v -1.1 2.6 0.2
v -1.1 2.6 0.1
v -1.1 2.6 -0.1
v -1.1 2.6 -0.2
v -1.1 3.4 0.2
v -1.1 3.4 0.1
v -1.1 3.4 -0.1
v -1.1 3.4 -0.2
v -1.1 3.6 0.2
v -1.1 3.6 0.1
v -1.1 3.6 -0.1
v -1.1 3.6 -0.2
v -1.1 4 0.1
v -1.1 4 -0.1
v -1.1 4.1 0.1
v -1.1 4.1 -0.1
v -1 1.8 0.1
v -1 1.8 -0.1
v -1 1.9 0.1
v -1 1.9 -0.1
v -1 2.2 0.2
v -1 2.2 0.1
v -1 2.2 -0.1
v -1 2.2 -0.2
v -1 2.4 0.2
v -1 2.4 0.1
v -1 2.4 -0.1
v -1 2.4 -0.2
v -1 3.6 0.2
v -1 3.6 0.1
v -1 3.6 -0.1
v -1 3.6 -0.2
v -1 3.8 0.2
v -1 3.8 0.1
v -1 3.8 -0.1
v -1 3.8 -0.2
v -1 4.1 0.1
v -1 4.1 -0.1
v -1 4.2 0.1
v -1 4.2 -0.1
v -0.9 1.7 0.1
v -0.9 1.7 -0.1
v -0.9 1.8 0.1
v -0.9 1.8 -0.1
v -0.9 2.1 0.2
v -0.9 2.1 0.1
v -0.9 2.1 -0.1
v -0.9 2.1 -0.2
v -0.9 2.2 0.2
v -0.9 2.2 0.1
v -0.9 2.2 -0.1
v -0.9 2.2 -0.2
v -0.9 3.8 0.2
v -0.9 3.8 0.1
v -0.9 3.8 -0.1
v -0.9 3.8 -0.2
v -0.9 3.9 0.2
v -0.9 3.9 0.1
v -0.9 3.9 -0.1
v -0.9 3.9 -0.2
v -0.9 4.2 0.1
v -0.9 4.2 -0.1
v -0.9 4.3 0.1
v -0.9 4.3 -0.1
v -0.8 2 0.2
v -0.8 2 0.1
v -0.8 2 -0.1
v -0.8 2 -0.2
v -0.8 2.1 0.2
v -0.8 2.1 0.1
v -0.8 2.1 -0.1
v -0.8 2.1 -0.2
v -0.8 3.9 0.2
v -0.8 3.9 0.1
v -0.8 3.9 -0.1
v -0.8 3.9 -0.2
v -0.8 4 0.2
v -0.8 4 0.1
v -0.8 4 -0.1
v -0.8 4 -0.2
v -0.7 1.6 0.1
v -0.7 1.6 -0.1
v -0.7 1.7 0.1
v -0.7 1.7 -0.1
v -0.7 4.3 0.1
v -0.7 4.3 -0.1
v -0.7 4.4 0.1
v -0.7 4.4 -0.1
v -0.6 1.9 0.2
v -0.6 1.9 0.1
v -0.6 1.9 -0.1
v -0.6 1.9 -0.2
v -0.6 2 0.2
v -0.6 2 0.1
v -0.6 2 -0.1
v -0.6 2 -0.2
v -0.6 4 0.2
v -0.6 4 0.1
v -0.6 4 -0.1
v -0.6 4 -0.2
v -0.6 4.1 0.2
v -0.6 4.1 0.1
v -0.6 4.1 -0.1
v -0.6 4.1 -0.2
v -0.4 1.5 0.1
v -0.4 1.5 -0.1
v -0.4 1.6 0.1
v -0.4 1.6 -0.1
v -0.4 1.8 0.2
v -0.4 1.8 0.1
v -0.4 1.8 -0.1
v -0.4 1.8 -0.2
v -0.4 1.9 0.2
v -0.4 1.9 0.1
v -0.4 1.9 -0.1
v -0.4 1.9 -0.2
v -0.4 4.1 0.2
v -0.4 4.1 0.1
v -0.4 4.1 -0.1
v -0.4 4.1 -0.2
v -0.4 4.2 0.2
v -0.4 4.2 0.1
v -0.4 4.2 -0.1
v -0.4 4.2 -0.2
v -0.4 4.4 0.1
v -0.4 4.4 -0.1
v -0.4 4.5 0.1
v -0.4 4.5 -0.1
v 0.4 2 0.2
v 0.4 2 -0.2
v 0.4 2.1 0.2
v 0.4 2.1 -0.2
v 0.4 3.9 0.2
v 0.4 3.9 -0.2
v 0.4 4 0.2
v 0.4 4 -0.2
v 0.6 2.1 0.2
v 0.6 2.1 -0.2
v 0.6 2.2 0.2
v 0.6 2.2 -0.2
v 0.6 3.8 0.2
v 0.6 3.8 -0.2
v 0.6 3.9 0.2
v 0.6 3.9 -0.2
v 0.7 2.2 0.2
v 0.7 2.2 -0.2
v 0.7 2.3 0.2
v 0.7 2.3 -0.2
v 0.7 3.7 0.2
v 0.7 3.7 -0.2
v 0.7 3.8 0.2
v 0.7 3.8 -0.2
v 0.8 2.3 0.2
v 0.8 2.3 -0.2
v 0.8 2.4 0.2
v 0.8 2.4 -0.2
v 0.8 3.6 0.2
v 0.8 3.6 -0.2
v 0.8 3.7 0.2
v 0.8 3.7 -0.2
v 0.9 2.4 0.2
v 0.9 2.4 -0.2
v 0.9 2.6 0.2
v 0.9 2.6 -0.2
v 0.9 3.4 0.2
v 0.9 3.4 -0.2
v 0.9 3.6 0.2
v 0.9 3.6 -0.2
v 1 2.6 0.2
v 1 2.6 -0.2
v 1 3.4 0.2
v 1 3.4 -0.2
v -1 2.6 0.2
v -1 2.6 -0.2
v -1 3.4 0.2
v -1 3.4 -0.2
v -0.9 2.4 0.2
v -0.9 2.4 -0.2
v -0.9 2.6 0.2
v -0.9 2.6 -0.2
v -0.9 3.4 0.2
v -0.9 3.4 -0.2
v -0.9 3.6 0.2
v -0.9 3.6 -0.2
v -0.8 2.3 0.2
v -0.8 2.3 -0.2
v -0.8 2.4 0.2
v -0.8 2.4 -0.2
v -0.8 3.6 0.2
v -0.8 3.6 -0.2
v -0.8 3.7 0.2
v -0.8 3.7 -0.2
v -0.7 2.2 0.2
v -0.7 2.2 -0.2
v -0.7 2.3 0.2
v -0.7 2.3 -0.2
v -0.7 3.7 0.2
v -0.7 3.7 -0.2
v -0.7 3.8 0.2
v -0.7 3.8 -0.2
v -0.6 2.1 0.2
v -0.6 2.1 -0.2
v -0.6 2.2 0.2
v -0.6 2.2 -0.2
v -0.6 3.8 0.2
v -0.6 3.8 -0.2
v -0.6 3.9 0.2
v -0.6 3.9 -0.2
v -0.4 2 0.2
v -0.4 2 -0.2
v -0.4 2.1 0.2
v -0.4 2.1 -0.2
v -0.4 3.9 0.2
v -0.4 3.9 -0.2
v -0.4 4 0.2
v -0.4 4 -0.2
v 0.4 1.5 0.1
v 0.4 1.5 -0.1
v 0.4 1.6 0.1
v 0.4 1.6 -0.1
v 0.4 1.8 0.2
v 0.4 1.8 0.1
v 0.4 1.8 -0.1
v 0.4 1.8 -0.2
v 0.4 1.9 0.2
v 0.4 1.9 0.1
v 0.4 1.9 -0.1
v 0.4 1.9 -0.2
v 0.4 4.1 0.2
v 0.4 4.1 0.1
v 0.4 4.1 -0.1
v 0.4 4.1 -0.2
v 0.4 4.2 0.2
v 0.4 4.2 0.1
v 0.4 4.2 -0.1
v 0.4 4.2 -0.2
v 0.4 4.4 0.1
v 0.4 4.4 -0.1
v 0.4 4.5 0.1
v 0.4 4.5 -0.1
v 0.6 1.9 0.2
v 0.6 1.9 0.1
v 0.6 1.9 -0.1
v 0.6 1.9 -0.2
v 0.6 2 0.2
v 0.6 2 0.1
v 0.6 2 -0.1
v 0.6 2 -0.2
v 0.6 4 0.2
v 0.6 4 0.1
v 0.6 4 -0.1
v 0.6 4 -0.2
v 0.6 4.1 0.2
v 0.6 4.1 0.1
v 0.6 4.1 -0.1
v 0.6 4.1 -0.2
v 0.7 1.6 0.1
v 0.7 1.6 -0.1
v 0.7 1.7 0.1
v 0.7 1.7 -0.1
v 0.7 4.3 0.1
v 0.7 4.3 -0.1
v 0.7 4.4 0.1
v 0.7 4.4 -0.1
v 0.8 2 0.2
v 0.8 2 0.1
v 0.8 2 -0.1
v 0.8 2 -0.2
v 0.8 2.1 0.2
v 0.8 2.1 0.1
v 0.8 2.1 -0.1
v 0.8 2.1 -0.2
v 0.8 3.9 0.2
v 0.8 3.9 0.1
v 0.8 3.9 -0.1
v 0.8 3.9 -0.2
v 0.8 4 0.2
v 0.8 4 0.1
v 0.8 4 -0.1
v 0.8 4 -0.2
v 0.9 1.7 0.1
v 0.9 1.7 -0.1
v 0.9 1.8 0.1
v 0.9 1.8 -0.1
v 0.9 2.1 0.2
v 0.9 2.1 0.1
v 0.9 2.1 -0.1
v 0.9 2.1 -0.2
v 0.9 2.2 0.2
v 0.9 2.2 0.1
v 0.9 2.2 -0.1
v 0.9 2.2 -0.2
v 0.9 3.8 0.2
v 0.9 3.8 0.1
v 0.9 3.8 -0.1
v 0.9 3.8 -0.2
v 0.9 3.9 0.2
v 0.9 3.9 0.1
v 0.9 3.9 -0.1
v 0.9 3.9 -0.2
v 0.9 4.2 0.1
v 0.9 4.2 -0.1
v 0.9 4.3 0.1
v 0.9 4.3 -0.1
v 1 1.8 0.1
v 1 1.8 -0.1
v 1 1.9 0.1
v 1 1.9 -0.1
v 1 2.2 0.2
v 1 2.2 0.1
v 1 2.2 -0.1
v 1 2.2 -0.2
v 1 2.4 0.2
v 1 2.4 0.1
v 1 2.4 -0.1
v 1 2.4 -0.2
v 1 3.6 0.2
v 1 3.6 0.1
v 1 3.6 -0.1
v 1 3.6 -0.2
v 1 3.8 0.2
v 1 3.8 0.1
v 1 3.8 -0.1
v 1 3.8 -0.2
v 1 4.1 0.1
v 1 4.1 -0.1
v 1 4.2 0.1
v 1 4.2 -0.1
v 1.1 1.9 0.1
v 1.1 1.9 -0.1
v 1.1 2 0.1
v 1.1 2 -0.1
v 1.1 2.4 0.2
v 1.1 2.4 0.1
v 1.1 2.4 -0.1
v 1.1 2.4 -0.2
v 1.1 2.6 0.2
v 1.1 2.6 0.1
v 1.1 2.6 -0.1
v 1.1 2.6 -0.2
v 1.1 3.4 0.2
v 1.1 3.4 0.1
v 1.1 3.4 -0.1
v 1.1 3.4 -0.2
v 1.1 3.6 0.2
v 1.1 3.6 0.1
v 1.1 3.6 -0.1
v 1.1 3.6 -0.2
v 1.1 4 0.1
v 1.1 4 -0.1
v 1.1 4.1 0.1
v 1.1 4.1 -0.1
v 1.2 2 0.1
v 1.2 2 -0.1
v 1.2 2.1 0.1
v 1.2 2.1 -0.1
v 1.2 2.6 0.2
v 1.2 2.6 0.1
v 1.2 2.6 -0.1
v 1.2 2.6 -0.2
v 1.2 3.4 0.2
v 1.2 3.4 0.1
v 1.2 3.4 -0.1
v 1.2 3.4 -0.2
v 1.2 3.9 0.1
v 1.2 3.9 -0.1
v 1.2 4 0.1
v 1.2 4 -0.1
v 1.3 2.1 0.1
v 1.3 2.1 -0.1
v 1.3 2.3 0.1
v 1.3 2.3 -0.1
v 1.3 3.7 0.1
v 1.3 3.7 -0.1
v 1.3 3.9 0.1
v 1.3 3.9 -0.1
v 1.4 2.3 0.1
v 1.4 2.3 -0.1
v 1.4 2.6 0.1
v 1.4 2.6 -0.1
v 1.4 3.4 0.1
v 1.4 3.4 -0.1
v 1.4 3.7 0.1
v 1.4 3.7 -0.1
v 1.5 2.6 0.1
v 1.5 2.6 -0.1
v 1.5 3.4 0.1
v 1.5 3.4 -0.1
v -1.2 2.6 0.2
v -1.2 3.4 0.2
v -1.1 2.4 0.2
v -1.1 2.6 0.2
v -1.1 3.4 0.2
v -1.1 3.6 0.2
v -1 2.2 0.2
v -1 2.4 0.2
v -1 2.6 0.2
v -1 3.4 0.2
v -1 3.6 0.2
v -1 3.8 0.2
v -0.9 2.1 0.2
v -0.9 2.2 0.2
v -0.9 2.4 0.2
v -0.9 2.6 0.2
v -0.9 3.4 0.2
v -0.9 3.6 0.2
v -0.9 3.8 0.2
v -0.9 3.9 0.2
v -0.8 2 0.2
v -0.8 2.1 0.2
v -0.8 2.3 0.2
v -0.8 2.4 0.2
v -0.8 3.6 0.2
v -0.8 3.7 0.2
v -0.8 3.9 0.2
v -0.8 4 0.2
v -0.7 2.2 0.2
v -0.7 2.3 0.2
v -0.7 3.7 0.2
v -0.7 3.8 0.2
v -0.6 1.9 0.2
v -0.6 2 0.2
v -0.6 2.1 0.2
v -0.6 2.2 0.2
v -0.6 3.8 0.2
v -0.6 3.9 0.2
v -0.6 4 0.2
v -0.6 4.1 0.2
v -0.4 1.8 0.2
v -0.4 1.9 0.2
v -0.4 2 0.2
v -0.4 2.1 0.2
v -0.4 3.9 0.2
v -0.4 4 0.2
v -0.4 4.1 0.2
v -0.4 4.2 0.2
v 0.4 1.8 0.2
v 0.4 1.9 0.2
v 0.4 2 0.2
v 0.4 2.1 0.2
v 0.4 3.9 0.2
v 0.4 4 0.2
v 0.4 4.1 0.2
v 0.4 4.2 0.2
v 0.6 1.9 0.2
v 0.6 2 0.2
v 0.6 2.1 0.2
v 0.6 2.2 0.2
v 0.6 3.8 0.2
v 0.6 3.9 0.2
v 0.6 4 0.2
v 0.6 4.1 0.2
v 0.7 2.2 0.2
v 0.7 2.3 0.2
v 0.7 3.7 0.2
v 0.7 3.8 0.2
v 0.8 2 0.2
v 0.8 2.1 0.2
v 0.8 2.3 0.2
v 0.8 2.4 0.2
v 0.8 3.6 0.2
v 0.8 3.7 0.2
v 0.8 3.9 0.2
v 0.8 4 0.2
v 0.9 2.1 0.2
v 0.9 2.2 0.2
v 0.9 2.4 0.2
v 0.9 2.6 0.2
v 0.9 3.4 0.2
v 0.9 3.6 0.2
v 0.9 3.8 0.2
v 0.9 3.9 0.2
v 1 2.2 0.2
v 1 2.4 0.2
v 1 2.6 0.2
v 1 3.4 0.2
v 1 3.6 0.2
v 1 3.8 0.2
v 1.1 2.4 0.2
v 1.1 2.6 0.2
v 1.1 3.4 0.2
v 1.1 3.6 0.2
v 1.2 2.6 0.2
v 1.2 3.4 0.2
v -1.5 2.6 0.1
v -1.5 3.4 0.1
v -1.4 2.3 0.1
v -1.4 2.6 0.1
v -1.4 3.4 0.1
v -1.4 3.7 0.1
v -1.3 2.1 0.1
v -1.3 2.3 0.1
v -1.3 3.7 0.1
v -1.3 3.9 0.1
v -1.2 2 0.1
v -1.2 2.1 0.1
v -1.2 2.6 0.1
v -1.2 3.4 0.1
v -1.2 3.9 0.1
v -1.2 4 0.1
v -1.1 1.9 0.1
v -1.1 2 0.1
v -1.1 2.4 0.1
v -1.1 2.6 0.1
v -1.1 3.4 0.1
v -1.1 3.6 0.1
v -1.1 4 0.1
v -1.1 4.1 0.1
v -1 1.8 0.1
v -1 1.9 0.1
v -1 2.2 0.1
v -1 2.4 0.1
v -1 3.6 0.1
v -1 3.8 0.1
v -1 4.1 0.1
v -1 4.2 0.1
v -0.9 1.7 0.1
v -0.9 1.8 0.1
v -0.9 2.1 0.1
v -0.9 2.2 0.1
v -0.9 3.8 0.1
v -0.9 3.9 0.1
v -0.9 4.2 0.1
v -0.9 4.3 0.1
v -0.8 2 0.1
v -0.8 2.1 0.1
v -0.8 3.9 0.1
v -0.8 4 0.1
v -0.7 1.6 0.1
v -0.7 1.7 0.1
v -0.7 4.3 0.1
v -0.7 4.4 0.1
v -0.6 1.9 0.1
v -0.6 2 0.1
v -0.6 4 0.1
v -0.6 4.1 0.1
v -0.4 1.5 0.1
v -0.4 1.6 0.1
v -0.4 1.8 0.1
v -0.4 1.9 0.1
v -0.4 4.1 0.1
v -0.4 4.2 0.1
v -0.4 4.4 0.1
v -0.4 4.5 0.1
v 0.4 1.5 0.1
v 0.4 1.6 0.1
v 0.4 1.8 0.1
v 0.4 1.9 0.1
v 0.4 4.1 0.1
v 0.4 4.2 0.1
v 0.4 4.4 0.1
v 0.4 4.5 0.1
v 0.6 1.9 0.1
v 0.6 2 0.1
v 0.6 4 0.1
v 0.6 4.1 0.1
v 0.7 1.6 0.1
v 0.7 1.7 0.1
v 0.7 4.3 0.1
v 0.7 4.4 0.1
v 0.8 2 0.1
v 0.8 2.1 0.1
v 0.8 3.9 0.1
v 0.8 4 0.1
v 0.9 1.7 0.1
v 0.9 1.8 0.1
v 0.9 2.1 0.1
v 0.9 2.2 0.1
v 0.9 3.8 0.1
v 0.9 3.9 0.1
v 0.9 4.2 0.1
v 0.9 4.3 0.1
v 1 1.8 0.1
v 1 1.9 0.1
v 1 2.2 0.1
v 1 2.4 0.1
v 1 3.6 0.1
v 1 3.8 0.1
v 1 4.1 0.1
v 1 4.2 0.1
v 1.1 1.9 0.1
v 1.1 2 0.1
v 1.1 2.4 0.1
v 1.1 2.6 0.1
v 1.1 3.4 0.1
v 1.1 3.6 0.1
v 1.1 4 0.1
v 1.1 4.1 0.1
v 1.2 2 0.1
v 1.2 2.1 0.1
v 1.2 2.6 0.1
v 1.2 3.4 0.1
v 1.2 3.9 0.1
v 1.2 4 0.1
v 1.3 2.1 0.1
v 1.3 2.3 0.1
v 1.3 3.7 0.1
v 1.3 3.9 0.1
v 1.4 2.3 0.1
v 1.4 2.6 0.1
v 1.4 3.4 0.1
v 1.4 3.7 0.1
v 1.5 2.6 0.1
v 1.5 3.4 0.1
v -1.5 2.6 -0.1
v -1.5 3.4 -0.1
v -1.4 2.3 -0.1
v -1.4 2.6 -0.1
v -1.4 3.4 -0.1
v -1.4 3.7 -0.1
v -1.3 2.1 -0.1
v -1.3 2.3 -0.1
v -1.3 3.7 -0.1
v -1.3 3.9 -0.1
v -1.2 2 -0.1
v -1.2 2.1 -0.1
v -1.2 2.6 -0.1
v -1.2 3.4 -0.1
v -1.2 3.9 -0.1
v -1.2 4 -0.1
v -1.1 1.9 -0.1
v -1.1 2 -0.1
v -1.1 2.4 -0.1
v -1.1 2.6 -0.1
v -1.1 3.4 -0.1
v -1.1 3.6 -0.1
v -1.1 4 -0.1
v -1.1 4.1 -0.1
v -1 1.8 -0.1
v -1 1.9 -0.1
v -1 2.2 -0.1
v -1 2.4 -0.1
v -1 3.6 -0.1
v -1 3.8 -0.1
v -1 4.1 -0.1
v -1 4.2 -0.1
v -0.9 1.7 -0.1
v -0.9 1.8 -0.1
v -0.9 2.1 -0.1
v -0.9 2.2 -0.1
v -0.9 3.8 -0.1
v -0.9 3.9 -0.1
v -0.9 4.2 -0.1
v -0.9 4.3 -0.1
v -0.8 2 -0.1
v -0.8 2.1 -0.1
v -0.8 3.9 -0.1
v -0.8 4 -0.1
v -0.7 1.6 -0.1
v -0.7 1.7 -0.1
v -0.7 4.3 -0.1
v -0.7 4.4 -0.1
v -0.6 1.9 -0.1
v -0.6 2 -0.1
v -0.6 4 -0.1
v -0.6 4.1 -0.1
v -0.4 1.5 -0.1
v -0.4 1.6 -0.1
v -0.4 1.8 -0.1
v -0.4 1.9 -0.1
v -0.4 4.1 -0.1
v -0.4 4.2 -0.1
v -0.4 4.4 -0.1
v -0.4 4.5 -0.1
v 0.4 1.5 -0.1
v 0.4 1.6 -0.1
v 0.4 1.8 -0.1
v 0.4 1.9 -0.1
v 0.4 4.1 -0.1
v 0.4 4.2 -0.1
v 0.4 4.4 -0.1
v 0.4 4.5 -0.1
v 0.6 1.9 -0.1
v 0.6 2 -0.1
v 0.6 4 -0.1
v 0.6 4.1 -0.1
v 0.7 1.6 -0.1
v 0.7 1.7 -0.1
v 0.7 4.3 -0.1
v 0.7 4.4 -0.1
v 0.8 2 -0.1
v 0.8 2.1 -0.1
v 0.8 3.9 -0.1
v 0.8 4 -0.1
v 0.9 1.7 -0.1
v 0.9 1.8 -0.1
v 0.9 2.1 -0.1
v 0.9 2.2 -0.1
v 0.9 3.8 -0.1
v 0.9 3.9 -0.1
v 0.9 4.2 -0.1
v 0.9 4.3 -0.1
v 1 1.8 -0.1
v 1 1.9 -0.1
v 1 2.2 -0.1
v 1 2.4 -0.1
v 1 3.6 -0.1
v 1 3.8 -0.1
v 1 4.1 -0.1
v 1 4.2 -0.1
v 1.1 1.9 -0.1
v 1.1 2 -0.1
v 1.1 2.4 -0.1
v 1.1 2.6 -0.1
v 1.1 3.4 -0.1
v 1.1 3.6 -0.1
v 1.1 4 -0.1
v 1.1 4.1 -0.1
v 1.2 2 -0.1
v 1.2 2.1 -0.1
v 1.2 2.6 -0.1
v 1.2 3.4 -0.1
v 1.2 3.9 -0.1
v 1.2 4 -0.1
v 1.3 2.1 -0.1
v 1.3 2.3 -0.1
v 1.3 3.7 -0.1
v 1.3 3.9 -0.1
v 1.4 2.3 -0.1
v 1.4 2.6 -0.1
v 1.4 3.4 -0.1
v 1.4 3.7 -0.1
v 1.5 2.6 -0.1
v 1.5 3.4 -0.1
v -1.2 2.6 -0.2
v -1.2 3.4 -0.2
v -1.1 2.4 -0.2
v -1.1 2.6 -0.2
v -1.1 3.4 -0.2
v -1.1 3.6 -0.2
v -1 2.2 -0.2
v -1 2.4 -0.2
v -1 2.6 -0.2
v -1 3.4 -0.2
v -1 3.6 -0.2
v -1 3.8 -0.2
v -0.9 2.1 -0.2
v -0.9 2.2 -0.2
v -0.9 2.4 -0.2
v -0.9 2.6 -0.2
v -0.9 3.4 -0.2
v -0.9 3.6 -0.2
v -0.9 3.8 -0.2
v -0.9 3.9 -0.2
v -0.8 2 -0.2
v -0.8 2.1 -0.2
v -0.8 2.3 -0.2
v -0.8 2.4 -0.2
v -0.8 3.6 -0.2
v -0.8 3.7 -0.2
v -0.8 3.9 -0.2
v -0.8 4 -0.2
v -0.7 2.2 -0.2
v -0.7 2.3 -0.2
v -0.7 3.7 -0.2
v -0.7 3.8 -0.2
v -0.6 1.9 -0.2
v -0.6 2 -0.2
v -0.6 2.1 -0.2
v -0.6 2.2 -0.2
v -0.6 3.8 -0.2
v -0.6 3.9 -0.2
v -0.6 4 -0.2
v -0.6 4.1 -0.2
v -0.4 1.8 -0.2
v -0.4 1.9 -0.2
v -0.4 2 -0.2
v -0.4 2.1 -0.2
v -0.4 3.9 -0.2
v -0.4 4 -0.2
v -0.4 4.1 -0.2
v -0.4 4.2 -0.2
v 0.4 1.8 -0.2
v 0.4 1.9 -0.2
v 0.4 2 -0.2
v 0.4 2.1 -0.2
v 0.4 3.9 -0.2
v 0.4 4 -0.2
v 0.4 4.1 -0.2
v 0.4 4.2 -0.2
v 0.6 1.9 -0.2
v 0.6 2 -0.2
v 0.6 2.1 -0.2
v 0.6 2.2 -0.2
v 0.6 3.8 -0.2
v 0.6 3.9 -0.2
v 0.6 4 -0.2
v 0.6 4.1 -0.2
v 0.7 2.2 -0.2
v 0.7 2.3 -0.2
v 0.7 3.7 -0.2
v 0.7 3.8 -0.2
v 0.8 2 -0.2
v 0.8 2.1 -0.2
v 0.8 2.3 -0.2
v 0.8 2.4 -0.2
v 0.8 3.6 -0.2
v 0.8 3.7 -0.2
v 0.8 3.9 -0.2
v 0.8 4 -0.2
v 0.9 2.1 -0.2
v 0.9 2.2 -0.2
v 0.9 2.4 -0.2
v 0.9 2.6 -0.2
v 0.9 3.4 -0.2
v 0.9 3.6 -0.2
v 0.9 3.8 -0.2
v 0.9 3.9 -0.2
v 1 2.2 -0.2
v 1 2.4 -0.2
v 1 2.6 -0.2
v 1 3.4 -0.2
v 1 3.6 -0.2
v 1 3.8 -0.2
v 1.1 2.4 -0.2
v 1.1 2.6 -0.2
v 1.1 3.4 -0.2
v 1.1 3.6 -0.2
v 1.2 2.6 -0.2
v 1.2 3.4 -0.2
v -0.4 1.5 0.1
v 0.4 1.5 0.1
v -0.4 1.5 -0.1
v 0.4 1.5 -0.1
v -0.7 1.6 0.1
v -0.4 1.6 0.1
v 0.4 1.6 0.1
v 0.7 1.6 0.1
v -0.7 1.6 -0.1
v -0.4 1.6 -0.1
v 0.4 1.6 -0.1
v 0.7 1.6 -0.1
v -0.9 1.7 0.1
v -0.7 1.7 0.1
v 0.7 1.7 0.1
v 0.9 1.7 0.1
v -0.9 1.7 -0.1
v -0.7 1.7 -0.1
v 0.7 1.7 -0.1
v 0.9 1.7 -0.1
v -0.4 1.8 0.2
v 0.4 1.8 0.2
v -1 1.8 0.1
v -0.9 1.8 0.1
v -0.4 1.8 0.1
v 0.4 1.8 0.1
v 0.9 1.8 0.1
v 1 1.8 0.1
v -1 1.8 -0.1
v -0.9 1.8 -0.1
v -0.4 1.8 -0.1
v 0.4 1.8 -0.1
v 0.9 1.8 -0.1
v 1 1.8 -0.1
v -0.4 1.8 -0.2
v 0.4 1.8 -0.2
v -0.6 1.9 0.2
v -0.4 1.9 0.2
v 0.4 1.9 0.2
v 0.6 1.9 0.2
v -1.1 1.9 0.1
v -1 1.9 0.1
v -0.6 1.9 0.1
v -0.4 1.9 0.1
v 0.4 1.9 0.1
v 0.6 1.9 0.1
v 1 1.9 0.1
v 1.1 1.9 0.1
v -1.1 1.9 -0.1
v -1 1.9 -0.1
v -0.6 1.9 -0.1
v -0.4 1.9 -0.1
v 0.4 1.9 -0.1
v 0.6 1.9 -0.1
v 1 1.9 -0.1
v 1.1 1.9 -0.1
v -0.6 1.9 -0.2
v -0.4 1.9 -0.2
v 0.4 1.9 -0.2
v 0.6 1.9 -0.2
v -0.8 2 0.2
v -0.6 2 0.2
v 0.6 2 0.2
v 0.8 2 0.2
v -1.2 2 0.1
v -1.1 2 0.1
v -0.8 2 0.1
v -0.6 2 0.1
v 0.6 2 0.1
v 0.8 2 0.1
v 1.1 2 0.1
v 1.2 2 0.1
v -1.2 2 -0.1
v -1.1 2 -0.1
v -0.8 2 -0.1
v -0.6 2 -0.1
v 0.6 2 -0.1
v 0.8 2 -0.1
v 1.1 2 -0.1
v 1.2 2 -0.1
v -0.8 2 -0.2
v -0.6 2 -0.2
v 0.6 2 -0.2
v 0.8 2 -0.2
v -0.9 2.1 0.2
v -0.8 2.1 0.2
v 0.8 2.1 0.2
v 0.9 2.1 0.2
v -1.3 2.1 0.1
v -1.2 2.1 0.1
v -0.9 2.1 0.1
v -0.8 2.1 0.1
v 0.8 2.1 0.1
v 0.9 2.1 0.1
v 1.2 2.1 0.1
v 1.3 2.1 0.1
v -1.3 2.1 -0.1
v -1.2 2.1 -0.1
v -0.9 2.1 -0.1
v -0.8 2.1 -0.1
v 0.8 2.1 -0.1
v 0.9 2.1 -0.1
v 1.2 2.1 -0.1
v 1.3 2.1 -0.1
v -0.9 2.1 -0.2
v -0.8 2.1 -0.2
v 0.8 2.1 -0.2
v 0.9 2.1 -0.2
v -1 2.2 0.2
v -0.9 2.2 0.2
v 0.9 2.2 0.2
v 1 2.2 0.2
v -1 2.2 0.1
v -0.9 2.2 0.1
v 0.9 2.2 0.1
v 1 2.2 0.1
v -1 2.2 -0.1
v -0.9 2.2 -0.1
v 0.9 2.2 -0.1
v 1 2.2 -0.1
v -1 2.2 -0.2
v -0.9 2.2 -0.2
v 0.9 2.2 -0.2
v 1 2.2 -0.2
v -1.4 2.3 0.1
v -1.3 2.3 0.1
v 1.3 2.3 0.1
v 1.4 2.3 0.1
v -1.4 2.3 -0.1
v -1.3 2.3 -0.1
v 1.3 2.3 -0.1
v 1.4 2.3 -0.1
v -1.1 2.4 0.2
v -1 2.4 0.2
v 1 2.4 0.2
v 1.1 2.4 0.2
v -1.1 2.4 0.1
v -1 2.4 0.1
v 1 2.4 0.1
v 1.1 2.4 0.1
v -1.1 2.4 -0.1
v -1 2.4 -0.1
v 1 2.4 -0.1
v 1.1 2.4 -0.1
v -1.1 2.4 -0.2
v -1 2.4 -0.2
v 1 2.4 -0.2
v 1.1 2.4 -0.2
v -1.2 2.6 0.2
v -1.1 2.6 0.2
v 1.1 2.6 0.2
v 1.2 2.6 0.2
v -1.5 2.6 0.1
v -1.4 2.6 0.1
v -1.2 2.6 0.1
v -1.1 2.6 0.1
v 1.1 2.6 0.1
v 1.2 2.6 0.1
v 1.4 2.6 0.1
v 1.5 2.6 0.1
v -1.5 2.6 -0.1
v -1.4 2.6 -0.1
v -1.2 2.6 -0.1
v -1.1 2.6 -0.1
v 1.1 2.6 -0.1
v 1.2 2.6 -0.1
v 1.4 2.6 -0.1
v 1.5 2.6 -0.1
v -1.2 2.6 -0.2
v -1.1 2.6 -0.2
v 1.1 2.6 -0.2
v 1.2 2.6 -0.2
v -1 3.4 0.2
v -0.9 3.4 0.2
v 0.9 3.4 0.2
v 1 3.4 0.2
v -1 3.4 -0.2
v -0.9 3.4 -0.2
v 0.9 3.4 -0.2
v 1 3.4 -0.2
v -0.9 3.6 0.2
v -0.8 3.6 0.2
v 0.8 3.6 0.2
v 0.9 3.6 0.2
v -0.9 3.6 -0.2
v -0.8 3.6 -0.2
v 0.8 3.6 -0.2
v 0.9 3.6 -0.2
v -0.8 3.7 0.2
v -0.7 3.7 0.2
v 0.7 3.7 0.2
v 0.8 3.7 0.2
v -0.8 3.7 -0.2
v -0.7 3.7 -0.2
v 0.7 3.7 -0.2
v 0.8 3.7 -0.2
v -0.7 3.8 0.2
v -0.6 3.8 0.2
v 0.6 3.8 0.2
v 0.7 3.8 0.2
v -0.7 3.8 -0.2
v -0.6 3.8 -0.2
v 0.6 3.8 -0.2
v 0.7 3.8 -0.2
v -0.6 3.9 0.2
v -0.4 3.9 0.2
v 0.4 3.9 0.2
v 0.6 3.9 0.2
v -0.6 3.9 -0.2
v -0.4 3.9 -0.2
v 0.4 3.9 -0.2
v 0.6 3.9 -0.2
v -0.4 4 0.2
v 0.4 4 0.2
v -0.4 4 -0.2
v 0.4 4 -0.2
v -0.4 2 0.2
v 0.4 2 0.2
v -0.4 2 -0.2
v 0.4 2 -0.2
v -0.6 2.1 0.2
v -0.4 2.1 0.2
v 0.4 2.1 0.2
v 0.6 2.1 0.2
v -0.6 2.1 -0.2
v -0.4 2.1 -0.2
v 0.4 2.1 -0.2
v 0.6 2.1 -0.2
v -0.7 2.2 0.2
v -0.6 2.2 0.2
v 0.6 2.2 0.2
v 0.7 2.2 0.2
v -0.7 2.2 -0.2
v -0.6 2.2 -0.2
v 0.6 2.2 -0.2
v 0.7 2.2 -0.2
v -0.8 2.3 0.2
v -0.7 2.3 0.2
v 0.7 2.3 0.2
v 0.8 2.3 0.2
v -0.8 2.3 -0.2
v -0.7 2.3 -0.2
v 0.7 2.3 -0.2
v 0.8 2.3 -0.2
v -0.9 2.4 0.2
v -0.8 2.4 0.2
v 0.8 2.4 0.2
v 0.9 2.4 0.2
v -0.9 2.4 -0.2
v -0.8 2.4 -0.2
v 0.8 2.4 -0.2
v 0.9 2.4 -0.2
v -1 2.6 0.2
v -0.9 2.6 0.2
v 0.9 2.6 0.2
v 1 2.6 0.2
v -1 2.6 -0.2
v -0.9 2.6 -0.2
v 0.9 2.6 -0.2
v 1 2.6 -0.2
v -1.2 3.4 0.2
v -1.1 3.4 0.2
v 1.1 3.4 0.2
v 1.2 3.4 0.2
v -1.5 3.4 0.1
v -1.4 3.4 0.1
v -1.2 3.4 0.1
v -1.1 3.4 0.1
v 1.1 3.4 0.1
v 1.2 3.4 0.1
v 1.4 3.4 0.1
v 1.5 3.4 0.1
v -1.5 3.4 -0.1
v -1.4 3.4 -0.1
v -1.2 3.4 -0.1
v -1.1 3.4 -0.1
v 1.1 3.4 -0.1
v 1.2 3.4 -0.1
v 1.4 3.4 -0.1
v 1.5 3.4 -0.1
v -1.2 3.4 -0.2
v -1.1 3.4 -0.2
v 1.1 3.4 -0.2
v 1.2 3.4 -0.2
v -1.1 3.6 0.2
v -1 3.6 0.2
v 1 3.6 0.2
v 1.1 3.6 0.2
v -1.1 3.6 0.1
v -1 3.6 0.1
v 1 3.6 0.1
v 1.1 3.6 0.1
v -1.1 3.6 -0.1
v -1 3.6 -0.1
v 1 3.6 -0.1
v 1.1 3.6 -0.1
v -1.1 3.6 -0.2
v -1 3.6 -0.2
v 1 3.6 -0.2
v 1.1 3.6 -0.2
v -1.4 3.7 0.1
v -1.3 3.7 0.1
v 1.3 3.7 0.1
v 1.4 3.7 0.1
v -1.4 3.7 -0.1
v -1.3 3.7 -0.1
v 1.3 3.7 -0.1
v 1.4 3.7 -0.1
v -1 3.8 0.2
v -0.9 3.8 0.2
v 0.9 3.8 0.2
v 1 3.8 0.2
v -1 3.8 0.1
v -0.9 3.8 0.1
v 0.9 3.8 0.1
v 1 3.8 0.1
v -1 3.8 -0.1
v -0.9 3.8 -0.1
v 0.9 3.8 -0.1
v 1 3.8 -0.1
v -1 3.8 -0.2
v -0.9 3.8 -0.2
v 0.9 3.8 -0.2
v 1 3.8 -0.2
v -0.9 3.9 0.2
v -0.8 3.9 0.2
v 0.8 3.9 0.2
v 0.9 3.9 0.2
v -1.3 3.9 0.1
v -1.2 3.9 0.1
v -0.9 3.9 0.1
v -0.8 3.9 0.1
v 0.8 3.9 0.1
v 0.9 3.9 0.1
v 1.2 3.9 0.1
v 1.3 3.9 0.1
v -1.3 3.9 -0.1
v -1.2 3.9 -0.1
v -0.9 3.9 -0.1
v -0.8 3.9 -0.1
v 0.8 3.9 -0.1
v 0.9 3.9 -0.1
v 1.2 3.9 -0.1
v 1.3 3.9 -0.1
v -0.9 3.9 -0.2
v -0.8 3.9 -0.2
v 0.8 3.9 -0.2
v 0.9 3.9 -0.2
v -0.8 4 0.2
v -0.6 4 0.2
v 0.6 4 0.2
v 0.8 4 0.2
v -1.2 4 0.1
v -1.1 4 0.1
v -0.8 4 0.1
v -0.6 4 0.1
v 0.6 4 0.1
v 0.8 4 0.1
v 1.1 4 0.1
v 1.2 4 0.1
v -1.2 4 -0.1
v -1.1 4 -0.1
v -0.8 4 -0.1
v -0.6 4 -0.1
v 0.6 4 -0.1
v 0.8 4 -0.1
v 1.1 4 -0.1
v 1.2 4 -0.1
v -0.8 4 -0.2
v -0.6 4 -0.2
v 0.6 4 -0.2
v 0.8 4 -0.2
v -0.6 4.1 0.2
v -0.4 4.1 0.2
v 0.4 4.1 0.2
v 0.6 4.1 0.2
v -1.1 4.1 0.1
v -1 4.1 0.1
v -0.6 4.1 0.1
v -0.4 4.1 0.1
v 0.4 4.1 0.1
v 0.6 4.1 0.1
v 1 4.1 0.1
v 1.1 4.1 0.1
v -1.1 4.1 -0.1
v -1 4.1 -0.1
v -0.6 4.1 -0.1
v -0.4 4.1 -0.1
v 0.4 4.1 -0.1
v 0.6 4.1 -0.1
v 1 4.1 -0.1
v 1.1 4.1 -0.1
v -0.6 4.1 -0.2
v -0.4 4.1 -0.2
v 0.4 4.1 -0.2
v 0.6 4.1 -0.2
v -0.4 4.2 0.2
v 0.4 4.2 0.2
v -1 4.2 0.1
v -0.9 4.2 0.1
v -0.4 4.2 0.1
v 0.4 4.2 0.1
v 0.9 4.2 0.1
v 1 4.2 0.1
v -1 4.2 -0.1
v -0.9 4.2 -0.1
v -0.4 4.2 -0.1
v 0.4 4.2 -0.1
v 0.9 4.2 -0.1
v 1 4.2 -0.1
v -0.4 4.2 -0.2
v 0.4 4.2 -0.2
v -0.9 4.3 0.1
v -0.7 4.3 0.1
v 0.7 4.3 0.1
v 0.9 4.3 0.1
v -0.9 4.3 -0.1
v -0.7 4.3 -0.1
v 0.7 4.3 -0.1
v 0.9 4.3 -0.1
v -0.7 4.4 0.1
v -0.4 4.4 0.1
v 0.4 4.4 0.1
v 0.7 4.4 0.1
v -0.7 4.4 -0.1
v -0.4 4.4 -0.1
v 0.4 4.4 -0.1
v 0.7 4.4 -0.1
v -0.4 4.5 0.1
v 0.4 4.5 0.1
v -0.4 4.5 -0.1
v 0.4 4.5 -0.1

# faces
f 3/2/1 2/2/1 1/2/1
f 4/2/1 2/2/1 3/2/1
f 7/2/1 6/2/1 5/2/1
f 8/2/1 6/2/1 7/2/1
f 11/2/1 10/2/1 9/2/1
f 12/2/1 10/2/1 11/2/1
f 15/2/1 14/2/1 13/2/1
f 16/2/1 14/2/1 15/2/1
f 19/2/1 18/2/1 17/2/1
f 20/2/1 18/2/1 19/2/1
f 23/2/1 22/2/1 21/2/1
f 24/2/1 22/2/1 23/2/1
f 29/1/1 26/1/1 25/1/1
f 30/1/1 26/1/1 29/1/1
f 31/1/1 28/1/1 27/1/1
f 32/1/1 28/1/1 31/1/1
f 35/2/1 34/2/1 33/2/1
f 36/2/1 34/2/1 35/2/1
f 39/2/1 38/2/1 37/2/1
f 40/2/1 38/2/1 39/2/1
f 45/1/1 42/1/1 41/1/1
f 46/1/1 42/1/1 45/1/1
f 47/1/1 44/1/1 43/1/1
f 48/1/1 44/1/1 47/1/1
f 53/1/1 50/1/1 49/1/1
f 54/1/1 50/1/1 53/1/1
f 55/1/1 52/1/1 51/1/1
f 56/1/1 52/1/1 55/1/1
f 59/2/1 58/2/1 57/2/1
f 60/2/1 58/2/1 59/2/1
f 63/2/1 62/2/1 61/2/1
f 64/2/1 62/2/1 63/2/1
f 69/1/1 66/1/1 65/1/1
f 70/1/1 66/1/1 69/1/1
f 71/1/1 68/1/1 67/1/1
f 72/1/1 68/1/1 71/1/1
f 77/1/1 74/1/1 73/1/1
f 78/1/1 74/1/1 77/1/1
f 79/1/1 76/1/1 75/1/1
f 80/1/1 76/1/1 79/1/1
f 83/2/1 82/2/1 81/2/1
f 84/2/1 82/2/1 83/2/1
f 87/2/1 86/2/1 85/2/1
f 88/2/1 86/2/1 87/2/1
f 93/1/1 90/1/1 89/1/1
f 94/1/1 90/1/1 93/1/1
f 95/1/1 92/1/1 91/1/1
f 96/1/1 92/1/1 95/1/1
f 101/1/1 98/1/1 97/1/1
f 102/1/1 98/1/1 101/1/1
f 103/1/1 100/1/1 99/1/1
f 104/1/1 100/1/1 103/1/1
f 107/2/1 106/2/1 105/2/1
f 108/2/1 106/2/1 107/2/1
f 113/1/1 110/1/1 109/1/1
f 114/1/1 110/1/1 113/1/1
f 115/1/1 112/1/1 111/1/1
f 116/1/1 112/1/1 115/1/1
f 121/1/1 118/1/1 117/1/1
f 122/1/1 118/1/1 121/1/1
f 123/1/1 120/1/1 119/1/1
f 124/1/1 120/1/1 123/1/1
f 127/2/1 126/2/1 125/2/1
f 128/2/1 126/2/1 127/2/1
f 131/2/1 130/2/1 129/2/1
f 132/2/1 130/2/1 131/2/1
f 137/1/1 134/1/1 133/1/1
f 138/1/1 134/1/1 137/1/1
f 139/1/1 136/1/1 135/1/1
f 140/1/1 136/1/1 139/1/1
f 145/1/1 142/1/1 141/1/1
f 146/1/1 142/1/1 145/1/1
f 147/1/1 144/1/1 143/1/1
f 148/1/1 144/1/1 147/1/1
f 151/2/1 150/2/1 149/2/1
f 152/2/1 150/2/1 151/2/1
f 157/1/1 154/1/1 153/1/1
f 158/1/1 154/1/1 157/1/1
f 159/1/1 156/1/1 155/1/1
f 160/1/1 156/1/1 159/1/1
f 165/1/1 162/1/1 161/1/1
f 166/1/1 162/1/1 165/1/1
f 167/1/1 164/1/1 163/1/1
f 168/1/1 164/1/1 167/1/1
f 171/2/1 170/2/1 169/2/1
f 172/2/1 170/2/1 171/2/1
f 175/1/1 174/1/1 173/1/1
f 176/1/1 174/1/1 175/1/1
f 179/1/1 178/1/1 177/1/1
f 180/1/1 178/1/1 179/1/1
f 183/1/1 182/1/1 181/1/1
f 184/1/1 182/1/1 183/1/1
f 187/1/1 186/1/1 185/1/1
f 188/1/1 186/1/1 187/1/1
f 191/1/1 190/1/1 189/1/1
f 192/1/1 190/1/1 191/1/1
f 195/1/1 194/1/1 193/1/1
f 196/1/1 194/1/1 195/1/1
f 199/1/1 198/1/1 197/1/1
f 200/1/1 198/1/1 199/1/1
f 203/1/1 202/1/1 201/1/1
f 204/1/1 202/1/1 203/1/1
f 207/1/1 206/1/1 205/1/1
f 208/1/1 206/1/1 207/1/1
f 211/1/1 210/1/1 209/1/1
f 212/1/1 210/1/1 211/1/1
f 215/1/1 214/1/1 213/1/1
f 216/1/1 214/1/1 215/1/1
f 217/1/2 218/1/2 219/1/2
f 219/1/2 218/1/2 220/1/2
f 221/1/2 222/1/2 223/1/2
f 223/1/2 222/1/2 224/1/2
f 225/1/2 226/1/2 227/1/2
f 227/1/2 226/1/2 228/1/2
f 229/1/2 230/1/2 231/1/2
f 231/1/2 230/1/2 232/1/2
f 233/1/2 234/1/2 235/1/2
f 235/1/2 234/1/2 236/1/2
f 237/1/2 238/1/2 239/1/2
f 239/1/2 238/1/2 240/1/2
f 241/1/2 242/1/2 243/1/2
f 243/1/2 242/1/2 244/1/2
f 245/1/2 246/1/2 247/1/2
f 247/1/2 246/1/2 248/1/2
f 249/1/2 250/1/2 251/1/2
f 251/1/2 250/1/2 252/1/2
f 253/1/2 254/1/2 255/1/2
f 255/1/2 254/1/2 256/1/2
f 257/1/2 258/1/2 259/1/2
f 259/1/2 258/1/2 260/1/2
f 261/2/2 262/2/2 263/2/2
f 263/2/2 262/2/2 264/2/2
f 265/1/2 266/1/2 269/1/2
f 269/1/2 266/1/2 270/1/2
f 267/1/2 268/1/2 271/1/2
f 271/1/2 268/1/2 272/1/2
f 273/1/2 274/1/2 277/1/2
f 277/1/2 274/1/2 278/1/2
f 275/1/2 276/1/2 279/1/2
f 279/1/2 276/1/2 280/1/2
f 281/2/2 282/2/2 283/2/2
f 283/2/2 282/2/2 284/2/2
f 285/1/2 286/1/2 289/1/2
f 289/1/2 286/1/2 290/1/2
f 287/1/2 288/1/2 291/1/2
f 291/1/2 288/1/2 292/1/2
f 293/1/2 294/1/2 297/1/2
f 297/1/2 294/1/2 298/1/2
f 295/1/2 296/1/2 299/1/2
f 299/1/2 296/1/2 300/1/2
f 301/2/2 302/2/2 303/2/2
f 303/2/2 302/2/2 304/2/2
f 305/2/2 306/2/2 307/2/2
f 307/2/2 306/2/2 308/2/2
f 309/1/2 310/1/2 313/1/2
f 313/1/2 310/1/2 314/1/2
f 311/1/2 312/1/2 315/1/2
f 315/1/2 312/1/2 316/1/2
f 317/1/2 318/1/2 321/1/2
f 321/1/2 318/1/2 322/1/2
f 319/1/2 320/1/2 323/1/2
f 323/1/2 320/1/2 324/1/2
f 325/2/2 326/2/2 327/2/2
f 327/2/2 326/2/2 328/2/2
f 329/1/2 330/1/2 333/1/2
f 333/1/2 330/1/2 334/1/2
f 331/1/2 332/1/2 335/1/2
f 335/1/2 332/1/2 336/1/2
f 337/1/2 338/1/2 341/1/2
f 341/1/2 338/1/2 342/1/2
f 339/1/2 340/1/2 343/1/2
f 343/1/2 340/1/2 344/1/2
f 345/2/2 346/2/2 347/2/2
f 347/2/2 346/2/2 348/2/2
f 349/2/2 350/2/2 351/2/2
f 351/2/2 350/2/2 352/2/2
f 353/1/2 354/1/2 357/1/2
f 357/1/2 354/1/2 358/1/2
f 355/1/2 356/1/2 359/1/2
f 359/1/2 356/1/2 360/1/2
f 361/1/2 362/1/2 365/1/2
f 365/1/2 362/1/2 366/1/2
f 363/1/2 364/1/2 367/1/2
f 367/1/2 364/1/2 368/1/2
f 369/2/2 370/2/2 371/2/2
f 371/2/2 370/2/2 372/2/2
f 373/2/2 374/2/2 375/2/2
f 375/2/2 374/2/2 376/2/2
f 377/1/2 378/1/2 381/1/2
f 381/1/2 378/1/2 382/1/2
f 379/1/2 380/1/2 383/1/2
f 383/1/2 380/1/2 384/1/2
f 385/1/2 386/1/2 389/1/2
f 389/1/2 386/1/2 390/1/2
f 387/1/2 388/1/2 391/1/2
f 391/1/2 388/1/2 392/1/2
f 393/2/2 394/2/2 395/2/2
f 395/2/2 394/2/2 396/2/2
f 397/2/2 398/2/2 399/2/2
f 399/2/2 398/2/2 400/2/2
f 401/1/2 402/1/2 405/1/2
f 405/1/2 402/1/2 406/1/2
f 403/1/2 404/1/2 407/1/2
f 407/1/2 404/1/2 408/1/2
f 409/2/2 410/2/2 411/2/2
f 411/2/2 410/2/2 412/2/2
f 413/2/2 414/2/2 415/2/2
f 415/2/2 414/2/2 416/2/2
f 417/2/2 418/2/2 419/2/2
f 419/2/2 418/2/2 420/2/2
f 421/2/2 422/2/2 423/2/2
f 423/2/2 422/2/2 424/2/2
f 425/2/2 426/2/2 427/2/2
f 427/2/2 426/2/2 428/2/2
f 429/2/2 430/2/2 431/2/2
f 431/2/2 430/2/2 432/2/2
f 436/1/3 434/1/3 433/1/3
f 437/1/3 434/1/3 436/1/3
f 440/1/3 436/1/3 435/1/3
f 440/1/3 438/1/3 437/1/3
f 440/1/3 437/1/3 436/1/3
f 441/1/3 438/1/3 440/1/3
f 442/1/3 438/1/3 441/1/3
f 443/1/3 438/1/3 442/1/3
f 446/1/3 440/1/3 439/1/3
f 446/1/3 441/1/3 440/1/3
f 447/1/3 441/1/3 446/1/3
f 448/1/3 441/1/3 447/1/3
f 449/1/3 443/1/3 442/1/3
f 449/1/3 444/1/3 443/1/3
f 450/1/3 444/1/3 449/1/3
f 451/1/3 444/1/3 450/1/3
f 454/1/3 447/1/3 446/1/3
f 454/1/3 446/1/3 445/1/3
f 455/1/3 447/1/3 454/1/3
f 456/1/3 447/1/3 455/1/3
f 457/1/3 452/1/3 451/1/3
f 457/1/3 451/1/3 450/1/3
f 458/1/3 452/1/3 457/1/3
f 459/1/3 452/1/3 458/1/3
f 461/1/3 455/1/3 454/1/3
f 461/1/3 454/1/3 453/1/3
f 462/1/3 455/1/3 461/1/3
f 463/1/3 460/1/3 459/1/3
f 463/1/3 459/1/3 458/1/3
f 464/1/3 460/1/3 463/1/3
f 466/1/3 461/1/3 453/1/3
f 467/1/3 461/1/3 466/1/3
f 468/1/3 461/1/3 467/1/3
f 469/1/3 460/1/3 464/1/3
f 470/1/3 460/1/3 469/1/3
f 471/1/3 460/1/3 470/1/3
f 474/1/3 466/1/3 465/1/3
f 474/1/3 467/1/3 466/1/3
f 475/1/3 467/1/3 474/1/3
f 476/1/3 467/1/3 475/1/3
f 477/1/3 472/1/3 471/1/3
f 477/1/3 471/1/3 470/1/3
f 478/1/3 472/1/3 477/1/3
f 479/1/3 472/1/3 478/1/3
f 481/1/3 475/1/3 474/1/3
f 481/1/3 474/1/3 473/1/3
f 482/1/3 475/1/3 481/1/3
f 483/1/3 475/1/3 482/1/3
f 486/1/3 480/1/3 479/1/3
f 486/1/3 479/1/3 478/1/3
f 487/1/3 480/1/3 486/1/3
f 488/1/3 480/1/3 487/1/3
f 489/1/3 484/1/3 483/1/3
f 489/1/3 483/1/3 482/1/3
f 490/1/3 484/1/3 489/1/3
f 491/1/3 484/1/3 490/1/3
f 494/1/3 487/1/3 486/1/3
f 494/1/3 486/1/3 485/1/3
f 495/1/3 487/1/3 494/1/3
f 496/1/3 487/1/3 495/1/3
f 497/1/3 492/1/3 491/1/3
f 497/1/3 491/1/3 490/1/3
f 500/1/3 495/1/3 494/1/3
f 500/1/3 494/1/3 493/1/3
f 501/1/3 498/1/3 497/1/3
f 501/1/3 497/1/3 490/1/3
f 502/1/3 498/1/3 501/1/3
f 503/1/3 498/1/3 502/1/3
f 506/1/3 500/1/3 499/1/3
f 507/1/3 495/1/3 500/1/3
f 507/1/3 500/1/3 506/1/3
f 508/1/3 495/1/3 507/1/3
f 509/1/3 504/1/3 503/1/3
f 509/1/3 503/1/3 502/1/3
f 510/1/3 504/1/3 509/1/3
f 511/1/3 504/1/3 510/1/3
f 514/1/3 506/1/3 505/1/3
f 514/1/3 507/1/3 506/1/3
f 515/1/3 507/1/3 514/1/3
f 516/1/3 507/1/3 515/1/3
f 517/1/3 512/1/3 511/1/3
f 517/1/3 511/1/3 510/1/3
f 518/1/3 512/1/3 517/1/3
f 519/1/3 512/1/3 518/1/3
f 520/1/3 515/1/3 514/1/3
f 520/1/3 514/1/3 513/1/3
f 521/1/3 515/1/3 520/1/3
f 522/1/3 515/1/3 521/1/3
f 523/1/3 519/1/3 518/1/3
f 523/1/3 521/1/3 520/1/3
f 523/1/3 520/1/3 519/1/3
f 524/1/3 521/1/3 523/1/3
f 525/1/3 521/1/3 524/1/3
f 526/1/3 521/1/3 525/1/3
f 527/1/3 525/1/3 524/1/3
f 528/1/3 525/1/3 527/1/3
f 532/2/3 530/2/3 529/2/3
f 533/2/3 530/2/3 532/2/3
f 536/2/3 532/2/3 531/2/3
f 536/2/3 534/2/3 533/2/3
f 536/2/3 533/2/3 532/2/3
f 537/2/3 534/2/3 536/2/3
f 540/2/3 536/2/3 535/2/3
f 540/2/3 538/2/3 537/2/3
f 540/2/3 537/2/3 536/2/3
f 541/2/3 538/2/3 540/2/3
f 542/2/3 538/2/3 541/2/3
f 543/2/3 538/2/3 542/2/3
f 546/2/3 540/2/3 539/2/3
f 546/2/3 541/2/3 540/2/3
f 547/2/3 541/2/3 546/2/3
f 548/2/3 541/2/3 547/2/3
f 549/2/3 543/2/3 542/2/3
f 549/2/3 544/2/3 543/2/3
f 550/2/3 544/2/3 549/2/3
f 551/2/3 544/2/3 550/2/3
f 554/2/3 547/2/3 546/2/3
f 554/2/3 546/2/3 545/2/3
f 555/2/3 547/2/3 554/2/3
f 556/2/3 547/2/3 555/2/3
f 557/2/3 552/2/3 551/2/3
f 557/2/3 551/2/3 550/2/3
f 558/2/3 552/2/3 557/2/3
f 559/2/3 552/2/3 558/2/3
f 562/2/3 555/2/3 554/2/3
f 562/2/3 554/2/3 553/2/3
f 563/2/3 555/2/3 562/2/3
f 564/2/3 555/2/3 563/2/3
f 565/2/3 560/2/3 559/2/3
f 565/2/3 559/2/3 558/2/3
f 566/2/3 560/2/3 565/2/3
f 567/2/3 560/2/3 566/2/3
f 569/2/3 563/2/3 562/2/3
f 569/2/3 562/2/3 561/2/3
f 570/2/3 563/2/3 569/2/3
f 571/2/3 568/2/3 567/2/3
f 571/2/3 567/2/3 566/2/3
f 572/2/3 568/2/3 571/2/3
f 574/2/3 569/2/3 561/2/3
f 575/2/3 568/2/3 572/2/3
f 577/2/3 574/2/3 573/2/3
f 577/2/3 569/2/3 574/2/3
f 578/2/3 569/2/3 577/2/3
f 579/2/3 576/2/3 575/2/3
f 579/2/3 575/2/3 572/2/3
f 580/2/3 576/2/3 579/2/3
f 582/2/3 577/2/3 573/2/3
f 583/2/3 577/2/3 582/2/3
f 584/2/3 577/2/3 583/2/3
f 585/2/3 576/2/3 580/2/3
f 586/2/3 576/2/3 585/2/3
f 587/2/3 576/2/3 586/2/3
f 589/2/3 582/2/3 581/2/3
f 589/2/3 583/2/3 582/2/3
f 590/2/3 583/2/3 589/2/3
f 591/2/3 583/2/3 590/2/3
f 594/2/3 588/2/3 587/2/3
f 594/2/3 587/2/3 586/2/3
f 595/2/3 588/2/3 594/2/3
f 596/2/3 588/2/3 595/2/3
f 597/2/3 592/2/3 591/2/3
f 597/2/3 591/2/3 590/2/3
f 600/2/3 595/2/3 594/2/3
f 600/2/3 594/2/3 593/2/3
f 601/2/3 598/2/3 597/2/3
f 601/2/3 597/2/3 590/2/3
f 602/2/3 598/2/3 601/2/3
f 603/2/3 600/2/3 599/2/3
f 603/2/3 595/2/3 600/2/3
f 604/2/3 595/2/3 603/2/3
f 605/2/3 598/2/3 602/2/3
f 608/2/3 603/2/3 599/2/3
f 609/2/3 606/2/3 605/2/3
f 609/2/3 605/2/3 602/2/3
f 610/2/3 606/2/3 609/2/3
f 611/2/3 606/2/3 610/2/3
f 614/2/3 608/2/3 607/2/3
f 615/2/3 603/2/3 608/2/3
f 615/2/3 608/2/3 614/2/3
f 616/2/3 603/2/3 615/2/3
f 617/2/3 612/2/3 611/2/3
f 617/2/3 611/2/3 610/2/3
f 618/2/3 612/2/3 617/2/3
f 619/2/3 612/2/3 618/2/3
f 622/2/3 614/2/3 613/2/3
f 622/2/3 615/2/3 614/2/3
f 623/2/3 615/2/3 622/2/3
f 624/2/3 615/2/3 623/2/3
f 625/2/3 620/2/3 619/2/3
f 625/2/3 619/2/3 618/2/3
f 626/2/3 620/2/3 625/2/3
f 627/2/3 620/2/3 626/2/3
f 630/2/3 623/2/3 622/2/3
f 630/2/3 622/2/3 621/2/3
f 631/2/3 623/2/3 630/2/3
f 632/2/3 623/2/3 631/2/3
f 633/2/3 628/2/3 627/2/3
f 633/2/3 627/2/3 626/2/3
f 634/2/3 628/2/3 633/2/3
f 635/2/3 628/2/3 634/2/3
f 636/2/3 631/2/3 630/2/3
f 636/2/3 630/2/3 629/2/3
f 637/2/3 631/2/3 636/2/3
f 638/2/3 631/2/3 637/2/3
f 639/2/3 635/2/3 634/2/3
f 639/2/3 637/2/3 636/2/3
f 639/2/3 636/2/3 635/2/3
f 640/2/3 637/2/3 639/2/3
f 641/2/3 637/2/3 640/2/3
f 642/2/3 637/2/3 641/2/3
f 643/2/3 641/2/3 640/2/3
f 644/2/3 641/2/3 643/2/3
f 645/2/3 641/2/3 644/2/3
f 646/2/3 641/2/3 645/2/3
f 647/2/3 645/2/3 644/2/3
f 648/2/3 645/2/3 647/2/3
f 649/2/4 650/2/4 652/2/4
f 652/2/4 650/2/4 653/2/4
f 651/2/4 652/2/4 656/2/4
f 653/2/4 654/2/4 656/2/4
f 652/2/4 653/2/4 656/2/4
f 656/2/4 654/2/4 657/2/4
f 655/2/4 656/2/4 660/2/4
f 657/2/4 658/2/4 660/2/4
f 656/2/4 657/2/4 660/2/4
f 660/2/4 658/2/4 661/2/4
f 661/2/4 658/2/4 662/2/4
f 662/2/4 658/2/4 663/2/4
f 659/2/4 660/2/4 666/2/4
f 660/2/4 661/2/4 666/2/4
f 666/2/4 661/2/4 667/2/4
f 667/2/4 661/2/4 668/2/4
f 662/2/4 663/2/4 669/2/4
f 663/2/4 664/2/4 669/2/4
f 669/2/4 664/2/4 670/2/4
f 670/2/4 664/2/4 671/2/4
f 666/2/4 667/2/4 674/2/4
f 665/2/4 666/2/4 674/2/4
f 674/2/4 667/2/4 675/2/4
f 675/2/4 667/2/4 676/2/4
f 671/2/4 672/2/4 677/2/4
f 670/2/4 671/2/4 677/2/4
f 677/2/4 672/2/4 678/2/4
f 678/2/4 672/2/4 679/2/4
f 674/2/4 675/2/4 682/2/4
f 673/2/4 674/2/4 682/2/4
f 682/2/4 675/2/4 683/2/4
f 683/2/4 675/2/4 684/2/4
f 679/2/4 680/2/4 685/2/4
f 678/2/4 679/2/4 685/2/4
f 685/2/4 680/2/4 686/2/4
f 686/2/4 680/2/4 687/2/4
f 682/2/4 683/2/4 689/2/4
f 681/2/4 682/2/4 689/2/4
f 689/2/4 683/2/4 690/2/4
f 687/2/4 688/2/4 691/2/4
f 686/2/4 687/2/4 691/2/4
f 691/2/4 688/2/4 692/2/4
f 681/2/4 689/2/4 694/2/4
f 692/2/4 688/2/4 695/2/4
f 693/2/4 694/2/4 697/2/4
f 694/2/4 689/2/4 697/2/4
f 697/2/4 689/2/4 698/2/4
f 695/2/4 696/2/4 699/2/4
f 692/2/4 695/2/4 699/2/4
f 699/2/4 696/2/4 700/2/4
f 693/2/4 697/2/4 702/2/4
f 702/2/4 697/2/4 703/2/4
f 703/2/4 697/2/4 704/2/4
f 700/2/4 696/2/4 705/2/4
f 705/2/4 696/2/4 706/2/4
f 706/2/4 696/2/4 707/2/4
f 701/2/4 702/2/4 709/2/4
f 702/2/4 703/2/4 709/2/4
f 709/2/4 703/2/4 710/2/4
f 710/2/4 703/2/4 711/2/4
f 707/2/4 708/2/4 714/2/4
f 706/2/4 707/2/4 714/2/4
f 714/2/4 708/2/4 715/2/4
f 715/2/4 708/2/4 716/2/4
f 711/2/4 712/2/4 717/2/4
f 710/2/4 711/2/4 717/2/4
f 714/2/4 715/2/4 720/2/4
f 713/2/4 714/2/4 720/2/4
f 717/2/4 718/2/4 721/2/4
f 710/2/4 717/2/4 721/2/4
f 721/2/4 718/2/4 722/2/4
f 719/2/4 720/2/4 723/2/4
f 720/2/4 715/2/4 723/2/4
f 723/2/4 715/2/4 724/2/4
f 722/2/4 718/2/4 725/2/4
f 719/2/4 723/2/4 728/2/4
f 725/2/4 726/2/4 729/2/4
f 722/2/4 725/2/4 729/2/4
f 729/2/4 726/2/4 730/2/4
f 730/2/4 726/2/4 731/2/4
f 727/2/4 728/2/4 734/2/4
f 728/2/4 723/2/4 735/2/4
f 734/2/4 728/2/4 735/2/4
f 735/2/4 723/2/4 736/2/4
f 731/2/4 732/2/4 737/2/4
f 730/2/4 731/2/4 737/2/4
f 737/2/4 732/2/4 738/2/4
f 738/2/4 732/2/4 739/2/4
f 733/2/4 734/2/4 742/2/4
f 734/2/4 735/2/4 742/2/4
f 742/2/4 735/2/4 743/2/4
f 743/2/4 735/2/4 744/2/4
f 739/2/4 740/2/4 745/2/4
f 738/2/4 739/2/4 745/2/4
f 745/2/4 740/2/4 746/2/4
f 746/2/4 740/2/4 747/2/4
f 742/2/4 743/2/4 750/2/4
f 741/2/4 742/2/4 750/2/4
f 750/2/4 743/2/4 751/2/4
f 751/2/4 743/2/4 752/2/4
f 747/2/4 748/2/4 753/2/4
f 746/2/4 747/2/4 753/2/4
f 753/2/4 748/2/4 754/2/4
f 754/2/4 748/2/4 755/2/4
f 750/2/4 751/2/4 756/2/4
f 749/2/4 750/2/4 756/2/4
f 756/2/4 751/2/4 757/2/4
f 757/2/4 751/2/4 758/2/4
f 754/2/4 755/2/4 759/2/4
f 756/2/4 757/2/4 759/2/4
f 755/2/4 756/2/4 759/2/4
f 759/2/4 757/2/4 760/2/4
f 760/2/4 757/2/4 761/2/4
f 761/2/4 757/2/4 762/2/4
f 760/2/4 761/2/4 763/2/4
f 763/2/4 761/2/4 764/2/4
f 764/2/4 761/2/4 765/2/4
f 765/2/4 761/2/4 766/2/4
f 764/2/4 765/2/4 767/2/4
f 767/2/4 765/2/4 768/2/4
f 769/1/4 770/1/4 772/1/4
f 772/1/4 770/1/4 773/1/4
f 771/1/4 772/1/4 776/1/4
f 773/1/4 774/1/4 776/1/4
f 772/1/4 773/1/4 776/1/4
f 776/1/4 774/1/4 777/1/4
f 777/1/4 774/1/4 778/1/4
f 778/1/4 774/1/4 779/1/4
f 775/1/4 776/1/4 782/1/4
f 776/1/4 777/1/4 782/1/4
f 782/1/4 777/1/4 783/1/4
f 783/1/4 777/1/4 784/1/4
f 778/1/4 779/1/4 785/1/4
f 779/1/4 780/1/4 785/1/4
f 785/1/4 780/1/4 786/1/4
f 786/1/4 780/1/4 787/1/4
f 782/1/4 783/1/4 790/1/4
f 781/1/4 782/1/4 790/1/4
f 790/1/4 783/1/4 791/1/4
f 791/1/4 783/1/4 792/1/4
f 787/1/4 788/1/4 793/1/4
f 786/1/4 787/1/4 793/1/4
f 793/1/4 788/1/4 794/1/4
f 794/1/4 788/1/4 795/1/4
f 790/1/4 791/1/4 797/1/4
f 789/1/4 790/1/4 797/1/4
f 797/1/4 791/1/4 798/1/4
f 795/1/4 796/1/4 799/1/4
f 794/1/4 795/1/4 799/1/4
f 799/1/4 796/1/4 800/1/4
f 789/1/4 797/1/4 802/1/4
f 802/1/4 797/1/4 803/1/4
f 803/1/4 797/1/4 804/1/4
f 800/1/4 796/1/4 805/1/4
f 805/1/4 796/1/4 806/1/4
f 806/1/4 796/1/4 807/1/4
f 801/1/4 802/1/4 810/1/4
f 802/1/4 803/1/4 810/1/4
f 810/1/4 803/1/4 811/1/4
f 811/1/4 803/1/4 812/1/4
f 807/1/4 808/1/4 813/1/4
f 806/1/4 807/1/4 813/1/4
f 813/1/4 808/1/4 814/1/4
f 814/1/4 808/1/4 815/1/4
f 810/1/4 811/1/4 817/1/4
f 809/1/4 810/1/4 817/1/4
f 817/1/4 811/1/4 818/1/4
f 818/1/4 811/1/4 819/1/4
f 815/1/4 816/1/4 822/1/4
f 814/1/4 815/1/4 822/1/4
f 822/1/4 816/1/4 823/1/4
f 823/1/4 816/1/4 824/1/4
f 819/1/4 820/1/4 825/1/4
f 818/1/4 819/1/4 825/1/4
f 825/1/4 820/1/4 826/1/4
f 826/1/4 820/1/4 827/1/4
f 822/1/4 823/1/4 830/1/4
f 821/1/4 822/1/4 830/1/4
f 830/1/4 823/1/4 831/1/4
f 831/1/4 823/1/4 832/1/4
f 827/1/4 828/1/4 833/1/4
f 826/1/4 827/1/4 833/1/4
f 830/1/4 831/1/4 836/1/4
f 829/1/4 830/1/4 836/1/4
f 833/1/4 834/1/4 837/1/4
f 826/1/4 833/1/4 837/1/4
f 837/1/4 834/1/4 838/1/4
f 838/1/4 834/1/4 839/1/4
f 835/1/4 836/1/4 842/1/4
f 836/1/4 831/1/4 843/1/4
f 842/1/4 836/1/4 843/1/4
f 843/1/4 831/1/4 844/1/4
f 839/1/4 840/1/4 845/1/4
f 838/1/4 839/1/4 845/1/4
f 845/1/4 840/1/4 846/1/4
f 846/1/4 840/1/4 847/1/4
f 841/1/4 842/1/4 850/1/4
f 842/1/4 843/1/4 850/1/4
f 850/1/4 843/1/4 851/1/4
f 851/1/4 843/1/4 852/1/4
f 847/1/4 848/1/4 853/1/4
f 846/1/4 847/1/4 853/1/4
f 853/1/4 848/1/4 854/1/4
f 854/1/4 848/1/4 855/1/4
f 850/1/4 851/1/4 856/1/4
f 849/1/4 850/1/4 856/1/4
f 856/1/4 851/1/4 857/1/4
f 857/1/4 851/1/4 858/1/4
f 854/1/4 855/1/4 859/1/4
f 856/1/4 857/1/4 859/1/4
f 855/1/4 856/1/4 859/1/4
f 859/1/4 857/1/4 860/1/4
f 860/1/4 857/1/4 861/1/4
f 861/1/4 857/1/4 862/1/4
f 860/1/4 861/1/4 863/1/4
f 863/1/4 861/1/4 864/1/4
f 867/2/5 866/2/5 865/2/5
f 868/2/5 866/2/5 867/2/5
f 873/2/5 870/2/5 869/2/5
f 874/2/5 870/2/5 873/2/5
f 875/2/5 872/2/5 871/2/5
f 876/2/5 872/2/5 875/2/5
f 881/2/5 878/2/5 877/2/5
f 882/2/5 878/2/5 881/2/5
f 883/2/5 880/2/5 879/2/5
f 884/2/5 880/2/5 883/2/5
f 889/1/5 886/1/5 885/1/5
f 890/1/5 886/1/5 889/1/5
f 893/2/5 888/2/5 887/2/5
f 894/2/5 888/2/5 893/2/5
f 897/2/5 892/2/5 891/2/5
f 898/2/5 892/2/5 897/2/5
f 899/1/5 896/1/5 895/1/5
f 900/1/5 896/1/5 899/1/5
f 907/1/5 902/1/5 901/1/5
f 908/1/5 902/1/5 907/1/5
f 909/1/5 904/1/5 903/1/5
f 910/1/5 904/1/5 909/1/5
f 913/2/5 906/2/5 905/2/5
f 914/2/5 906/2/5 913/2/5
f 919/2/5 912/2/5 911/2/5
f 920/2/5 912/2/5 919/2/5
f 921/1/5 916/1/5 915/1/5
f 922/1/5 916/1/5 921/1/5
f 923/1/5 918/1/5 917/1/5
f 924/1/5 918/1/5 923/1/5
f 931/1/5 926/1/5 925/1/5
f 932/1/5 926/1/5 931/1/5
f 933/1/5 928/1/5 927/1/5
f 934/1/5 928/1/5 933/1/5
f 937/2/5 930/2/5 929/2/5
f 938/2/5 930/2/5 937/2/5
f 943/2/5 936/2/5 935/2/5
f 944/2/5 936/2/5 943/2/5
f 945/1/5 940/1/5 939/1/5
f 946/1/5 940/1/5 945/1/5
f 947/1/5 942/1/5 941/1/5
f 948/1/5 942/1/5 947/1/5
f 955/1/5 950/1/5 949/1/5
f 956/1/5 950/1/5 955/1/5
f 957/1/5 952/1/5 951/1/5
f 958/1/5 952/1/5 957/1/5
f 961/2/5 954/2/5 953/2/5
f 962/2/5 954/2/5 961/2/5
f 967/2/5 960/2/5 959/2/5
f 968/2/5 960/2/5 967/2/5
f 969/1/5 964/1/5 963/1/5
f 970/1/5 964/1/5 969/1/5
f 971/1/5 966/1/5 965/1/5
f 972/1/5 966/1/5 971/1/5
f 977/1/5 974/1/5 973/1/5
f 978/1/5 974/1/5 977/1/5
f 979/1/5 976/1/5 975/1/5
f 980/1/5 976/1/5 979/1/5
f 985/1/5 982/1/5 981/1/5
f 986/1/5 982/1/5 985/1/5
f 987/1/5 984/1/5 983/1/5
f 988/1/5 984/1/5 987/1/5
f 993/2/5 990/2/5 989/2/5
f 994/2/5 990/2/5 993/2/5
f 995/2/5 992/2/5 991/2/5
f 996/2/5 992/2/5 995/2/5
f 1001/1/5 998/1/5 997/1/5
f 1002/1/5 998/1/5 1001/1/5
f 1003/1/5 1000/1/5 999/1/5
f 1004/1/5 1000/1/5 1003/1/5
f 1009/1/5 1006/1/5 1005/1/5
f 1010/1/5 1006/1/5 1009/1/5
f 1011/1/5 1008/1/5 1007/1/5
f 1012/1/5 1008/1/5 1011/1/5
f 1019/1/5 1014/1/5 1013/1/5
f 1020/1/5 1014/1/5 1019/1/5
f 1021/1/5 1016/1/5 1015/1/5
f 1022/1/5 1016/1/5 1021/1/5
f 1025/2/5 1018/2/5 1017/2/5
f 1026/2/5 1018/2/5 1025/2/5
f 1031/2/5 1024/2/5 1023/2/5
f 1032/2/5 1024/2/5 1031/2/5
f 1033/1/5 1028/1/5 1027/1/5
f 1034/1/5 1028/1/5 1033/1/5
f 1035/1/5 1030/1/5 1029/1/5
f 1036/1/5 1030/1/5 1035/1/5
f 1041/1/5 1038/1/5 1037/1/5
f 1042/1/5 1038/1/5 1041/1/5
f 1043/1/5 1040/1/5 1039/1/5
f 1044/1/5 1040/1/5 1043/1/5
f 1049/1/5 1046/1/5 1045/1/5
f 1050/1/5 1046/1/5 1049/1/5
f 1051/1/5 1048/1/5 1047/1/5
f 1052/1/5 1048/1/5 1051/1/5
f 1057/1/5 1054/1/5 1053/1/5
f 1058/1/5 1054/1/5 1057/1/5
f 1059/1/5 1056/1/5 1055/1/5
f 1060/1/5 1056/1/5 1059/1/5
f 1065/1/5 1062/1/5 1061/1/5
f 1066/1/5 1062/1/5 1065/1/5
f 1067/1/5 1064/1/5 1063/1/5
f 1068/1/5 1064/1/5 1067/1/5
f 1073/1/5 1070/1/5 1069/1/5
f 1074/1/5 1070/1/5 1073/1/5
f 1075/1/5 1072/1/5 1071/1/5
f 1076/1/5 1072/1/5 1075/1/5
f 1079/1/5 1078/1/5 1077/1/5
f 1080/1/5 1078/1/5 1079/1/5
f 1081/1/6 1082/1/6 1083/1/6
f 1083/1/6 1082/1/6 1084/1/6
f 1085/1/6 1086/1/6 1089/1/6
f 1089/1/6 1086/1/6 1090/1/6
f 1087/1/6 1088/1/6 1091/1/6
f 1091/1/6 1088/1/6 1092/1/6
f 1093/1/6 1094/1/6 1097/1/6
f 1097/1/6 1094/1/6 1098/1/6
f 1095/1/6 1096/1/6 1099/1/6
f 1099/1/6 1096/1/6 1100/1/6
f 1101/1/6 1102/1/6 1105/1/6
f 1105/1/6 1102/1/6 1106/1/6
f 1103/1/6 1104/1/6 1107/1/6
f 1107/1/6 1104/1/6 1108/1/6
f 1109/1/6 1110/1/6 1113/1/6
f 1113/1/6 1110/1/6 1114/1/6
f 1111/1/6 1112/1/6 1115/1/6
f 1115/1/6 1112/1/6 1116/1/6
f 1117/1/6 1118/1/6 1121/1/6
f 1121/1/6 1118/1/6 1122/1/6
f 1119/1/6 1120/1/6 1123/1/6
f 1123/1/6 1120/1/6 1124/1/6
f 1125/1/6 1126/1/6 1131/1/6
f 1131/1/6 1126/1/6 1132/1/6
f 1127/1/6 1128/1/6 1133/1/6
f 1133/1/6 1128/1/6 1134/1/6
f 1129/2/6 1130/2/6 1137/2/6
f 1137/2/6 1130/2/6 1138/2/6
f 1135/2/6 1136/2/6 1143/2/6
f 1143/2/6 1136/2/6 1144/2/6
f 1139/1/6 1140/1/6 1145/1/6
f 1145/1/6 1140/1/6 1146/1/6
f 1141/1/6 1142/1/6 1147/1/6
f 1147/1/6 1142/1/6 1148/1/6
f 1149/1/6 1150/1/6 1153/1/6
f 1153/1/6 1150/1/6 1154/1/6
f 1151/1/6 1152/1/6 1155/1/6
f 1155/1/6 1152/1/6 1156/1/6
f 1157/1/6 1158/1/6 1161/1/6
f 1161/1/6 1158/1/6 1162/1/6
f 1159/1/6 1160/1/6 1163/1/6
f 1163/1/6 1160/1/6 1164/1/6
f 1165/2/6 1166/2/6 1169/2/6
f 1169/2/6 1166/2/6 1170/2/6
f 1167/2/6 1168/2/6 1171/2/6
f 1171/2/6 1168/2/6 1172/2/6
f 1173/1/6 1174/1/6 1177/1/6
f 1177/1/6 1174/1/6 1178/1/6
f 1175/1/6 1176/1/6 1179/1/6
f 1179/1/6 1176/1/6 1180/1/6
f 1181/1/6 1182/1/6 1185/1/6
f 1185/1/6 1182/1/6 1186/1/6
f 1183/1/6 1184/1/6 1187/1/6
f 1187/1/6 1184/1/6 1188/1/6
f 1189/1/6 1190/1/6 1195/1/6
f 1195/1/6 1190/1/6 1196/1/6
f 1191/1/6 1192/1/6 1197/1/6
f 1197/1/6 1192/1/6 1198/1/6
f 1193/2/6 1194/2/6 1201/2/6
f 1201/2/6 1194/2/6 1202/2/6
f 1199/2/6 1200/2/6 1207/2/6
f 1207/2/6 1200/2/6 1208/2/6
f 1203/1/6 1204/1/6 1209/1/6
f 1209/1/6 1204/1/6 1210/1/6
f 1205/1/6 1206/1/6 1211/1/6
f 1211/1/6 1206/1/6 1212/1/6
f 1213/1/6 1214/1/6 1219/1/6
f 1219/1/6 1214/1/6 1220/1/6
f 1215/1/6 1216/1/6 1221/1/6
f 1221/1/6 1216/1/6 1222/1/6
f 1217/2/6 1218/2/6 1225/2/6
f 1225/2/6 1218/2/6 1226/2/6
f 1223/2/6 1224/2/6 1231/2/6
f 1231/2/6 1224/2/6 1232/2/6
f 1227/1/6 1228/1/6 1233/1/6
f 1233/1/6 1228/1/6 1234/1/6
f 1229/1/6 1230/1/6 1235/1/6
f 1235/1/6 1230/1/6 1236/1/6
f 1237/1/6 1238/1/6 1243/1/6
f 1243/1/6 1238/1/6 1244/1/6
f 1239/1/6 1240/1/6 1245/1/6
f 1245/1/6 1240/1/6 1246/1/6
f 1241/2/6 1242/2/6 1249/2/6
f 1249/2/6 1242/2/6 1250/2/6
f 1247/2/6 1248/2/6 1255/2/6
f 1255/2/6 1248/2/6 1256/2/6
f 1251/1/6 1252/1/6 1257/1/6
f 1257/1/6 1252/1/6 1258/1/6
f 1253/1/6 1254/1/6 1259/1/6
f 1259/1/6 1254/1/6 1260/1/6
f 1261/1/6 1262/1/6 1265/1/6
f 1265/1/6 1262/1/6 1266/1/6
f 1263/2/6 1264/2/6 1269/2/6
f 1269/2/6 1264/2/6 1270/2/6
f 1267/2/6 1268/2/6 1273/2/6
f 1273/2/6 1268/2/6 1274/2/6
f 1271/1/6 1272/1/6 1275/1/6
f 1275/1/6 1272/1/6 1276/1/6
f 1277/2/6 1278/2/6 1281/2/6
f 1281/2/6 1278/2/6 1282/2/6
f 1279/2/6 1280/2/6 1283/2/6
f 1283/2/6 1280/2/6 1284/2/6
f 1285/2/6 1286/2/6 1289/2/6
f 1289/2/6 1286/2/6 1290/2/6
f 1287/2/6 1288/2/6 1291/2/6
f 1291/2/6 1288/2/6 1292/2/6
f 1293/2/6 1294/2/6 1295/2/6
f 1295/2/6 1294/2/6 1296/2/6
